<?xml version="1.0" encoding="UTF-8"?>
<svg id="_Ñëîé_1" data-name="Ñëîé 1" xmlns="http://www.w3.org/2000/svg" viewBox="0 0 4000 1842.94">
  <defs>
    <style>
      .cls-1 {
        fill: #ce3932;
      }

      .cls-2 {
        fill: #ce4abf;
      }

      .cls-3 {
        fill: #a523a2;
      }

      .cls-4 {
        fill: #1d3f70;
      }

      .cls-5 {
        fill: #f9f8f3;
      }

      .cls-6 {
        fill: #23659b;
      }

      .cls-7 {
        fill: #b1d2ef;
      }

      .cls-8 {
        fill: #f99370;
      }

      .cls-9 {
        fill: #3a72aa;
      }

      .cls-10 {
        fill: #f4d4be;
      }

      .cls-11 {
        fill: #163356;
      }

      .cls-12 {
        fill: #e57d61;
      }

      .cls-13 {
        fill: #cfddf9;
      }

      .cls-14 {
        fill: #eb5648;
      }

      .cls-15 {
        fill: #d1a68f;
      }

      .cls-16 {
        fill: #8a9edd;
      }

      .cls-17 {
        fill: #662948;
      }

      .cls-18 {
        fill: #fcb4b4;
      }

      .cls-19 {
        fill: #f9c0c0;
      }

      .cls-20 {
        fill: #c92828;
      }

      .cls-21 {
        fill: #8c4225;
      }

      .cls-22 {
        fill: #7640cc;
      }

      .cls-23 {
        fill: #395b96;
      }

      .cls-24 {
        fill: #e3f2fc;
      }

      .cls-25 {
        fill: #e8c0a6;
      }

      .cls-26 {
        fill: #c16256;
      }

      .cls-27 {
        fill: #f49f9f;
      }

      .cls-28 {
        fill: #9358e0;
      }
    </style>
  </defs>
  <rect class="cls-16" y="1121.31" width="4000" height="721.62"/>
  <rect class="cls-13" y="1162.55" width="4000" height="680.39"/>
  <g id="_4" data-name="4">
    <rect class="cls-16" x="730.85" width="2538.31" height="974.04"/>
    <rect class="cls-24" x="765.33" y="34.49" width="2469.33" height="905.06"/>
    <polygon class="cls-7" points="3234.67 339.78 3234.67 939.55 765.33 939.55 765.33 407.12 917.39 407.12 917.39 532.27 1010.9 532.27 1010.9 633.48 1042.54 633.48 1042.54 272.65 1097.71 272.65 1097.71 234.4 1115.14 234.4 1115.14 201.73 1125.39 201.73 1125.39 141.3 1134.76 141.3 1134.76 201.73 1145.02 201.73 1145.02 234.4 1162.44 234.4 1162.44 272.65 1217.62 272.65 1217.62 633.48 1375.16 633.48 1376.91 432.92 1442.97 432.92 1442.97 340.49 1544.26 340.49 1544.26 432.92 1607.89 432.92 1607.52 570.18 1726.32 570.18 1726.32 504.25 1849.15 504.25 1849.15 570.18 1920.79 570.18 1920.79 236.42 1975.96 236.42 1975.96 198.17 1993.39 198.17 1993.39 165.5 2003.66 165.5 2003.66 105.06 2013.01 105.06 2013.01 165.5 2023.28 165.5 2023.28 198.17 2040.71 198.17 2040.71 236.42 2095.87 236.42 2095.87 570.18 2253.41 570.18 2253.41 327.43 2432.86 327.43 2432.86 462.84 2588.93 462.84 2588.93 290.53 2660.1 290.53 2660.1 247.3 2677.54 247.3 2677.54 214.64 2687.78 214.64 2687.78 154.2 2697.15 154.2 2697.15 214.64 2707.4 214.64 2707.4 247.3 2724.84 247.3 2724.84 290.53 2796.02 290.53 2796.02 462.84 2920.15 462.84 2920.15 125 3116.49 125 3116.49 339.78 3234.67 339.78"/>
    <rect class="cls-16" x="1568.46" y="17.25" width="32.32" height="943.85"/>
    <rect class="cls-16" x="2402.29" y="17.25" width="32.32" height="943.85"/>
  </g>
  <g id="_3" data-name="3">
    <polygon class="cls-27" points="1990.23 1325.15 1609.23 1325.15 1609.23 1022.67 2052.43 1022.67 1990.23 1325.15"/>
    <path class="cls-27" d="m1068.21,1307.27H394.64l-99.38-622.23c-6.37-39.86,22.77-76.2,61.09-76.2h600.3l111.55,698.43Z"/>
    <path class="cls-18" d="m1814.62,1307.27H469l-98.74-618.35-12.79-80.09h1293.21c30.25,0,56.08,23.04,61.09,54.49l4.09,25.6,98.76,618.35Z"/>
    <ellipse class="cls-27" cx="1554.87" cy="802.42" rx="15.76" ry="15.77" transform="translate(-.83 1.61) rotate(-.06)"/>
    <ellipse class="cls-27" cx="1293.32" cy="802.4" rx="15.76" ry="15.77" transform="translate(-.83 1.34) rotate(-.06)"/>
    <ellipse class="cls-27" cx="1592.95" cy="1044.56" rx="15.76" ry="15.77" transform="translate(-1.08 1.65) rotate(-.06)"/>
    <ellipse class="cls-27" cx="1331.39" cy="1044.55" rx="15.76" ry="15.77" transform="translate(-1.08 1.38) rotate(-.06)"/>
    <ellipse class="cls-27" cx="931.93" cy="1044.56" rx="15.76" ry="15.77" transform="translate(-1.08 .97) rotate(-.06)"/>
    <path class="cls-18" d="m2005.6,1445.82l7.3,34.72,11.66,55.38c2.22,10.47,12.49,17.19,22.96,14.99,7.73-1.63,13.42-7.7,14.96-14.99l11.66-55.38,7.3-34.72c4.42-20.94-8.99-41.51-29.93-45.93-20.93-4.42-41.48,8.99-45.89,29.96-1.12,5.37-1.04,10.91,0,15.97Z"/>
    <path class="cls-27" d="m2005.6,1445.82l7.3,34.72h61.23l7.3-34.72c4.42-20.94-8.99-41.51-29.93-45.93-20.93-4.42-41.48,8.99-45.89,29.96-1.12,5.37-1.04,10.91,0,15.97Z"/>
    <path class="cls-18" d="m1716.09,1445.82l7.3,34.72,11.66,55.38c2.22,10.47,12.49,17.19,22.96,14.99,7.73-1.63,13.42-7.7,14.96-14.99l11.66-55.38,7.3-34.72c4.42-20.94-8.99-41.51-29.93-45.93-20.93-4.42-41.48,8.99-45.89,29.96-1.12,5.37-1.04,10.91,0,15.97Z"/>
    <path class="cls-27" d="m1716.09,1445.82l7.3,34.72h61.23l7.3-34.72c4.42-20.94-8.99-41.51-29.93-45.93-20.93-4.42-41.48,8.99-45.89,29.96-1.12,5.37-1.04,10.91,0,15.97Z"/>
    <path class="cls-18" d="m801.96,1445.82l7.3,34.72,11.66,55.38c2.22,10.47,12.49,17.19,22.96,14.99,7.73-1.63,13.42-7.7,14.96-14.99l11.66-55.38,7.3-34.72c4.42-20.94-8.99-41.51-29.93-45.93-20.93-4.42-41.48,8.99-45.89,29.96-1.12,5.37-1.04,10.91,0,15.97Z"/>
    <path class="cls-27" d="m801.96,1445.82l7.3,34.72h61.23l7.3-34.72c4.42-20.94-8.99-41.51-29.93-45.93-20.93-4.42-41.48,8.99-45.89,29.96-1.12,5.37-1.04,10.91,0,15.97Z"/>
    <path class="cls-18" d="m482.5,1445.82l7.3,34.72,11.66,55.38c2.22,10.47,12.49,17.19,22.96,14.99,7.73-1.63,13.42-7.7,14.96-14.99l11.66-55.38,7.3-34.72c4.42-20.94-8.99-41.51-29.93-45.93-20.93-4.42-41.48,8.99-45.89,29.96-1.12,5.37-1.04,10.91,0,15.97Z"/>
    <path class="cls-27" d="m482.5,1445.82l7.3,34.72h61.23l7.3-34.72c4.42-20.94-8.99-41.51-29.93-45.93-20.93-4.42-41.48,8.99-45.89,29.96-1.12,5.37-1.04,10.91,0,15.97Z"/>
    <path class="cls-27" d="m369.01,1307.27h723.41v146.68H483.25c-63.05,0-114.24-51.19-114.24-114.24v-32.44h0Z"/>
    <path class="cls-18" d="m824.44,1241.4c0,36.73,126.13,66.51,281.7,66.51s281.72-29.78,281.72-66.51-126.13-66.51-281.72-66.51-281.7,29.78-281.7,66.51Z"/>
    <path class="cls-19" d="m770.59,1241.4c340.98-73.51,665.78,0,665.78,0,0-36.73-149.04-66.51-332.9-66.51s-332.88,29.78-332.88,66.51Z"/>
    <path class="cls-18" d="m1441.4,1241.4c0,36.73,117.07,66.51,261.46,66.51s261.48-29.78,261.48-66.51-117.07-66.51-261.48-66.51-261.46,29.78-261.46,66.51Z"/>
    <path class="cls-19" d="m1437.19,1241.4c269.98-73.51,527.16,0,527.16,0,0-36.73-118.01-66.51-263.59-66.51s-263.57,29.78-263.57,66.51Z"/>
    <path class="cls-27" d="m1964.34,1241.4c-269.98,73.51-527.16,0-527.16,0-.07,1.09-.13,2.17-.2,3.23-.2-1.07-.41-2.14-.62-3.23-340.98,73.51-665.78,0-665.78,0-1.09,26.6,157.04,66.51,157.04,66.51,253.61,58.83,817.08,53.95,1036.91,0l-.2-66.51Z"/>
    <path class="cls-18" d="m770.59,1307.92c0,62.86,68.98,146.03,68.98,146.03h1212.86s62.91-83.51,62.91-146.68l-1344.75.65Z"/>
    <path class="cls-27" d="m1964.37,1367.65s-271.35,37.31-496.18,37.31-540.57-37.31-540.57-37.31l-88.05,88.14h1212.86l-88.06-88.14Z"/>
    <polygon class="cls-27" points="750.02 1325.15 369.01 1325.15 369.01 1022.67 839.57 1022.67 750.02 1325.15"/>
    <path class="cls-18" d="m927.63,1110.8v256.85c0,48.68-39.43,88.14-88.05,88.14-24.32,0-46.33-9.87-62.27-25.82-15.94-15.95-25.8-37.98-25.8-62.32v-256.85c0-48.66,39.43-88.12,88.07-88.12,24.3,0,46.33,9.86,62.25,25.82,15.94,15.94,25.8,37.96,25.8,62.3Z"/>
    <path class="cls-27" d="m927.63,1110.8v256.85c0,48.68-39.43,88.14-88.05,88.14,88.22-196.81,88.05-344.99,88.05-344.99Z"/>
    <path class="cls-19" d="m927.63,1110.8c-89.76-98.84-176.13,0-176.13,0,0-48.66,39.43-88.12,88.07-88.12,24.3,0,46.33,9.86,62.25,25.82,15.94,15.94,25.8,37.96,25.8,62.3Z"/>
    <path class="cls-18" d="m1964.37,1110.8v256.85c0,48.68,39.43,88.14,88.05,88.14,24.32,0,46.33-9.87,62.27-25.82,15.94-15.95,25.8-37.98,25.8-62.32v-256.85c0-48.66-39.43-88.12-88.07-88.12-24.3,0-46.33,9.86-62.25,25.82-15.94,15.94-25.8,37.96-25.8,62.3Z"/>
    <path class="cls-27" d="m1964.37,1110.8v256.85c0,48.68,39.43,88.14,88.05,88.14-84.79-202.6-88.05-344.99-88.05-344.99Z"/>
    <path class="cls-19" d="m1964.37,1110.8c89.76-98.84,176.13,0,176.13,0,0-48.66-39.43-88.12-88.07-88.12-24.3,0-46.33,9.86-62.25,25.82-15.94,15.94-25.8,37.96-25.8,62.3Z"/>
    <ellipse class="cls-27" cx="907.5" cy="790.73" rx="15.76" ry="15.77" transform="translate(-.82 .94) rotate(-.06)"/>
    <ellipse class="cls-27" cx="645.95" cy="790.71" rx="15.76" ry="15.77" transform="translate(-.82 .67) rotate(-.06)"/>
    <path class="cls-19" d="m1715.86,688.92c-643.26-107.42-1345.6,0-1345.6,0l-12.79-80.09h1293.21c30.25,0,56.08,23.04,61.09,54.49l4.09,25.6Z"/>
  </g>
  <g id="_2" data-name="2">
    <path class="cls-18" d="m2609.19,1445.82l-7.3,34.72-11.66,55.38c-2.22,10.47-12.49,17.19-22.96,14.99-7.73-1.63-13.42-7.7-14.96-14.99l-11.66-55.38-7.3-34.72c-4.42-20.94,8.99-41.51,29.93-45.93,20.93-4.42,41.48,8.99,45.89,29.96,1.12,5.37,1.04,10.91,0,15.97Z"/>
    <path class="cls-27" d="m2609.19,1445.82l-7.3,34.72h-61.23l-7.3-34.72c-4.42-20.94,8.99-41.51,29.93-45.93,20.93-4.42,41.48,8.99,45.89,29.96,1.12,5.37,1.04,10.91,0,15.97Z"/>
    <path class="cls-18" d="m2898.7,1445.82l-7.3,34.72-11.66,55.38c-2.22,10.47-12.49,17.19-22.96,14.99-7.73-1.63-13.42-7.7-14.96-14.99l-11.66-55.38-7.3-34.72c-4.42-20.94,8.99-41.51,29.93-45.93,20.93-4.42,41.48,8.99,45.89,29.96,1.12,5.37,1.04,10.91,0,15.97Z"/>
    <path class="cls-27" d="m2898.7,1445.82l-7.3,34.72h-61.23l-7.3-34.72c-4.42-20.94,8.99-41.51,29.93-45.93,20.93-4.42,41.48,8.99,45.89,29.96,1.12,5.37,1.04,10.91,0,15.97Z"/>
    <path class="cls-18" d="m3063.89,1445.82l-7.3,34.72-11.66,55.38c-2.22,10.47-12.49,17.19-22.96,14.99-7.73-1.63-13.42-7.7-14.96-14.99l-11.66-55.38-7.3-34.72c-4.42-20.94,8.99-41.51,29.93-45.93,20.93-4.42,41.48,8.99,45.89,29.96,1.12,5.37,1.04,10.91,0,15.97Z"/>
    <path class="cls-27" d="m3063.89,1445.82l-7.3,34.72h-61.23l-7.3-34.72c-4.42-20.94,8.99-41.51,29.93-45.93,20.93-4.42,41.48,8.99,45.89,29.96,1.12,5.37,1.04,10.91,0,15.97Z"/>
    <path class="cls-18" d="m3383.35,1445.82l-7.3,34.72-11.66,55.38c-2.22,10.47-12.49,17.19-22.96,14.99-7.73-1.63-13.42-7.7-14.96-14.99l-11.66-55.38-7.3-34.72c-4.42-20.94,8.99-41.51,29.93-45.93,20.93-4.42,41.48,8.99,45.89,29.96,1.12,5.37,1.04,10.91,0,15.97Z"/>
    <path class="cls-27" d="m3383.35,1445.82l-7.3,34.72h-61.23l-7.3-34.72c-4.42-20.94,8.99-41.51,29.93-45.93,20.93-4.42,41.48,8.99,45.89,29.96,1.12,5.37,1.04,10.91,0,15.97Z"/>
    <path class="cls-27" d="m2797.64,1307.27h673.57l99.38-622.23c6.37-39.86-22.77-76.2-61.09-76.2h-600.3l-111.55,698.43Z"/>
    <polygon class="cls-27" points="2541.16 1325.15 2922.16 1325.15 2922.16 1022.67 2478.96 1022.67 2541.16 1325.15"/>
    <path class="cls-18" d="m3508.39,608.83l-12.79,80.09-98.75,618.36h-673.57l98.76-618.36,4.09-25.6c5.01-31.45,30.84-54.49,61.09-54.49h621.17Z"/>
    <path class="cls-27" d="m2887.67,1307.27h609.17v146.68h-723.41v-32.44c0-63.05,51.19-114.24,114.24-114.24Z" transform="translate(6270.27 2761.22) rotate(180)"/>
    <path class="cls-18" d="m3041.42,1241.4c0,36.73-126.13,66.51-281.7,66.51s-281.72-29.78-281.72-66.51,126.13-66.51,281.72-66.51,281.7,29.78,281.7,66.51Z"/>
    <path class="cls-19" d="m3095.26,1241.4c-340.98-73.51-665.78,0-665.78,0,0-36.73,149.04-66.51,332.9-66.51s332.88,29.78,332.88,66.51Z"/>
    <path class="cls-27" d="m2429.48,1241.4c340.98,73.51,665.78,0,665.78,0,8.62,106.54-31.34,81.68-342.51,81.68-310,0-346.15,36.8-323.28-81.68Z"/>
    <path class="cls-18" d="m2465.51,1057.43h0c40.36,0,73.09,33.29,73.09,74.37v175.47h429.58v-175.47c0-41.07,32.72-74.37,73.09-74.37h0c40.36,0,73.09,33.29,73.09,74.37v208.34c0,62.86-50.08,113.81-111.85,113.81h-497.67c-62.08,0-112.4-51.2-112.4-114.37v-207.78c0-41.07,32.72-74.37,73.09-74.37Z"/>
    <ellipse class="cls-27" cx="2997.31" cy="790.73" rx="15.77" ry="15.76" transform="translate(2203.48 3787.22) rotate(-89.94)"/>
    <ellipse class="cls-27" cx="3258.86" cy="790.71" rx="15.77" ry="15.76" transform="translate(2464.77 4048.75) rotate(-89.94)"/>
    <path class="cls-18" d="m2567.02,1110.8v256.85c0,48.68-39.43,88.14-88.05,88.14-24.32,0-46.33-9.87-62.27-25.82-15.94-15.95-25.8-37.98-25.8-62.32v-256.85c0-48.66,39.43-88.12,88.07-88.12,24.3,0,46.33,9.86,62.25,25.82,15.94,15.94,25.8,37.96,25.8,62.3Z"/>
    <path class="cls-27" d="m2567.02,1110.8v256.85c0,48.68-39.43,88.14-88.05,88.14,103.45-206.35,88.05-369.33,88.05-344.99Z"/>
    <path class="cls-19" d="m2567.02,1110.8c-89.76-98.84-176.13,0-176.13,0,0-48.66,39.43-88.12,88.07-88.12,24.3,0,46.33,9.86,62.25,25.82,15.94,15.94,25.8,37.96,25.8,62.3Z"/>
    <path class="cls-27" d="m2567.02,1367.65s65.38,37.4,166.84,37.4,204.37-37.4,204.37-37.4l88.05,88.14h-547.32l88.05-88.14Z"/>
    <path class="cls-19" d="m3508.39,608.83l-12.79,80.09c-349.94-94.95-673.56,0-673.56,0l4.09-25.6c5.01-31.45,30.84-54.49,61.09-54.49h621.17Z"/>
    <path class="cls-20" d="m2846.39,472.31s-29.08-16.41-50.07,21.1c-20.99,37.51-5.73,41.21-36.42,82.62-30.69,41.4,21.53,91.81,54.86,94.99,33.33,3.18,4.81,47.61,69.45,44.65,64.65-2.96,188.02-197.67-37.82-243.35Z"/>
    <path class="cls-8" d="m2885.97,797.38c-34.23,23.2-66.24,49.94-96.72,77.92-13.06,11.79-25.64,25.98-39.32,37.11-53.62,42.9-129.6,36.75-188.71,9.54-17.67-7.97-34.41-17.52-50.07-28.89-13.96-10.45-40.13-26.7-23.45-45.98,6.67-7.18,17.51-8.18,25.33-2.82,13.28,8.65,27.94,15.72,42.98,21.3,40.46,14.14,90.58,22.77,128.54-1.5,7.61-5.11,13.74-12.03,18.73-19.67,11.92-16.77,24.77-33.81,37.75-49.78,23.23-28.53,47.83-56.29,74.35-81.91,60.73-62.74,143.95,37.4,70.59,84.68Z"/>
    <path class="cls-2" d="m2845.66,688.62s-32.91,169.74-51.35,215.69c-1.03,2.57-2.02,4.76-2.95,6.5-12.4,23.2-45.3,43.34-83.73,51.89-.01,0-.02.01-.03.01-16.16,3.6-33.29,5.14-50.29,4.01-34.04-2.27-55.17-15.03-66.73-25.04-7.96-6.89-11.39-12.49-11.39-12.49,20.68-13.79,16.87-52.51,16.87-52.51,2.67-4.34,7.01-8.25,12.46-11.8,22.59-14.75,64.17-23.52,84.22-32.33,36.77-16.16,48.06-77.23,84.06-112.47,36-35.23,68.86-31.46,68.86-31.46Z"/>
    <path class="cls-8" d="m2497.37,1631.48l125.53-1.38c-.32-20.06-5.67-60.57-1.68-83.47,0,0-56.05-6.67-56.05-6.67,1.5,11,11.6,48.68-11.55,54.21-24.1,5.75-49.4,5.12-64.16,23.32-3.83,6.11.7,14.06,7.91,13.98Z"/>
    <path class="cls-4" d="m2626.58,1617.97c-.47,4.25-1.59,8.39-3.68,12.13l-126.75,1.39c-6.16.07-10.69-5.95-8.71-11.79,4.66-13.64,21.15-33.54,79.54-37.24,0,0,19.94,5.7,52.55-.58,0,0,8.95,18.85,7.04,36.08Z"/>
    <path class="cls-25" d="m2524.7,1614.82c-1,0-1.96-.59-2.37-1.58-4.77-11.41-13.19-14.82-13.54-14.96-3.09-1.15-1.25-6.03,1.84-4.79.44.17,10.78,4.24,16.44,17.77.73,1.64-.58,3.59-2.37,3.56Z"/>
    <path class="cls-25" d="m2544.63,1612.19c-1.09,0-2.09-.69-2.44-1.78-4.25-13.23-15.88-19.23-16-19.29-2.99-1.45-.64-6.13,2.32-4.58.55.28,13.66,7.05,18.57,22.3.55,1.62-.74,3.38-2.44,3.36Z"/>
    <path class="cls-25" d="m2567.31,1609.15c-1.05,0-2.04-.65-2.42-1.7-4.94-13.73-16.1-21.11-16.21-21.18-2.81-1.77.02-6.16,2.79-4.31.51.33,12.7,8.34,18.25,23.75.62,1.63-.68,3.47-2.42,3.44Z"/>
    <path class="cls-23" d="m2487.51,1619.5l139.07-1.53c-.47,4.25-1.59,8.39-3.68,12.13l-126.75,1.39c-6.25.08-10.79-6.13-8.64-11.99Z"/>
    <path class="cls-14" d="m2900.58,1181.01c-72.39.24-166.08,41.01-210.11,110.87-43.91,67.07-40.16,189.62-39.61,249.94-67.81,21.84-108.13,5.05-108.13,5.05-25.55-208.68-32.23-445.45,198.63-501.5-.01,0,213.4,0,213.4,0,35.69,72.74,3.78,134.42-54.18,135.65Z"/>
    <path class="cls-1" d="m2831.92,1065.41l-71.23,158.16c-39.46,25.12-77.65,65.74-91.85,115.46-14.12-237.71,131.31-263.24,163.07-273.61Z"/>
    <path class="cls-8" d="m2650.96,1660.23l125.53-1.38c-.32-20.06-5.67-60.57-1.68-83.47,0,0-59.92.59-59.92.59,1.5,11,8.58,41.99-7.68,46.96-23.7,7.23-49.4,5.12-64.16,23.32-3.83,6.11.7,14.06,7.91,13.98Z"/>
    <path class="cls-4" d="m2780.17,1646.73c-.47,4.25-1.59,8.39-3.68,12.13l-126.75,1.39c-6.16.07-10.69-5.95-8.71-11.79,4.66-13.64,21.15-33.54,79.54-37.24,0,0,19.94,5.7,52.56-.58,0,0,8.95,18.85,7.04,36.08Z"/>
    <path class="cls-25" d="m2678.29,1643.58c-1,0-1.96-.59-2.37-1.58-4.77-11.41-13.19-14.82-13.54-14.96-3.09-1.15-1.25-6.03,1.84-4.79.44.17,10.78,4.24,16.44,17.77.73,1.64-.58,3.59-2.37,3.56Z"/>
    <path class="cls-25" d="m2698.22,1640.95c-1.09,0-2.09-.69-2.44-1.78-4.25-13.23-15.88-19.23-16-19.29-2.99-1.45-.64-6.13,2.32-4.58.55.28,13.66,7.05,18.57,22.3.55,1.62-.74,3.38-2.44,3.36Z"/>
    <path class="cls-25" d="m2720.89,1637.91c-1.05,0-2.04-.65-2.42-1.7-4.94-13.73-16.1-21.11-16.21-21.18-2.81-1.77.02-6.16,2.79-4.31.51.33,12.7,8.34,18.25,23.75.62,1.63-.68,3.47-2.42,3.44Z"/>
    <path class="cls-23" d="m2641.1,1648.26l139.07-1.53c-.47,4.25-1.59,8.39-3.68,12.13l-126.75,1.39c-6.25.08-10.79-6.13-8.64-11.99Z"/>
    <path class="cls-3" d="m2794.31,904.31c-1.03,2.57-2.02,4.76-2.95,6.5-12.4,23.2-45.3,43.34-83.73,51.89,63.35-18.96,32.24-73.09,42.96-112.92,10.72-39.83,38.17-69.64,38.17-69.64l5.55,124.17Z"/>
    <path class="cls-14" d="m3007.63,1206.29c-64.95,39.3-144.1,5.01-189.56,96.8-36.57,79.36-24.66,211.36-17.85,275.87-67.81,21.84-104.27,0-104.27,0-56.67-317.59-34.46-564.14,350.77-533.59,0,0,55.68,103.58-39.09,160.93Z"/>
    <path class="cls-2" d="m3014.9,896.14c0,68.97,28.97,86.53,29.36,159.09,0,0-220.2,39.75-302.9-9.87,58.87-120.38-24.41-170.61,47.4-265.23,15.08-20.45,50.31-70.53,65.95-92.92.92.13,51.88,4.65,52.75,4.76,51.71,38.04,117.86-5.38,107.45,204.17Z"/>
    <path class="cls-8" d="m2862.77,1058.03c-.47,2.1.97,4.15,3.09,4.48,6.15,1.19,12.24,2.94,17.93,5.52-9.62,6.04-21.05,9.34-21.08,9.41-14,1.39-28.04,2.02-42.12,2.01-4.51-.11-5.01,6.95-.47,7.42,13.62,1.7,27.37,2.81,41.11,3.22.01.07.03.14.04.21-14.03,4.48-28.34,8.2-42.86,10.69-17.48,15.1,42.43,1.17,47.34.35.02.03.04.06.06.09-12.48,6.45-25.77,11.37-39.4,14.82-15.87,16.83,43.25-2.13,47.91-4.66.04.04.08.08.12.11-9.07,6.49-18.96,11.82-29.05,16.61-12.28,17.6,35.32-5.47,39.47-8.14,5.28-1.74,17.82-2.76,37.7-20.24,6.19-5.43,2.72-27.44-3.87-32.12-7.42-5.27-21.18-6.93-24.9-7.29-5.9-1.84-28.31-9.68-31.02-2.51Z"/>
    <path class="cls-8" d="m2483.67,799.83c-2.04,1.22-2.59,3.93-1.25,5.88,3.71,5.83,6.93,12.03,9.18,18.55-12.13-3.12-23.45-9.78-23.53-9.75-11.73-10.16-22.89-20.93-33.56-32.21-3.33-3.7-9.37,1.26-6.3,5.26,8.97,12.2,18.51,24.05,28.6,35.37-.05.06-.09.13-.14.19-14.23-7.84-28.06-16.48-41.07-26.22-25.36-2.54,31.25,34.87,35.63,38.18,0,.04-.02.08-.03.11-14.63-5.11-28.65-12.01-41.76-20.31-25.52.06,34.51,33.03,40.07,34.84,0,.06,0,.12,0,.18-12.08-2.34-23.86-6.22-35.34-10.67-23.41,3.52,31.17,24.14,36.46,25.44,5.4,2.9,15.73,12.18,44.81,14.84,9.04.84,24.04-18.63,22.79-27.46-1.41-9.94-10.52-22.22-13.05-25.47-3.01-6.12-13.72-30.01-21.52-26.75Z"/>
    <path class="cls-3" d="m2923.07,688.39c-23.32,106.68-113.24,156.81-77.41.23,7.14-2.81,46.05.4,53.75.27-3.83-4.27,7.92.25,8.25-1.14,0,0,5.83-.5,15.42.64Z"/>
    <path class="cls-8" d="m2854.61,671.81c.46,25.45-.42,7.67-5.1,57.04-4.87,52.43,13.5,60.48,34.66,13.59,8.24-18.4,23.49-54.69,23.49-54.69,0,0-2.44-21.83-1.45-29.39l-51.59,13.46Z"/>
    <path class="cls-1" d="m2800.22,1578.95c-67.81,21.84-104.27,0-104.27,0,0,0-1.31-6.61-3.29-18.24,0,0,41.24,13.92,105.07-4.65,1.37,14.32,2.49,22.88,2.49,22.88Z"/>
    <path class="cls-1" d="m2650.86,1541.82c-67.81,21.84-108.13,5.05-108.13,5.05,0,0-.84-6.78-2.03-18.55,0,0,33.96,15.36,109.74-3.8.16,10.85.42,17.3.42,17.3Z"/>
    <path class="cls-3" d="m2855.74,805.57c.12,8.09-12.59,8.09-12.47,0-.12-8.09,12.59-8.09,12.47,0Z"/>
    <path class="cls-3" d="m2849.5,829.82c.12,8.09-12.59,8.09-12.47,0-.12-8.09,12.59-8.09,12.47,0Z"/>
    <path class="cls-12" d="m2854.61,671.81c11.19.13,34.16-1.3,51.59-13.46-.31-1.57-.59-3.19-.86-4.83-3.4-15.6-4.37-29.57-4.91-38.56-.52-16.95,1.29-23.69-10.14-33.91-8.16-6.91-21.72-7.78-30.67-1.88-23.12,15.36-8.86,50.1-5.02,92.64Z"/>
    <path class="cls-8" d="m2817.66,651.19c21.36,14.72,49.87,14.47,70.98,5.47,1.2-.51,2.41-1.03,3.55-1.59,45.15-21.6,44.49-98.27,17.41-132.96-16.93-23.94-53.28-33.43-77.36-15.08-16.63,13.46-19.97,33.74-24.38,55.25-1.48,5.66-4.95,13.35-8.74,18.86-14.46,21.64-8.94,50.09,18.54,70.05Z"/>
    <path class="cls-12" d="m2869.35,544.07c40.74,4.98,42.44,36.81,42.44,36.81l12.05-19.13-43.63-52.09-35.16-9.5c-7.84,2.57-14.51,7.32-19.73,13.75,0,0,3.28,25.18,44.02,30.16Z"/>
    <path class="cls-5" d="m2826.07,619.44l26.2-20.54c6.1,17.15-10.12,32.02-26.2,20.54Z"/>
    <path class="cls-26" d="m2840.47,575.75c-2.78-3.46,2.72-7.75,5.4-4.21,2.78,3.46-2.72,7.75-5.4,4.21Z"/>
    <path class="cls-26" d="m2811.3,576.51c-2.78-3.46,2.72-7.75,5.4-4.21,2.78,3.46-2.72,7.75-5.4,4.21Z"/>
    <path class="cls-26" d="m2826.07,620.73c-1.18.04-1.78-1.6-.8-2.31,0,0,26.2-20.54,26.2-20.54.56-.44,1.38-.34,1.82.22.44.56.34,1.38-.22,1.82-.83.3-25.98,21.04-27,20.81Z"/>
    <path class="cls-26" d="m2824.39,603.95c-5.5-.16-12.36-2.56-6.54-8.45,5.68-4.68,7.78-18.74,7.8-18.88,5.6-6.24.25,16.08-6.15,20.88-4.38,4.02,6.57,4.95,10.55,2.61.63-.35,1.41-.12,1.76.51.53,3.15-5.03,3.07-7.42,3.33Z"/>
    <path class="cls-8" d="m3027.33,696.8c37.16,51.76,69.39,107.49,88.92,168.51,38.6,114.32-28.3,181.46-131.39,216.68-14.37,5.09-28.64,9.51-43.19,13.63-14.4,5.1-33.04,8.7-38.46-10.14-2.43-9.22,2.1-18.66,10.35-22.7,17.15-8.58,34.03-17.29,50.03-26.79,32.9-20.32,72.34-44.56,81.64-82.36,3.37-19.99-5.28-38.57-13.25-56.88-23-47.31-55.91-90.07-90.46-129.61-45.76-56.33,39.57-126.25,85.8-70.36Z"/>
    <path class="cls-2" d="m3143.7,918.05c.03,60.1-17.35,117.97-62.18,133.27-8.99,3.08-19.09,4.43-30.38,3.75,0,0-14.14-40.09-36.24-54.65,0,0-3.91-8.02-2.21-22.36.39-3.32,1.09-6.99,2.21-10.97,5.95-21.17,1.51-56.96-19.8-97.65-21.31-40.68-105-112.4-72.03-181.05,0,0,57.74-54.86,120.8,9.48,63.06,64.34,99.8,180.68,99.83,220.18Z"/>
    <path class="cls-3" d="m3075.04,1050.64c-8.99,3.08-12.61,5.12-23.9,4.44,0,0-14.14-40.09-36.24-54.65,0,0-3.91-8.02-2.21-22.36,15.51,6.15,38.18,15.72,62.35,72.57Z"/>
    <polygon class="cls-27" points="3115.83 1325.15 3496.84 1325.15 3496.84 1022.67 3026.28 1022.67 3115.83 1325.15"/>
    <path class="cls-3" d="m3014.9,1002.42c-.8,0-1.56-.49-1.87-1.28-4.83-12.49-3.53-18.42-1.55-27.4.48-2.17.97-4.41,1.44-7.01,2.17-11.95,1.03-48.58-11.43-79.09-11.91-29.15-40.05-62.26-40.33-62.59-.72-.84-.62-2.1.22-2.82.84-.72,2.1-.62,2.82.22.29.34,28.84,33.93,40.99,63.68,11.78,28.84,14.38,66.39,11.66,81.31-.49,2.68-1.01,5.06-1.47,7.16-1.89,8.57-3.03,13.74,1.37,25.1.4,1.03-.11,2.19-1.14,2.59-.24.09-.48.14-.72.14Z"/>
    <path class="cls-18" d="m2938.22,1110.8v256.85c0,48.68,39.43,88.14,88.05,88.14,24.32,0,46.33-9.87,62.27-25.82,15.94-15.95,25.8-37.98,25.8-62.32v-256.85c0-48.66-39.43-88.12-88.07-88.12-24.3,0-46.33,9.86-62.25,25.82-15.94,15.94-25.8,37.96-25.8,62.3Z"/>
    <path class="cls-27" d="m2938.22,1110.8v256.85c0,48.68,39.43,88.14,88.05,88.14-79.92-205.24-88.05-344.99-88.05-344.99Z"/>
    <path class="cls-19" d="m2938.22,1110.8c89.76-98.84,176.13,0,176.13,0,0-48.66-39.43-88.12-88.07-88.12-24.3,0-46.33,9.86-62.25,25.82-15.94,15.94-25.8,37.96-25.8,62.3Z"/>
    <path class="cls-20" d="m2832.25,507.04c-.95-36.04,69.01-110.49,141.24-29.09,52.67,65.07,174.5,124.69,87.62,182.98-34.58,13.2.07,41.81-19.92,63.55-19.99,21.74-54.29,11.47-47.81,53.01,6.48,41.54-17.82,56.05-46.83,59.24-29.02,3.19-77.21-67.53-49.46-100.39,27.75-32.86-4.08-48.91,4.86-87.09,8.94-38.17,25.69-48.03,25.69-48.03l-12.9-31.53c-8.77-41.13-77.46-24.08-82.48-62.65Z"/>
    <path class="cls-8" d="m2944.1,581.39c-.82,26.42-32.33,25.92-32.32-.51.82-26.42,32.33-25.92,32.32.51Z"/>
    <path class="cls-26" d="m2936.87,588.19c-.76,0-1.37-.67-1.29-1.43,2.03-14.55-4.58-18.79-13.18-13.34-1.4.92-2.82-1.31-1.39-2.19,9.75-6.39,19.75-1.38,17.14,15.8-.07.66-.63,1.16-1.29,1.16Z"/>
    <path class="cls-26" d="m2924.66,588.72c-3.45-.09,1.37-13.12,10.9-15.75.69-.18,1.4.23,1.58.92.18.69-.23,1.4-.92,1.58-9.9,3-8.78,12.67-11.56,13.24Z"/>
    <path class="cls-26" d="m2856.75,566.01c-.5,0-.99-.25-1.28-.71-6.98-11.29-17.6-10.81-18.05-10.78-.78.06-1.54-.58-1.59-1.41-.05-.82.57-1.54,1.4-1.59.53-.03,12.84-.67,20.79,12.2.44.7.22,1.63-.49,2.06-.25.15-.52.22-.79.22Z"/>
    <path class="cls-26" d="m2808.83,563.97c-.29,0-.58-.08-.84-.26-.69-.46-.87-1.4-.4-2.08.25-.37,6.31-9.14,16.42-7.27.81.15,1.35.93,1.2,1.75-.15.81-.93,1.36-1.75,1.2-8.21-1.51-13.34,5.93-13.4,6-.29.43-.76.66-1.24.66Z"/>
    <path class="cls-3" d="m2590.58,941.68c-7.96-6.89-11.39-12.49-11.39-12.49,20.68-13.79,16.87-52.51,16.87-52.51,2.67-4.34,7.01-8.25,12.46-11.8,0,0,14.36,51.25-17.94,76.8Z"/>
  </g>
  <g id="_1" data-name="1">
    <path class="cls-4" d="m1213.34,704.24c7.48,21.45,82.86,237.74,87.78,251.85,99.12,40.82,195.45.91,254.81-77.34,4.27-4.8,7.37-12.83,2.59-17.13-8.91-8.01-12.13-23.99-10.58-31.06.77-3.51-3.18-7.6-6.46-6.14-190.84,98.32-226.56-96.1-328.14-120.18Z"/>
    <path class="cls-11" d="m1289.59,923.02l11.53,33.06c14.5,6.62,34.07,11.95,56.4,14.24-62.57-41.37-5.53-135.2-60.04-176.85l-7.89,129.54Z"/>
    <path class="cls-17" d="m1608.3,613.81c-66.4-47.52-123.07-5.28-148.82,62.65-58.7,154.87-16.98,205.63,6.9,240.36,33.79,49.15,28.94,49.69,134.76,15.86,74.17-23.71,38.5-192.87,38.5-192.87,13.41-22.7,39.25-126.13-31.34-126Z"/>
    <path class="cls-8" d="m1739.7,1223.15c-2.79,113.75-1.09,143.73-11.96,256.99-2.51,26.82-38.3,33.41-42.47,4.43-3.86-28.81-4.17-55.98-7.69-84.95-8.85-84.54-19.94-169.12-32.87-253.14-9.52-72.97,94.49,2.94,94.99,76.67Z"/>
    <path class="cls-8" d="m1723.63,1480.31s-9.47,16.77-39.13,1.76l39.13-1.76Z"/>
    <path class="cls-4" d="m1684.5,1482.07s-5.88,14.4-3.74,27.14c.52,3.14,1.53,6.17,3.24,8.87l94.37-4.24c4.59-.21,7.71-4.87,5.99-9.13-.02-.05-.04-.1-.06-.15-3.97-9.74-17.21-23.98-60.68-24.25l-39.13,1.76Z"/>
    <path class="cls-25" d="m1756.33,1502.62c.79,0,1.53-.49,1.8-1.28,3.07-8.69,9.19-11.58,9.45-11.7.96-.44,1.38-1.57.95-2.53-.44-.96-1.56-1.39-2.52-.96-.32.14-7.84,3.61-11.49,13.91-.35,1,.17,2.09,1.17,2.44.21.07.43.11.64.11Z"/>
    <path class="cls-25" d="m1741.4,1501.5c.85,0,1.63-.57,1.85-1.43,2.6-9.96,11.02-14.97,11.1-15.02.91-.53,1.22-1.7.69-2.61-.53-.91-1.7-1.23-2.61-.7-.4.23-9.87,5.82-12.89,17.37-.27,1.02.35,2.07,1.37,2.33.16.04.32.06.48.06Z"/>
    <path class="cls-25" d="m1724.4,1500.18c.82,0,1.59-.54,1.83-1.37,3.11-10.42,11.1-16.38,11.18-16.44.85-.62,1.04-1.82.41-2.67-.62-.85-1.82-1.04-2.67-.42-.37.27-9.1,6.73-12.6,18.44-.3,1.01.27,2.08,1.29,2.38.18.05.37.08.55.08Z"/>
    <path class="cls-23" d="m1784.31,1504.55l-103.54,4.65c.52,3.14,1.53,6.17,3.24,8.87l94.37-4.24c4.59-.21,7.71-4.87,5.99-9.13l-.06-.15Z"/>
    <path class="cls-8" d="m1624.43,1159.68c-2.15,113.76-6.83,227.39-17.06,340.71-2.36,26.84-38.11,33.63-42.44,4.67-4.02-28.79-4.48-55.95-8.16-84.9-9.32-84.49-20.88-169.01-34.28-252.96-9.93-72.91,101.04-81.25,101.95-7.52Z"/>
    <path class="cls-8" d="m1603.26,1500.59s-9.37,16.82-39.12,1.98l39.12-1.98Z"/>
    <path class="cls-4" d="m1564.14,1502.56s-5.8,14.43-3.59,27.16c.54,3.14,1.57,6.17,3.29,8.85l94.34-4.77c4.59-.23,7.68-4.91,5.94-9.17-.02-.05-.04-.1-.06-.15-4.02-9.72-17.35-23.88-60.81-23.91l-39.12,1.98Z"/>
    <path class="cls-25" d="m1636.08,1522.72c.79,0,1.53-.5,1.81-1.29,3.03-8.7,9.13-11.63,9.39-11.75.96-.44,1.38-1.58.94-2.54-.44-.96-1.57-1.38-2.53-.95-.32.14-7.82,3.65-11.41,13.97-.35,1,.18,2.09,1.18,2.44.21.07.42.11.63.11Z"/>
    <path class="cls-25" d="m1621.13,1521.68c.85,0,1.63-.58,1.85-1.44,2.56-10.03,10.93-15.03,11.01-15.08.91-.53,1.22-1.71.68-2.62-.53-.91-1.71-1.22-2.62-.68-.4.23-9.84,5.87-12.79,17.44-.26,1.02.36,2.07,1.38,2.33.16.04.32.06.47.06Z"/>
    <path class="cls-25" d="m1604.13,1520.46c.83,0,1.59-.54,1.84-1.38,3.05-10.44,11.01-16.44,11.09-16.5.85-.63,1.03-1.83.4-2.68-.63-.85-1.82-1.03-2.67-.4-.37.27-9.07,6.78-12.49,18.5-.3,1.01.29,2.08,1.3,2.37.18.05.36.08.54.08Z"/>
    <path class="cls-23" d="m1664.07,1524.49l-103.51,5.23c.54,3.14,1.57,6.17,3.29,8.85l94.34-4.77c4.59-.23,7.68-4.91,5.94-9.17l-.06-.15Z"/>
    <path class="cls-8" d="m1573.3,888.75c-.06-.06-.51-.36-.49-.45,43.06,35.49,63.35,96.11,77.55,148.83,5,20.01,8.91,40.48,12.01,61.16,2.7,18.61,31.03,16.39,30.7-2.45-1.66-84.07-13.1-174.38-64.8-243.93-36.62-55.05-95.59,1.63-54.97,36.84Z"/>
    <path class="cls-25" d="m1604.02,827.69l11.14,122.66.13,49.52c30.44-9.72,72.16-16.04,72.16-16.04-1.44-5.53-12.15-44.49-13.79-49.55-32.36-99.82-69.64-106.6-69.64-106.6Z"/>
    <path class="cls-15" d="m1624.42,983.98l1.7,18.73c29.88-15.73,61.34-18.88,61.34-18.88-1.44-5.53-2.96-10.83-4.54-15.91-14.89,2.24-39.86,7.06-58.5,16.06Z"/>
    <path class="cls-28" d="m1448.16,1131.93c2.75,32.26,10.92,68.54,41.19,83.99,27.29,14.24,29.48,67.82,30.03,91.43,0,0,138.72,20.38,233.51-11.87,2.54-54.03,8.68-137.43-34.86-177.74-15.48-15.06-32.97-21.75-44.86-39.94h0c-19.65-30.33-9.55-73.05-12.46-108.77-5.22-52.86-18.88-134.3-78.43-150.86-28.19-4.28-63.17-5.72-88.54,9.74,11.05,29.77-.11,38.59-10.94,66.66-5.7,15.09-9.9,28.92-14.19,46.02h0c-.82,21.36-6.43,72.35-11.43,102.77-4.45,29.03-11.81,58.33-9.03,88.55Z"/>
    <path class="cls-8" d="m1570.98,882.98c-35.27-.83-38.54-66.18-38.54-66.18,0,0,2.59-12.96,3.09-20.08l48.1,10.24-1.35,11.23h.01c.54,1.2,29.89,65.76-11.32,64.79Z"/>
    <path class="cls-12" d="m1535.89,746.15c.02.36.03.73.06,1.09.03.5.08.99.15,1.49,1.21-.63,1.25,30.35-.99,52.6,19.94,11.64,43.68,9.83,48.03,9.39,3.33-23.43,2.64-52.96,1.85-64.06-.3-2.61-.56-4.15-.6-4.47-.1-.71-.23-1.41-.39-2.09-1.62-7.22-6.36-13.05-12.57-16.27h-.01c-4.31-2.23-9.31-3.18-14.48-2.48-5.11.71-9.64,2.94-13.16,6.19-.16.13-.3.27-.44.4-4.78,4.64-7.65,11.18-7.44,18.21Z"/>
    <path class="cls-22" d="m1621.25,1106.85c40.64-6.83,96.78,10.89,96.78,10.89-7.77-7.48-15.83-12.92-23.38-18.53-33.83-6.07-73.41,7.64-73.41,7.64Z"/>
    <path class="cls-22" d="m1619.81,1107.43c-.35.15-.66.28-.92.4.3-.14.61-.28.92-.4Z"/>
    <path class="cls-22" d="m1617.96,1108.22c.15-.07.3-.14.45-.2-.2.08-.35.15-.45.2Z"/>
    <path class="cls-22" d="m1519.38,1307.35s138.72,20.38,233.51-11.87c0,0,.6-7.19,1.09-18.55,0,0-115.56,28.68-235.56,8.97,1.08,12.44.95,21.44.95,21.44Z"/>
    <path class="cls-22" d="m1596.45,861.1c0,5.87,4.76,10.62,10.62,10.62s10.62-4.76,10.62-10.62-4.76-10.62-10.62-10.62-10.62,4.76-10.62,10.62Z"/>
    <path class="cls-22" d="m1628.81,893.61c0,5.87,4.76,10.62,10.63,10.62,3.67,0,6.92-1.87,8.83-4.72-1.65-5.43-3.46-10.78-5.45-15.97-1.06-.36-2.19-.55-3.38-.55-5.87,0-10.63,4.76-10.63,10.62Z"/>
    <circle class="cls-22" cx="1630.75" cy="938.07" r="10.62" transform="translate(-172.48 401.71) rotate(-13.34)"/>
    <path class="cls-22" d="m1648.39,979.52c0,5.87,4.76,10.63,10.62,10.63.83,0,1.64-.09,2.41-.28.03-6.45-.19-13.46-.71-20.83-.55-.09-1.12-.14-1.7-.14-5.86,0-10.62,4.76-10.62,10.62Z"/>
    <circle class="cls-22" cx="1595.55" cy="911.72" r="10.62"/>
    <circle class="cls-22" cx="1603.5" cy="982.52" r="10.62" transform="translate(79.16 2083.86) rotate(-67.35)"/>
    <path class="cls-22" d="m1644.58,1025.43c0,5.87,4.75,10.63,10.62,10.63,2.09,0,4.05-.61,5.69-1.66-.39-5.52-.54-11.56-.42-18.19h0c-1.55-.9-3.36-1.4-5.27-1.4-5.87,0-10.62,4.76-10.62,10.62Z"/>
    <path class="cls-22" d="m1596.45,1036.05c0,5.87,4.76,10.62,10.62,10.62s10.62-4.76,10.62-10.62-4.76-10.62-10.62-10.62-10.62,4.76-10.62,10.62Z"/>
    <path class="cls-22" d="m1651.94,1077.35c0,5.87,4.76,10.63,10.62,10.63s10.39-4.52,10.61-10.18h0s0-.02,0-.03c-1.82-2.83-3.49-5.95-4.98-9.43h0c-1.63-1.03-3.57-1.62-5.63-1.62-5.86,0-10.62,4.76-10.62,10.62Z"/>
    <path class="cls-22" d="m1552.06,890.43c0,5.87,4.76,10.62,10.62,10.62s10.62-4.76,10.62-10.62-4.76-10.62-10.62-10.62-10.62,4.76-10.62,10.62Z"/>
    <circle class="cls-22" cx="1528.76" cy="916.82" r="10.62"/>
    <circle class="cls-22" cx="1562.68" cy="944.83" r="10.62" transform="translate(-210.4 1381.72) rotate(-45)"/>
    <circle class="cls-22" cx="1526.4" cy="979.52" r="10.62"/>
    <path class="cls-22" d="m1552.06,1010.49c0,5.87,4.76,10.62,10.62,10.62s10.62-4.76,10.62-10.62-4.76-10.62-10.62-10.62-10.62,4.76-10.62,10.62Z"/>
    <circle class="cls-22" cx="1543.06" cy="1057.3" r="10.62"/>
    <circle class="cls-22" cx="1596.45" cy="1084.67" r="10.62" transform="translate(-299.38 1446.55) rotate(-45)"/>
    <circle class="cls-22" cx="1641.11" cy="1131.94" r="10.62"/>
    <circle class="cls-22" cx="1493.26" cy="1091.36" r="10.62" transform="translate(-155.99 254.17) rotate(-9.25)"/>
    <circle class="cls-22" cx="1547.64" cy="1112.6" r="10.62"/>
    <path class="cls-22" d="m1569.23,1150.62c0,5.87,4.76,10.62,10.62,10.62s10.62-4.76,10.62-10.62-4.76-10.62-10.62-10.62-10.62,4.76-10.62,10.62Z"/>
    <circle class="cls-22" cx="1603.5" cy="1210.49" r="10.62"/>
    <circle class="cls-22" cx="1655.2" cy="1182.45" r="10.62"/>
    <path class="cls-22" d="m1686.3,1138.24c0,5.87,4.76,10.62,10.62,10.62s10.62-4.76,10.62-10.62-4.76-10.62-10.62-10.62-10.62,4.76-10.62,10.62Z"/>
    <path class="cls-22" d="m1733.39,1170.02c0,5.86,4.75,10.62,10.62,10.62,1.94,0,3.76-.52,5.32-1.43-1.37-7.14-5.45-19.85-5.51-19.85-5.87,0-10.44,4.79-10.44,10.66Z"/>
    <path class="cls-22" d="m1694.78,1207.58c0,5.87,4.76,10.62,10.62,10.62s10.62-4.76,10.62-10.62-4.76-10.62-10.62-10.62-10.62,4.76-10.62,10.62Z"/>
    <path class="cls-22" d="m1699.07,1266.3c0,5.87,4.76,10.62,10.62,10.62s10.62-4.76,10.62-10.62-4.76-10.62-10.62-10.62-10.62,4.76-10.62,10.62Z"/>
    <path class="cls-22" d="m1648.39,1242.9c0,5.87,4.76,10.62,10.62,10.62s10.62-4.76,10.62-10.62-4.76-10.62-10.62-10.62-10.62,4.76-10.62,10.62Z"/>
    <path class="cls-22" d="m1633.96,1290.14c0,5.87,4.76,10.62,10.62,10.62s10.62-4.76,10.62-10.62-4.76-10.62-10.62-10.62-10.62,4.76-10.62,10.62Z"/>
    <path class="cls-22" d="m1743.37,1242.9c0,5.86,4.75,10.62,10.62,10.62.21,0,.41,0,.61-.03.06-6.69.02-13.83-.19-21.2-.14-.02-.29-.02-.43-.02-5.87,0-10.62,4.75-10.62,10.62Z"/>
    <circle class="cls-22" cx="1543.06" cy="1196.96" r="10.62" transform="translate(-172.31 263.55) rotate(-9.25)"/>
    <circle class="cls-22" cx="1583.93" cy="1264.15" r="10.62"/>
    <circle class="cls-22" cx="1541.43" cy="1290.14" r="10.62" transform="translate(-187.31 264.5) rotate(-9.25)"/>
    <path class="cls-22" d="m1507.33,1236.75c2.66,5.82,4.73,12.3,6.34,18.91.1,0,.2,0,.3,0,5.86,0,10.62-4.76,10.62-10.62s-4.76-10.63-10.62-10.63c-2.51,0-4.83.87-6.64,2.33Z"/>
    <path class="cls-22" d="m1488.11,1150.62c0,5.87,4.76,10.62,10.62,10.62s10.62-4.76,10.62-10.62-4.76-10.62-10.62-10.62-10.62,4.76-10.62,10.62Z"/>
    <path class="cls-22" d="m1459.27,1181.85c2.35,5.42,5.1,10.47,8.27,15.01.45.06.9.09,1.36.09,5.87,0,10.62-4.75,10.62-10.62s-4.75-10.62-10.62-10.62c-4.27,0-7.95,2.51-9.64,6.14Z"/>
    <circle class="cls-22" cx="1498.74" cy="1021.12" r="10.62" transform="translate(-283.07 1358.85) rotate(-45)"/>
    <path class="cls-22" d="m1453.77,1064.34c.65.13,1.31.19,1.99.19,5.86,0,10.62-4.76,10.62-10.63,0-5.37-4-9.82-9.18-10.52-1.04,6.74-2.19,13.72-3.43,20.96Z"/>
    <path class="cls-22" d="m1448.16,1131.93c5.63-.25,10.12-4.91,10.12-10.61s-4.7-10.56-10.52-10.62c-.22,6.97-.1,14.1.4,21.23Z"/>
    <path class="cls-22" d="m1483.9,942.51c0,5.87,4.76,10.62,10.62,10.62s10.62-4.76,10.62-10.62-4.76-10.62-10.62-10.62-10.62,4.76-10.62,10.62Z"/>
    <path class="cls-22" d="m1464.38,989.9c1.93,2,4.63,3.25,7.64,3.25,5.87,0,10.62-4.76,10.62-10.62s-4.75-10.63-10.62-10.63c-2.2,0-4.25.67-5.94,1.82-.48,4.91-1.04,10.32-1.7,16.19Z"/>
    <path class="cls-22" d="m1505.15,876.78c0,5.87,4.76,10.62,10.62,10.62s10.62-4.76,10.62-10.62-4.76-10.62-10.62-10.62-10.62,4.76-10.62,10.62Z"/>
    <path class="cls-22" d="m1515.77,839.85c0,5.87,4.76,10.62,10.62,10.62s10.62-4.76,10.62-10.62-4.76-10.62-10.62-10.62-10.62,4.76-10.62,10.62Z"/>
    <path class="cls-22" d="m1592.88,825.97c0,5.87,4.75,10.62,10.62,10.62,3,0,5.72-.88,7.66-2.89-5.35-5.15-11.3-8.6-17.63-11.4-.53,1.26-.65,2.21-.65,3.67Z"/>
    <path class="cls-22" d="m1498.33,825.25c1.84,1.56,4.22,2.48,6.82,2.48,5.24,0,9.59-3.79,10.45-8.78-6.27,1.52-12.11,3.6-17.27,6.3Z"/>
    <path class="cls-25" d="m1570.98,882.98c-24.55-.57-33.59-32.41-36.84-51.7-1.4-8.44-1.7-14.48-1.7-14.48,0,0,35.75,20.71,49.84,1.39h.01c.16.36,2.81,6.2,5.43,14.25,6.28,19.29,12.33,51.23-16.74,50.54Z"/>
    <path class="cls-15" d="m1587.72,832.44c-4.89,3.25-12.68,6.07-25.03,6.14-11.99.06-21.48-3.29-28.54-7.3-1.4-8.44-1.7-14.48-1.7-14.48,0,0,35.75,20.71,49.84,1.39h.01c.16.36,2.81,6.2,5.43,14.25Z"/>
    <path class="cls-8" d="m1511.48,692.07c-4.54,23.45-6.2,51.13,5.93,72.18h.03c4.92,8.46,12.16,15.35,20.62,20.49,44.95,33.77,129.9-5.61,104.58-63.04-4.34-9.18-6.48-20.16-6.35-29.38,3.95-96.6-110.96-82.27-124.8-.24Z"/>
    <path class="cls-26" d="m1600.96,709.35c1.44-1.34,1.52-3.6.18-5.04-1.34-1.44-3.6-1.52-5.04-.18-1.44,1.34-1.52,3.6-.18,5.04,1.34,1.44,3.6,1.52,5.04.18Z"/>
    <path class="cls-26" d="m1630.87,714.92c1.44-1.34,1.52-3.6.18-5.04-1.34-1.44-3.6-1.52-5.04-.18-1.44,1.34-1.52,3.6-.18,5.04,1.34,1.44,3.6,1.52,5.04.18Z"/>
    <path class="cls-26" d="m1611.54,740.76c-2.05-.48-4.02-1.32-5.51-2.49-.59-.46-.69-1.31-.24-1.89.46-.59,1.3-.69,1.9-.24,3.74,2.92,10.56,2.99,12.08,1.37.54-.57-.13-1.58-.78-2.32-5.77-6.52-5.61-21.9-5.6-22.55.01-.75.62-1.34,1.37-1.33.79.02,1.34.63,1.33,1.37,0,.15-.15,14.98,4.92,20.72,2.77,3.13,1.43,5.21.73,5.95-1.83,1.95-6.18,2.35-10.2,1.4Z"/>
    <path class="cls-12" d="m1511.48,692.07c-4.54,23.45-6.2,51.13,5.93,72.18h.03c-5.29-15.57-1.48-44.7-1.48-44.7l8.96-10.3c85.95,3.33,101.96-60.82,101.96-60.82-35.1-52.68-108.09-10.56-115.4,43.64Z"/>
    <path class="cls-17" d="m1577.25,609.06c-73.84,5.95-70.27,71.18-70.27,71.18l19.7,22.67c77.94.19,94.04-62.95,94.04-62.95-6.89-12.33-23.83-32.48-43.47-30.89Z"/>
    <path class="cls-8" d="m1493.32,698.11c-1.64,11.45,4.49,21.8,13.7,23.13,9.21,1.32,18.01-6.89,19.66-18.34,1.64-11.45-4.49-21.8-13.7-23.13-9.21-1.32-18.01,6.89-19.66,18.34Z"/>
    <path class="cls-26" d="m1499.55,706.28c-.62-.15-1.07-.72-1.03-1.39.52-9.55,2.99-15.31,7.33-17.12,5.88-2.47,12.63,3.42,12.92,3.67.56.49.61,1.35.12,1.9-.49.56-1.35.61-1.9.12-.05-.05-5.77-5.01-10.09-3.2-3.25,1.37-5.21,6.47-5.67,14.77-.04.74-.68,1.32-1.42,1.27-.08,0-.16-.02-.24-.03Z"/>
    <path class="cls-26" d="m1512.05,708.84c-.57-.13-1-.63-1.04-1.24,0-.11-.67-10.77-8.59-14.28-.68-.3-.99-1.1-.69-1.78.3-.68,1.12-.99,1.78-.69,9.46,4.19,10.17,16.1,10.2,16.61.04.74-.53,1.38-1.28,1.42-.13,0-.26,0-.38-.03Z"/>
    <path class="cls-10" d="m1502.94,714.79c-.58,1.57.23,3.31,1.8,3.89,1.57.58,3.31-.23,3.89-1.8.58-1.57-.23-3.31-1.8-3.89-1.57-.58-3.31.23-3.89,1.8Z"/>
    <path class="cls-26" d="m1588.15,696.95c.25.06.52.05.79-.04,10.65-3.82,17.68.43,17.75.47.65.41,1.5.21,1.91-.44.4-.65.21-1.5-.44-1.91-.33-.21-8.25-5-20.15-.73-.72.26-1.1,1.05-.84,1.77.16.46.55.78.99.88Z"/>
    <path class="cls-26" d="m1620.37,700.07c.26.06.53.05.8-.05,7.33-2.7,12.56,1.6,12.78,1.78.59.5,1.46.42,1.95-.16.49-.58.43-1.45-.15-1.95-.26-.23-6.64-5.55-15.53-2.27-.72.26-1.09,1.06-.82,1.78.17.45.55.77.98.87Z"/>
    <ellipse class="cls-17" cx="1543.15" cy="583.17" rx="24.01" ry="29.09" transform="translate(-96.53 401.95) rotate(-14.4)"/>
    <ellipse class="cls-17" cx="1613.35" cy="596.2" rx="29.09" ry="24.01" transform="translate(367.64 1782.19) rotate(-63.87)"/>
    <path class="cls-26" d="m1607.57,753.56c-.51,0-.99-.3-1.2-.8-4.38-10.49-16.83-11.44-16.96-11.45-.71-.05-1.26-.67-1.21-1.38.05-.72.68-1.26,1.38-1.21.58.04,14.18,1.04,19.19,13.04.28.66-.04,1.42-.7,1.7-.16.07-.33.1-.5.1Z"/>
    <path class="cls-8" d="m1497.45,908.31c-16.04,38.88-49.98,123.5-17.41,158.61,25.59,17.97,62.2,10.35,92.67,13.45,17.16,1.13,18.61,26.66,1.87,29.84-56.21,15.05-126.16,26.96-156.3-37.18-26.01-61.18-7.93-131.75,20.18-188.75,16.93-42.51,78.07-17.71,59,24.03Z"/>
    <path class="cls-25" d="m1479.07,979.52c-3.3,8.51-5.56,13.62-5.56,13.62-43.78,7.42-71.55-17.05-71.55-17.05.56-4.86,1.18-9.56,1.87-14.1,19.47-128.16,89.92-134.07,89.92-134.07,27,33.84-1.79,118.47-14.67,151.6Z"/>
    <path class="cls-15" d="m1479.07,979.52c-3.3,8.51-5.56,13.62-5.56,13.62-43.78,7.42-71.55-17.05-71.55-17.05.56-4.86,1.18-9.56,1.87-14.1h.01s32.31,23.62,75.23,17.53Z"/>
    <path class="cls-8" d="m1561.14,1633.05l-125.53-1.38c.32-20.06,5.67-60.57,1.68-83.47,0,0,56.05-6.67,56.05-6.67-1.5,11-11.6,48.68,11.55,54.21,24.1,5.75,49.4,5.12,64.16,23.32,3.83,6.11-.7,14.06-7.91,13.98Z"/>
    <path class="cls-14" d="m1431.93,1619.54c.47,4.25,1.59,8.39,3.68,12.13l126.75,1.39c6.16.07,10.69-5.95,8.71-11.79-4.66-13.64-21.15-33.54-79.54-37.24,0,0-19.94,5.7-52.55-.58,0,0-8.95,18.85-7.04,36.08Z"/>
    <path class="cls-25" d="m1533.81,1616.39c1,0,1.96-.59,2.37-1.58,4.77-11.41,13.19-14.82,13.54-14.96,3.09-1.15,1.25-6.03-1.84-4.79-.44.17-10.78,4.24-16.44,17.77-.73,1.64.58,3.59,2.37,3.56Z"/>
    <path class="cls-25" d="m1513.88,1613.76c1.09,0,2.09-.69,2.44-1.78,4.25-13.23,15.88-19.23,16-19.29,2.99-1.45.64-6.13-2.32-4.58-.55.28-13.66,7.05-18.57,22.3-.55,1.62.74,3.38,2.44,3.36Z"/>
    <path class="cls-25" d="m1491.2,1610.72c1.05,0,2.04-.65,2.42-1.7,4.94-13.73,16.1-21.11,16.21-21.18,2.81-1.77-.02-6.16-2.79-4.31-.51.33-12.7,8.34-18.25,23.75-.62,1.63.68,3.47,2.42,3.44Z"/>
    <path class="cls-1" d="m1571,1621.07l-139.07-1.53c.47,4.25,1.59,8.39,3.68,12.13l126.75,1.39c6.25.08,10.79-6.13,8.64-11.99Z"/>
    <path class="cls-9" d="m1157.93,1182.58c72.39.24,166.08,41.01,210.11,110.87,43.91,67.07,40.16,189.62,39.61,249.94,67.81,21.84,108.13,5.05,108.13,5.05,25.55-208.68,32.23-445.45-198.63-501.5.01,0-213.4,0-213.4,0-35.69,72.74-3.78,134.42,54.18,135.65Z"/>
    <path class="cls-6" d="m1226.59,1066.98l71.23,158.16c39.46,25.12,77.65,65.74,91.85,115.46,14.12-237.71-131.31-263.24-163.07-273.61Z"/>
    <path class="cls-8" d="m1407.55,1661.8l-125.53-1.38c.32-20.06,5.67-60.57,1.68-83.47,0,0,59.92.59,59.92.59-1.5,11-8.58,41.99,7.68,46.96,23.7,7.23,49.4,5.12,64.16,23.32,3.83,6.11-.7,14.06-7.91,13.98Z"/>
    <path class="cls-14" d="m1278.34,1648.3c.47,4.25,1.59,8.39,3.68,12.13l126.75,1.39c6.16.07,10.69-5.95,8.71-11.79-4.66-13.64-21.15-33.54-79.54-37.24,0,0-19.94,5.7-52.55-.58,0,0-8.95,18.85-7.04,36.08Z"/>
    <path class="cls-25" d="m1380.22,1645.15c1,0,1.96-.59,2.37-1.58,4.77-11.41,13.19-14.82,13.54-14.96,3.09-1.15,1.25-6.03-1.84-4.79-.44.17-10.78,4.24-16.44,17.77-.73,1.64.58,3.59,2.37,3.56Z"/>
    <path class="cls-25" d="m1360.29,1642.52c1.09,0,2.09-.69,2.44-1.78,4.25-13.23,15.88-19.23,16-19.29,2.99-1.45.64-6.13-2.32-4.58-.55.28-13.66,7.05-18.57,22.3-.55,1.62.74,3.38,2.44,3.36Z"/>
    <path class="cls-25" d="m1337.62,1639.48c1.05,0,2.04-.65,2.42-1.7,4.94-13.73,16.1-21.11,16.21-21.18,2.81-1.77-.02-6.16-2.79-4.31-.51.33-12.7,8.34-18.25,23.75-.62,1.63.68,3.47,2.42,3.44Z"/>
    <path class="cls-1" d="m1417.41,1649.82l-139.07-1.53c.47,4.25,1.59,8.39,3.68,12.13l126.75,1.39c6.25.08,10.79-6.13,8.64-11.99Z"/>
    <path class="cls-9" d="m1050.88,1207.86c64.95,39.3,144.1,5.01,189.56,96.8,36.57,79.36,24.66,211.36,17.85,275.87,67.81,21.84,104.27,0,104.27,0,56.67-317.59,34.46-564.14-350.77-533.59,0,0-55.68,103.58,39.09,160.93Z"/>
    <path class="cls-6" d="m1258.29,1580.52c67.81,21.84,104.27,0,104.27,0,0,0,1.31-6.61,3.29-18.24,0,0-41.24,13.92-105.07-4.65-1.37,14.32-2.49,22.88-2.49,22.88Z"/>
    <path class="cls-6" d="m1407.65,1543.39c67.81,21.84,108.13,5.05,108.13,5.05,0,0,.84-6.78,2.03-18.55,0,0-33.96,15.36-109.74-3.8-.16,10.85-.42,17.3-.42,17.3Z"/>
    <path class="cls-21" d="m1198.12,498.3s-27.19-30.29-73.43-18.95c-46.25,11.34-34.93,42.11-53.35,67.22-16.51,22.51-14.89,49.32,0,76.2,11.23,20.28-21.25,26.24-14.89,54.75,6.85,30.7,124.24,53.35,178.4,23.34,54.15-30.01,10.42-81.62,12.85-109.05,2.43-27.43-49.58-93.51-49.58-93.51Z"/>
    <path class="cls-8" d="m1202.26,681.03c-.5,5.43-1.31,11.27-2.35,16.23.43,19.7-51.53,16.91-52.52-4.21,1.05-12.32,5.52-69.87.99-75.3-6.41-33.93,48.21-42.97,52.89-8.6,2.87,17.41,2.96,50.42.99,71.88Z"/>
    <path class="cls-12" d="m1202.26,681.03c-34.34,7.19-53.47-6.67-53.47-6.67l.47-7.45c.78-10.51.73-10.81,1-19.97l53.31.74c.08,10.79-.25,22.52-1.31,33.35Z"/>
    <path class="cls-21" d="m1189.75,497.39c67.9-15.65,90.49,91.75,48.04,136.73l-48.04-136.73Z"/>
    <path class="cls-8" d="m1116.9,582.62c-.77,24.07,2.01,51.9,17.45,70.91h.03c43.35,54.84,157.77,5.25,117.84-62.39-12.69-17.29-11.06-43.24-20.63-59.84-37.15-63.45-115.68-10.61-114.68,51.32Z"/>
    <path class="cls-26" d="m1208.75,585.5c2.92-3.64-2.86-8.15-5.68-4.42-2.92,3.64,2.86,8.15,5.68,4.42Z"/>
    <path class="cls-26" d="m1239.41,586.27c2.92-3.64-2.86-8.15-5.68-4.42-2.92,3.64,2.86,8.15,5.68,4.42Z"/>
    <path class="cls-26" d="m1222.22,614.81c6.48,1.18,17.38-1.23,10.32-8.56-5.97-4.91-8.19-19.69-8.22-19.84-5.89-6.55-.25,16.9,6.49,21.95,4.61,4.22-6.89,5.21-11.09,2.75-.66-.36-1.49-.12-1.85.54-.85,2.33,2.71,2.67,4.35,3.17Z"/>
    <path class="cls-12" d="m1116.9,582.62c-.77,24.07,2.01,51.9,17.45,70.91h.03c-7.76-14.66-8.62-44.27-8.62-44.27l7.28-11.69c86.1-10.43,91.78-76.86,91.78-76.86-43.47-46.82-109.23,6.75-107.91,61.9Z"/>
    <path class="cls-21" d="m1217.32,513.26s-5.93,65.44-83.55,77.71l-23.24-19.41c-15.72-54.72,44.42-118.94,106.79-58.3Z"/>
    <path class="cls-8" d="m1099.79,591.53c.6,27.64,34.31,27.07,33.98-.57-.6-27.63-34.31-27.07-33.98.57Z"/>
    <path class="cls-26" d="m1107.14,598.65c.88.18,1.72-.58,1.61-1.48-2.32-15.09,5.09-19.8,13.84-14.04,1.47.97,2.97-1.38,1.46-2.3-10.16-7.91-23.34,1.72-16.91,17.82Z"/>
    <path class="cls-26" d="m1119.98,599.2c6,.61-6.79-20.52-12.88-15.55-.19.73.24,1.47.97,1.66,10.16,3.08,9.53,13.07,11.91,13.89Z"/>
    <path class="cls-10" d="m1112.03,606.6c-.81,3.88,5.3,5.07,6,1.16.81-3.88-5.3-5.07-6-1.16Z"/>
    <path class="cls-26" d="m1241.72,576.31c-1.13,0-8.73-.25-15.11-6.63-.46-.46-.46-1.22,0-1.68.46-.46,1.22-.46,1.68,0,6.02,6.02,13.43,5.93,13.51,5.93.66-.05,1.2.51,1.22,1.16.02.66-.5,1.2-1.16,1.22-.02,0-.06,0-.13,0Z"/>
    <path class="cls-26" d="m1198.29,576.31c-.16,0-.32-.03-.47-.1-.6-.26-.88-.96-.62-1.56,4.11-9.52,14.23-9.63,14.66-9.63.66,0,1.19.53,1.19,1.19s-.53,1.19-1.19,1.19h0c-.37,0-9,.13-12.48,8.19-.19.45-.63.72-1.09.72Z"/>
    <path class="cls-4" d="m1013.28,1056.23c119.52,37.04,276.31,20.74,294.25-1.71,19.15-23.98,11.42-52.21-1.48-99.84-10.15-37.46,24.68-96.61,5.33-136.22-35.77-73.2-79.07-106.16-79.07-106.16,0,0-45.15,11.98-120.58-6.66-69.71,41.61-98.45,350.59-98.45,350.59Z"/>
    <path class="cls-4" d="m1138.25,1104.21c-2,1.37-13.42,1.39-29.9-1.21-54.6-8.63-164.65-45.99-171.05-158.04-6.61-115.85,69.44-214.95,174.42-239.32,0,0,18,50.31,3.34,93.44-21.31,62.76-105.87,101.07,34.02,248.22,2.93,3.07,5.95,6.2,9.07,9.37,15.12,15.37-10.8,42.05-19.9,47.54Z"/>
    <path class="cls-14" d="m1199.91,697.27s21.4-3.11,33.53,14.21c0,0-5.89,20.48-33.16,30.82,0,0-5.02-12.53-13.6-20.95,0,0-3.27,12.21-4.52,23.81,0,0-52.09,5.57-70.42-39.51,0,0,19.85-14.09,35.66-12.59,7.61,18.41,44.08,23.8,52.52,4.21Z"/>
    <path class="cls-8" d="m1567.17,1079.87s31.01-15.38,60.25,4.63c17.79,12.17,7.81,13.17-1.09,15.82-10.91,3.25-32.18,8.02-56.09,10.85l-3.06-31.3Z"/>
    <path class="cls-11" d="m1150.49,1053.49c-.55,0-1.1-.23-1.5-.67-43.01-48.35-69.86-80.54-79.57-130.7-9.47-48.92,32.81-101.14,34.61-103.34.7-.85,1.96-.98,2.81-.28.85.7.98,1.96.28,2.81-.43.52-42.89,52.99-33.78,100.04,9.53,49.23,34.79,79.51,78.63,128.8.73.83.66,2.09-.17,2.82-.38.34-.86.51-1.33.51Z"/>
    <path class="cls-8" d="m1230.4,1071.76c.22,2.29-1.57,4.26-3.85,4.33-6.65.45-13.31,1.5-19.66,3.47,9.36,7.64,21.01,12.63,21.03,12.71,14.6,3.3,29.35,5.81,44.23,7.66,4.78.48,4.38,8-.48,7.9-14.62,0-29.28-.62-43.85-1.99-.02.07-.05.14-.07.21,14.23,6.58,28.85,12.38,43.87,16.92,16.48,18.25-44.97-4.34-50.05-5.85-.02.03-.05.06-.07.09,12.34,8.45,25.72,15.4,39.67,20.83,14.55,19.86-45.41-7.93-49.99-11.21-.05.04-.1.07-.14.11,8.73,8.05,18.48,14.98,28.5,21.36,10.66,20.21-36.59-10.41-40.63-13.78-5.34-2.53-18.46-5.25-37.16-26.33-5.83-6.55.73-29.34,8.31-33.42,8.53-4.59,23.28-4.54,27.26-4.43,6.48-1.16,31.17-6.51,33.1,1.42Z"/>
    <polygon class="cls-8" points="1139.96 1103.07 1161.74 1108.18 1175.02 1072.75 1162.67 1065.99 1139.96 1103.07"/>
    <path class="cls-11" d="m1138.25,1104.21c-2,1.37-13.42,1.39-29.9-1.21,0,0,0-.01.02-.01,30.65-17.42,40.71-55.69,40.71-55.69,2.93,3.07,5.95,6.2,9.07,9.37,15.12,15.37-10.8,42.05-19.9,47.54Z"/>
    <path class="cls-12" d="m1622.57,1083.17c-.12,0-.25-.02-.37-.07-9.96-3.98-21.93-1.41-22.05-1.38-.54.12-1.07-.22-1.19-.76-.12-.54.22-1.07.76-1.19.51-.11,12.68-2.74,23.23,1.48.51.21.76.79.56,1.3-.16.39-.53.63-.93.63Z"/>
    <path class="cls-12" d="m1601.14,1090.25c-.46,0-.87-.32-.98-.79-.12-.54.23-1.07.76-1.19.65-.14,15.99-3.42,30.14-1.25.55.08.92.59.84,1.14-.08.55-.6.92-1.14.84-13.78-2.11-29.26,1.19-29.41,1.23-.07.02-.14.02-.21.02Z"/>
    <path class="cls-12" d="m1603.55,1098.76c-.48,0-.91-.35-.99-.84-.09-.54.28-1.06.82-1.15.18-.03,17.83-2.94,31.06-5.82.54-.12,1.07.23,1.19.77.12.54-.23,1.07-.76,1.19-13.28,2.89-30.98,5.81-31.16,5.84-.06,0-.11.01-.16.01Z"/>
    <path class="cls-26" d="m1214.51,633.06c-.57,0-1.15-.06-1.75-.19-2.19-.47-4.29-1.76-5.92-3.65-3.45-3.98-3.71-9.42-.59-12.13,1.56-1.35,3.69-1.83,6-1.33,2.19.47,4.29,1.76,5.92,3.65,3.45,3.98,3.71,9.42.59,12.13-1.16,1-2.63,1.52-4.25,1.52Zm-3.98-15.1c-1.06,0-1.99.32-2.71.94-2.13,1.85-1.76,5.78.83,8.77,1.29,1.49,2.93,2.52,4.62,2.88,1.56.33,2.96.05,3.95-.8,2.13-1.85,1.76-5.78-.83-8.77-1.29-1.49-2.93-2.52-4.62-2.88-.43-.09-.84-.14-1.24-.14Z"/>
  </g>
</svg>