<?xml version="1.0" encoding="UTF-8"?>
<svg id="_Layer_" data-name="&amp;lt;Layer&amp;gt;" xmlns="http://www.w3.org/2000/svg" viewBox="0 0 2484.53 1584.66">
  <defs>
    <style>
      .cls-1 {
        fill: #fff;
      }

      .cls-2 {
        fill: #82b378;
      }

      .cls-3 {
        fill: #1d3972;
      }

      .cls-4 {
        fill: #dcf3f9;
      }

      .cls-5 {
        fill: #c95c12;
      }

      .cls-6 {
        fill: #f1a34f;
      }

      .cls-7 {
        fill: #2e3552;
      }

      .cls-8 {
        fill: #d86713;
        opacity: .4;
      }

      .cls-9 {
        fill: #ea9c68;
      }

      .cls-10 {
        fill: #d3671e;
      }

      .cls-11 {
        fill: #223d75;
      }

      .cls-12 {
        fill: #35488b;
      }

      .cls-13 {
        fill: #2c3a64;
      }

      .cls-14 {
        fill: #e57970;
      }

      .cls-15 {
        fill: #ed985f;
      }

      .cls-16 {
        fill: #ed975d;
      }

      .cls-17 {
        fill: #223e77;
      }

      .cls-18 {
        fill: #ffb27d;
      }

      .cls-19 {
        fill: #233862;
      }

      .cls-20 {
        fill: #f99f46;
      }

      .cls-21 {
        fill: #2b478b;
      }

      .cls-22 {
        fill: #a6def3;
      }
    </style>
  </defs>
  <path class="cls-4" d="m404,1576.54S-273.71,1071.5,126.38,561.1c308.69-393.8,819.72-103.13,938.69-146.39,118.96-43.26,375.15-541.09,882.13-384.26,627.66,194.17,375.59,1068.14,159.22,1544.84l-1702.43,1.24Z"/>
  <path class="cls-22" d="m557.01,1576.54S-10.82,1153.38,324.4,725.72c258.65-329.96,686.83-86.41,786.51-122.66,99.68-36.25,314.33-453.37,739.12-321.96,525.9,162.69,314.7,894.98,133.41,1294.4l-1426.43,1.04Z"/>
  <path class="cls-2" d="m380.65,1568.82c-6.21-9.76-24.92-35.1-49.83-31.75-27.14,3.65,29.98,21.55,47.46,31.82-3.88.05-7.22-.26-9.67-1.13-11.69-4.17-31.71,3.82-38.11,6.63h111.29c-.77-2.66-2.77-7.01-7.96-10.18-1.83-1.12-5.5-1.27-10.24-.91,6.62-7.8,11.21-32.72-7.21-26.31-13.46,4.68-13.42,19.91-12.1,28.92-2.86.45-5.77.9-8.63,1.31-5.54-28.24-25.14-111-64.86-113.21-40.27-2.24,34.15,85.83,58.93,114-3.17.38-6.23.67-9.06.8Z"/>
  <rect class="cls-7" x="96.02" y="1574.39" width="2388.51" height="10.27" rx="3.45" ry="3.45"/>
  <g>
    <path class="cls-13" d="m740,290.6c-.57-3.12-7.9-36.56-59.62-30.85,0,0,25.75-.66,31.74,9.84,0,0-19.23-11.25-32.62-4.79-13.39,6.46-18.07,32.24-16.98,40.34,1.09,8.1,12.67,33.04,21.9,33.96,3.5.35,7.35-.44,10.79-1.55-1.83,4.04-3.56,8.46-5.12,13.34-14.42,45.14,12.74,83.26,29.47,76.19,10.73-4.54,16.64,14.03,16.64,14.03l95.61-103.43s-51.74-76.56-91.8-47.09Z"/>
    <path class="cls-21" d="m864.55,1536.27l-23.25,8.66s-100.99-140.07-113.43-263.31c-2.22-22-1.48-43.32,3.32-63,0,0-.99-5.64-2.71-15.6-.8-4.65-1.79-10.25-2.91-16.67-3.28-18.81-7.8-44.55-12.96-73.87-11.88-67.45-27.28-153.67-39.24-217.06l6.26-2.01,67.79-21.87,14.01-44.5,50.48-13.29s11.28,22.06,21.36,126.26c1.86,13.67,3.55,28.74,4.82,45.09,3.93,49.89,4.21,111.77-4.8,182.53-2.32,18.11-5.24,36.81-8.87,56.02-2.66,14.09-3.06,33.28-1.94,55.32,5.09,100.75,42.07,257.31,42.07,257.31Z"/>
    <path class="cls-19" d="m838.09,985.1l-109.61,217.91c-.8-4.65-1.79-10.25-2.91-16.67-3.28-18.81-7.8-44.55-12.96-73.87-11.88-67.45-27.28-153.67-39.24-217.06l6.26-2.01,67.79-21.87,14.01-44.5,50.48-13.29s11.28,22.06,21.36,126.26c1.86,13.67,3.55,28.74,4.82,45.09Z"/>
    <path class="cls-21" d="m789.87,841.72s-.04.18-.12.52c-.35,1.44-1.42,5.85-2.95,12.16-7.29,29.99-25.09,102.79-26.17,102.73-9.77,68.27-24.47,156.72-42.72,224.71-9.66,35.96-20.3,66.19-31.76,84.7-3.93,6.36-8.22,16.98-12.7,30.51-26.37,79.74-58.83,260.22-58.83,260.22l-14.8,5.97s-57.03-162.18-7.61-293.87c5.04-13.41,11.18-26.5,18.59-39.09.85-1.46,1.43-3.04,1.23-4.71,0-.02,0-.03,0-.06-.65-5.48-2.25-19.22-4.06-38.52-5.04-53.26-9.86-233.24-12.49-275.59-1-16.03-.41-30.34,1.23-43,3.16-24.72,10.29-43.22,17.25-56.16,8.78-16.33,17.3-23.81,17.3-23.81,0,0,113.59,42.84,156.1,31.54l2.53,21.76Z"/>
    <path class="cls-17" d="m789.74,852.47c-.91.66-1.89,1.3-2.94,1.92-39.17,22.89-176.59,14.85-190.11,13.99,3.16-24.72,10.29-43.22,17.25-56.16,58.78,5.22,156.2,15.8,175.82,30.02,4.46,3.23,4.91,6.66-.01,10.24Z"/>
    <path class="cls-15" d="m1008.96,806.05l-6.89,20.39s-1.39-.25-3.78-.86c-7.52-1.89-25.87-6.27-46.41-12.3-30.96-8.8-67.36-21.08-80.6-32.94-20.19-17.94-49.77-67.08-66.37-113.88-.51-1.16-.84-2.29-1.17-3.43-8.58-24.79-13.39-48.72-10.87-66.69,1.45-11,4.34-20.14,8.06-27.87,4.88-10.21,11.26-17.82,17.43-23.32.88-.91,1.76-1.83,2.96-2.51,10.09-8.37,17.87-13.76,17.87-13.76,4.47-.99,9.71,4.6,13.48,10.47,0,0,6.12,11.65,8.73,19.99.14.2.28.41.25.58.58,1.71,1.14,3.6,1.84,5.69.28.41.36.96.47,1.34,1.19,4.33,2.34,8.83,3.47,13.5,12.94,50.25,22.95,124.65,38.05,149,6.52,10.47,40.56,34.85,67.8,53.35,19.62,13.19,35.68,23.24,35.68,23.24Z"/>
    <path class="cls-18" d="m826.77,577.62c-12.32,8.04-27.66,14.53-46.8,18.38-71.75,14.46-97.38-46.56-106.47-88.21,9.88-5.29,19.06-6.26,24.36-6.74,5.17-.46,10.6-.71,15.09-.81,8.18-5.91,20.81-30.66,24.55-69.55l3.33.99,55.75,16.96s-3.08,17.79-4.81,34.63c-1.35,13.18-1.86,25.8.56,28.96,4.36,1.07,6.97,1.77,6.97,1.77,0,0,0,.02.03.05.72,1.26,16.26,28.52,27.45,63.56Z"/>
    <path class="cls-21" d="m851.75,622.45c-.34,1.53-.73,3.02-1.18,4.56-12.59,42.11-22.78,210.46-22.78,210.46,9.09,28.68-221.66,26.28-226.12-.39-12.06-27.21,17.47-78.04,34.53-103.86,2.14-3.25,3.98-6.66,5.5-10.2,3.85-8.88,5.71-18.55,5.33-28.32-1.5-38.5-8.18-73.83-10.98-95.49,0,0,0,0,0,0,3.55-3.53,7.01-6.81,10.22-9.92,4.91-4.8,9.21-9.24,12.23-13.55,3.33-4.7,5.17-9.29,4.76-14.1-.32-3.64-.97-7.32-1.88-10.97-.42-1.72-.9-3.44-1.42-5.14-5.48-17.95-15.56-33.48-15.56-33.48,18.27-10.67,53.46-11,53.46-11,0,0,.24,1.92.68,5.06,1.72,12.62,6.53,44.98,11.46,50.51,6.16,6.89,103.46,26.9,106.84,15.84,3.33-10.88-16.76-56.67-17.51-58.4-.02-.04-.03-.05-.03-.05,32.72,7.66,45.27,16.26,45.27,16.26-16.9,14.81,16.06,51.82,7.18,92.18Z"/>
    <path class="cls-15" d="m796.59,448.66s-3.09,17.77-4.81,34.63c-31.74-4.09-45.66-34.81-50.94-51.59l55.75,16.96Z"/>
    <path class="cls-18" d="m805.62,465.69s-75.43-6.3-70.79-53.22c4.65-46.92-1.96-79.33,46.4-77.29,48.36,2.04,55.93,20.87,58.19,36.9,2.26,16.04-14.05,94.03-33.8,93.6Z"/>
    <path class="cls-13" d="m839.79,345.78c-10.23-15.28-19.34-13.06-24.69-9.31-38.9-26.75-68.77,4.05-68.77,4.05-8.41,33.16-34.61,50.01-34.61,50.01,0,0,12.88,9.85,45.34,4.88,9.92-1.52,19.23-7.52,27.4-15.12-14.96,20.19-33.94,33.91-33.94,33.91,39.55-13.69,59.99-64.74,62.06-70.15,4.18,4.59,12.35,14.46,14.23,23.53,2.56,12.32,1.78,37.08,9.04,36.96,0,0,19.28-35.85,3.94-58.76Z"/>
    <path class="cls-19" d="m759.07,791.38c-44.57,5.99-88.97-34.76-117.36-68.35,3.85-8.88,5.71-18.55,5.33-28.32-1.5-38.5-8.18-73.83-10.98-95.49,0,0,0,0,0,0,3.55-3.53,7.01-6.81,10.22-9.92,4.91-4.8,9.21-9.24,12.23-13.55,45.39,56.31,161,207.51,100.56,215.63Z"/>
    <g>
      <path class="cls-15" d="m914.58,806.65l7.88,26.76s-19.9-4.53-32.37-5.75c-3.74-.38-5.89-.72-5.89-.72-9.99-1.08-21.96-2.69-35-4.38h-.18c-22.37-3.34-47.46-7.53-68.76-12.75-14.99-3.81-28.08-8.15-37.14-12.84-.93-.45-1.67-.92-2.6-1.55-21.8-13.11-49.98-54.83-72.99-100.16-3.19-6.26-6.22-12.53-9.21-18.63-10.81-22.73-19.83-45.27-25.77-64.89-3.67-11.69-6.37-22.4-7.49-31.31-.45-3.14-.88-6.11-.95-8.93-.13-1.62-.23-3.2-.3-4.74,8.81-7.71,29.14-22.12,56.86-20.63.58.99,1.15,1.99,1.73,3,11.96,21.75,25.01,50.11,37.35,78.36,6.83,15.48,13.46,30.98,20,45.25,3.76,8.68,7.47,16.83,10.95,24.31,6.72,14.25,12.65,25.75,17.69,32.9,3.23,4.67,11.89,10.81,23.25,17.59,19.75,11.89,48.34,25.83,73.16,37.09,10.31,4.76,20.04,9.04,28.12,12.58,13.04,5.76,21.66,9.43,21.66,9.43Z"/>
      <path class="cls-21" d="m683.4,549.45c-34.56-6.37-59.36,22.01-59.36,22.01-3.98-50.79,20.68-59.93,20.68-59.93,9.8-5.09,24.17,11.72,38.68,37.93Z"/>
    </g>
    <path class="cls-19" d="m685.86,1575.31h-117.11s-2.81-17.85,3.31-31.39c5.86-12.99,15.04-18.9,12.84-34.62,7.44,7.66,19.57,16.24,36.5,13.96,2.07,3.36,13.39,21.36,20.32,26.34,7.65,5.5,41.78,3.54,44.14,25.7Z"/>
    <path class="cls-19" d="m937.32,1575.31h-117.11s-4.38-18.68,3.31-31.39c6.8-11.25,4.2-17.65-.84-26.96,5.31,2.17,12.17,4.15,19.72,3.71,5.84-.34,12.01-2.98,17.42-6.13,5.04,5.75,26.62,30.21,33.37,35.05,7.65,5.5,41.78,3.54,44.14,25.7Z"/>
    <path class="cls-1" d="m787.63,438.56s1.06,6.21,16.34,6.22c0,0,12.83.01,12.86-6.74,0,0-12.09-5.56-29.2.51Z"/>
  </g>
  <g>
    <path class="cls-18" d="m936.28,858.94s-55.36-71.68-82.31-93.93c0,0-36.85-90.87-39.85-96.86-.14-.28-.33-.52-.54-.73-.4-2.12-1.65-9.72-.27-16.7,1.62-8.21-3.59-27.88-7.17-26.1-3.58,1.78-.64,8.66-5.01,8.55-4.37-.11-15.15-22.15-20.27-19.09-5.12,3.06-7.76,11.57-3.13,28.16,3.85,13.81,11.91,26.8,14.5,30.76-.15.08-.23.13-.23.13,0,0,13.54,88.34,27.81,114.52,14.28,26.19,58.54,114.07,89.79,117.33,31.24,3.26,26.69-46.05,26.69-46.05Z"/>
    <path class="cls-18" d="m1180.48,634.68c-4.95-1.9-11.04,19.04-14.85,19.8-3.81.76-2.29-5.71-5.69-6.73-3.41-1.01-4.97,17.01-2.31,23.95,2.67,6.94,2.29,15.19,2.29,15.19,0,0-22.66,87.51-27.53,97.31-4.88,9.79-84.74,81.04-84.74,81.04l17.57,56.74s94.08-86.93,102.09-107.37c8.02-20.44,11.65-125.39,11.65-125.39,0,0,7.03-15.12,8.56-30.36,1.52-15.23-2.08-22.28-7.03-24.18Z"/>
    <path class="cls-18" d="m1043.93,848.68l-37.8,49.45-34.77-58.61s7.64-14.4,11.1-38c1.45-9.92,2.16-21.47,1.24-34.26l48.88,25.03s-1.16,4.52-1.95,11.19c-.83,7.21-1.2,16.92.85,26.15,1.77,7.92,5.88,13.69,12.46,19.04Z"/>
    <path class="cls-10" d="m1103.47,1533.4s6.25,12.21,20.11,15.22c8.73,1.9,16.2,6.44,20.85,12.81,3.93,5.38.13,12.96-6.54,12.96h-70.33c-5.99,0-10.66-5.17-10.06-11.13.52-5.21,1.07-11.28,1.31-15.93.52-10.16,10.69-18.34,10.69-18.34l33.97,4.4Z"/>
    <path class="cls-12" d="m1105.17,1536.47s-16.88,9.97-45.43,3.95c0,0-48.54-124.12-51.41-182.53-.13-2.35-.17-4.58-.13-6.71.98-54.94-49.75-197.99-36.06-227.3,13.68-29.32,124.23,13.17,124.23,13.17l2.2,99.68,6.61,299.73Z"/>
    <path class="cls-13" d="m1098.56,1236.74l-90.23,121.15c-.13-2.35-.17-4.58-.13-6.71.98-54.94-49.75-197.99-36.06-227.3,13.68-29.32,124.23,13.17,124.23,13.17l2.2,99.68Z"/>
    <path class="cls-10" d="m921.88,1533.4s6.25,12.21,20.11,15.22c8.73,1.9,16.2,6.44,20.85,12.81,3.93,5.38.13,12.96-6.54,12.96h-70.34c-5.99,0-10.66-5.17-10.06-11.13.52-5.21,1.07-11.28,1.31-15.93.52-10.16,10.69-18.34,10.69-18.34l33.97,4.4Z"/>
    <path class="cls-12" d="m1031.7,1139.42s-97.7,364.61-100.69,400.29c0,0-19.06,9.78-49.99-7.49,0,0-17.96-163.42,0-208.08,17.96-44.66-3.57-179.64,42.13-210.09,45.69-30.45,108.56,25.37,108.56,25.37Z"/>
    <path class="cls-20" d="m1123.59,878.05c6.32-37.93-17.81-65.23-17.81-65.23l-36.17,25.73c-6.99.42-9.98,2.96-9.98,2.96-5.99-1.61-22.7,0-22.7,0,.26,8.62-3.17,16.49-18.31,18.48-20.14,2.62-38.14-11.12-47.25-20.46,0,0-12.2-1.06-27.5,3.93,0,0-7.41-3.79-15.3-4.02l-29.61-26.62s-34.69,10.02-40.16,62.3c0,0,38.94,29.64,41.76,53.05l1.07,8.87,3.77,31.44,6.64,55.14-19.78,109.83c-.17.96-.26,1.92-.26,2.87,0,7.34,5.02,13.95,12.4,15.72,0,0,1.7.28,4.83.72,20.97,2.94,106.08,13.1,172.81-5.02,15-4.08,24.89-18.4,23.65-33.91l-14.12-177.17s1.34-28.33,1.67-33.32c.33-4.99,30.37-25.28,30.37-25.28Z"/>
    <path class="cls-8" d="m936.22,1069.83c-1.32,38.31-5.08,70.79-27.01,82.92-3.13-.43-4.83-.72-4.83-.72-7.38-1.77-12.4-8.38-12.4-15.72,0-.94.09-1.91.26-2.87l19.78-109.83-6.64-55.14c.32-.96.49-1.47.49-1.47,0,0,32.03,53.76,30.35,102.83Z"/>
    <path class="cls-9" d="m1031.47,829.64c-27.79-.74-49.02-28.11-49.02-28.11l48.17,1.96c-.83,7.21-1.2,16.92.85,26.15Z"/>
    <g>
      <path class="cls-18" d="m1044.95,814.15s-55.44,14.64-74.56-29.45c-20.64-47.58,2-82.24,20.83-84.58,37.54-4.66,59.35,9.65,65.95,24.78,6.6,15.13,18.38,81.44-12.21,89.24Z"/>
      <path class="cls-1" d="m1022.98,789.33s2.32,5.72,16.94,2.51c0,0,12.28-2.69,10.89-9.16,0,0-12.74-2.77-27.83,6.65Z"/>
      <path class="cls-13" d="m971.39,664.72c-14.5,4.59-25.28,11.64-32.68,20.24-.72-3.3-.77-6.29-.77-6.29-1.44,2.85-1.67,6.19-1.48,9.07-.08.11-.16.22-.24.34-2.83.29-7.04,1.45-9.52,5.49,0,0,3.03-2.03,6.95-1.66-19.55,32.27.31,80.44,46.63,108.21,0,0-6.5-19.08-5.73-29.27,0,0-14.47-18.45-6.04-23.01,8.43-4.57,12.98,6.35,14.91,4.21,1.93-2.14,4.95-38.39,15.18-37.25,10.24,1.14,48.11,12.88,64.71-1.44,16.6-14.32-23.68-70.26-91.94-48.65Z"/>
    </g>
  </g>
  <g>
    <g>
      <path class="cls-13" d="m2106.54,1461.05s23.95,22.2,19.28,37.97c-4.67,15.77-26.29,26.29-29.21,45.56-2.92,19.28-14.6,29.79-25.12,29.79h-50.13s-7.74-13.56,10.95-17.65c18.69-4.09,25.74-26.74,24.57-47.77-1.17-21.03,1.75-49.07,1.75-49.07l39.72-9.35,8.18,10.52Z"/>
      <path class="cls-13" d="m1808.04,1573.56c-.59.3-1.55.57-2.82.82h-132.91c1.07-4.66,5.22-13.99,21.24-16.59,20.94-3.39,57.23-15.56,65.33-42.35.26-.86.49-1.74.69-2.64,6.43-28.62,53.15,8.77,53.15,8.77,0,0,.14,1.14.34,3.07,1.09,10.49,3.87,44.47-5.01,48.91Z"/>
      <path class="cls-6" d="m1699.11,807.97s7.1,88.55,15.44,195c11.34,144.6,24.97,322.21,26.32,355.85,2.33,58.43,11.69,151.88,11.69,151.88,0,0,22.19,22.2,66.59,12.85,0,0,39.57-133.41,50.87-274.57.18-2.31.35-4.64.53-6.98,10.52-143.7,26.87-446.3,26.87-446.3l-198.31,12.27Z"/>
      <path class="cls-8" d="m1699.11,807.97s7.1,88.55,15.44,195l155.48,246.01c.18-2.31.35-4.64.53-6.98,10.52-143.7,26.87-446.3,26.87-446.3l-198.31,12.27Z"/>
      <path class="cls-6" d="m1731.52,818.49s127.93,320.7,212.05,471.41c84.12,150.71,110.4,192.77,110.4,192.77,0,0,48.19-19.28,52.57-32.42,0,0-32.17-290.96-88.5-361.88-31.83-40.08-69.22-160.35-70.97-202.41-1.75-42.06-11.39-125.3-11.39-125.3l-204.16,57.83Z"/>
    </g>
    <g>
      <path class="cls-18" d="m1353.37,697.56l-22.68,4.32s-42.48-10.06-58.1,34.76c0,0-5.06,18.99,9.11,17.98,14.17-1,8.59-2.66,28.6-3.64,20.01-.98,37.78-11.09,42.47-24.98l11.09-12.29-10.49-16.15Z"/>
      <path class="cls-19" d="m1338.76,716.12c-6.98-15.08-6.15-17.73-6.15-17.73,0,0,129.66-93.58,141.44-102.88,11.78-9.31,135.96-181.47,135.96-181.47l152.93,21.42s-205.83,203.79-236.13,226.79c-50.08,38.01-173.11,71.85-173.11,71.85,0,0-9.47-6.14-14.95-17.98Z"/>
    </g>
    <path class="cls-18" d="m1675.16,313.61s-52.2,91.84-103.22,103.83c0,0,2.12-30.84,14.55-51.95-5.09-6-9.55-11.51-13.42-16.45-12.84-16.46-18.95-26.53-18.95-26.53l17.32-46.55,11.75-31.58c5.65,10.25,11.87,18.98,18.36,26.45,33.44,38.44,73.62,42.78,73.62,42.78Z"/>
    <path class="cls-16" d="m1601.54,270.83s6.23,46.02-28.47,78.21c-12.84-16.46-18.95-26.53-18.95-26.53l17.32-46.55c18.57-5.66,30.11-5.13,30.11-5.13Z"/>
    <path class="cls-18" d="m1540.37,329.3s77.99-30.4,58.31-78.68c-19.68-48.28-22.87-84.71-73.5-67.34-50.62,17.37-52.73,39.71-50.08,57.42,2.65,17.71,44.48,95.26,65.27,88.6Z"/>
    <path class="cls-21" d="m1943.24,784.89c-31.47,45.23-266.68,105.67-263.9,74.36,1.07-11.98,2.5-33.11-.03-61.75-.59-6.71-1.42-13.81-2.5-21.33-5.98-41.14-20.17-94.04-51.83-155.26-2.37-4.59-4.84-9.21-7.41-13.89-13.03-23.71-24.14-48.77-32.61-73.27-16.3-47.1-22.86-92.16-14.64-121.62.03-.14.08-.27.13-.41,49.17-22.74,68.22-110.91,68.22-110.91,0,0,167.75,30.11,261.71,253.71,0,0,70.23,191.02,42.86,230.39Z"/>
    <path class="cls-19" d="m1679.32,797.5c-.59-6.71-1.42-13.81-2.5-21.33-5.98-41.14-20.17-94.04-51.83-155.26,5.43-32.95,12.94-60.35,21.17-72.69,33.46-50.14,52.94-57.98,52.94-57.98,0,0,50.17,211.59-19.79,307.26Z"/>
    <path class="cls-21" d="m1609.87,160.94c.55-1.08,2.13-2.23,6.01-3.42,0,0-3.63-1.22-7.85-.29-2.19-5.34-7.51-14.44-17.49-14.51,0,0,5.72,1.49,7.84,7.22-13.68-8.67-39.04-11.19-102.34,9.9-83.42,27.79-41.74,76.22-29.1,80.1,12.64,3.88,35.92-21.04,56.86-24.44,20.94-3.4,32.26,25.76,40.24,28.18,7.98,2.42,3.44-4.22,11.8-10.86,8.36-6.65,13.16,8.99,12.98,19.97-.18,10.98,16.12,21.39,16.12,21.39l9.56-17.53c9.56-17.53,6.96-81.18-2.17-92.64-.81-1.01-1.61-2.04-2.43-3.07Z"/>
    <g>
      <path class="cls-11" d="m1441.52,525.22s.02-29.54-17.97-44.59c-6.58-5.5-14.63-10.66-22.2-14.99-8.07-4.62-9.41-1.69-8.26,7.55.9,7.19-.86,16.57.45,21.38,4.05,14.88,5.41,25.68,21.24,32.2,15.83,6.52,26.74-1.56,26.74-1.56Z"/>
      <path class="cls-14" d="m1346.22,535.7s-15.39,1.66-14.94,5.7c.45,4.04,42.18-3.15,41.72-5.72-.46-2.58-21.31-.6-26.78.02Z"/>
      <path class="cls-21" d="m1545.42,667.49s-2.87-32.01-41.72-47.59c-20.21-8.1-89.84-32.99-65.72-60.05,12.27-13.78,13.64-28.16,12.01-38.97-.23-1.51-.51-2.95-.83-4.31h0c-1.89-8.02-5.06-13.2-5.06-13.2,0,0-.22-.52-.76-1.37,1.37-4.58,1.71-10.27-.25-17.11-2.36-8.25-10.51-14.74-16.31-21.24-6.19-6.93-8.39-4.58-10.23,4.55-1.36,6.75-5.6,14.63-6.26,19.66-4.71-.23-10.04-.1-16.09.53-.02,0-.04,0-.06,0-1.96.19-3.97.45-6.08.76-20.66,3.06-22.41,12.78-31.83,12.91-8.59.11-19.56-.09-21.39-.13h-.26s-12.47-2.68-11.21,8.39c.14,1.19.27,2.32.4,3.38.93,7.74,1.84,12.33,5,15.18,2.41,2.16,11.42,4.29,18,4.75,5.12.36,17.14.58,17.8.75,1.81.47-6.65,5.15-32.17,5.55-.46,0-.92.03-1.39.04-1.23.02-2.24.99-2.32,2.21-.16,2.23.33,5.74,4.06,8.58,5.95,4.54,28.7,3.7,25.61,10.1-.65,1.36-1.93,2.6-3.57,3.85h0c-6.1,4.6-17.19,9.03-20.22,18.14,0,0,8.1-3.64,14.04-2.88,0,0-19.09,6.85-19.42,16.62,0,0,2.46-2.2,6.99-2.12,0,0-15.28,15.48-13.28,37.72,0,0,0,.01,0,.02-9.31,12.79-23.52,30.06-34.15,33.03,0,0-9.2-5.38-13.41-5.25-4.21.13-10.59,6.68-10.57,11.72.02,5.03,24.5,6.37,27.48,5.4,2.98-.97,66.35-.95,73.3-5.42h0s179.89-4.22,179.89-4.22Z"/>
      <rect class="cls-10" x="1280.96" y="650.94" width="277.48" height="246.1" transform="translate(-97.22 214.02) rotate(-8.34)"/>
      <rect class="cls-6" x="1418.23" y="630.82" width="277.48" height="246.1" transform="translate(-92.85 233.72) rotate(-8.34)"/>
      <polygon class="cls-8" points="1401.86 652.24 1677.12 611.91 1688.46 689.32 1437.54 895.74 1401.86 652.24"/>
      <polygon class="cls-6" points="1291.38 854.08 1334.88 847.7 1329.12 835.1 1331.57 825.13 1288.07 831.5 1291.38 854.08"/>
      <polygon class="cls-5" points="1405.89 679.77 1357.14 750.5 1277.9 762.11 1264.74 672.34 1401.86 652.24 1405.89 679.77"/>
      <polygon class="cls-6" points="1264.58 672.36 1212.25 745.47 1349.61 725.34 1401.86 652.24 1264.58 672.36"/>
      <polygon class="cls-6" points="1401.86 652.24 1465.57 708.35 1736.49 668.65 1676.41 612.01 1401.86 652.24"/>
      <path class="cls-3" d="m1334.83,501.93c-1.3,3.85-4.55,10.94-11.07,11.78-.13-1.07-.26-2.2-.4-3.38-1.27-11.08,11.21-8.39,11.21-8.39h.26Z"/>
      <path class="cls-11" d="m1318.63,664.44s24.76-19.65,56.47-24.61c31.71-4.96,80.1,4.6,80.1,4.6l-136.57,20.01Z"/>
      <path class="cls-11" d="m1503.69,619.9c-72.59-.21-138.3-56.4-102.88-58.4,35.43-2,48.33-44.95,48.33-44.95h0c.32,1.37.6,2.81.83,4.32,1.63,10.81.26,25.19-12.02,38.97-24.12,27.06,45.52,51.95,65.72,60.05Z"/>
      <path class="cls-11" d="m1542.1,632.13s9.61-34.96-28.02-29.21c0,0,5.49-13.97,24.95-13.97,0,0-1.5-3.74-4.99-5.99,0,0,23.7-4.49,33.43,12.97,0,0,2.74-11.2,0-16.2,0,0,25.45,6.75,21.95,32.18,0,0,5.02-3.29,6.25-10.26,0,0,7.09,12.37-1.08,22.79l-52.5,7.69Z"/>
      <path class="cls-11" d="m1413.79,490.64s.17-2.99,2.66-8.48c2.5-5.49,2.16-14.64,3.33-14.47,1.16.17,12.14,22.28,5.16,28.94,0,0-6.15,2.17-11.14-5.98Z"/>
      <path class="cls-10" d="m1322.87,632.21c-2-22.25,13.28-37.72,13.28-37.72-4.52-.08-6.99,2.12-6.99,2.12.33-9.77,19.42-16.62,19.42-16.62-5.94-.76-14.04,2.88-14.04,2.88,3.02-9.11,14.12-13.54,20.22-18.14h0c.38-.14,10.68-3.87,14.11,2.26,3.49,6.24-46.62,40.89-46.02,65.23Z"/>
    </g>
    <g>
      <path class="cls-18" d="m1405.89,749.7s-29.28-1.52-35.75,0c-6.47,1.52-27.8,14.85-27.8,16.76s1.33,3.24,5.33,2.86c4-.38,16.75-4.19,16.18-2.48-.57,1.71-36.87,15.23-36.05,22.85.82,7.62,23.67,18.28,41.19,16.38,17.52-1.9,48.78-26.73,51.24-28.41,2.46-1.68-14.34-27.96-14.34-27.96Z"/>
      <path class="cls-21" d="m1406.14,764.75c-9.3-15.02-2.59-21.87-2.59-21.87,0,0,143.35-112.24,154.59-123.58,11.24-11.34,63.29-191.89,63.29-191.89,0,0,17.91-73.07,59.86-81.13,36.46-7,61.65,11.03,78.14,32.18,19.65,25.2,21.57,59.95,5.27,87.43-36.6,61.67-110.44,184.1-132,205.01-47.99,46.55-208.54,111.6-208.54,111.6,0,0-10.71-5.96-18.01-17.76Z"/>
    </g>
    <path class="cls-1" d="m1516.6,306.18s3.93,7.09,17.73,1.77c0,0,11.59-4.46,8.38-12.58,0,0-13.58-2.46-26.11,10.81Z"/>
  </g>
  <path class="cls-2" d="m1460.99,1574.39h-142.89c-7.66-6.5,5.3-21.25,18.84-22.24,5.88-.45,13.31.79,21.81,2.58,1.97-26.12,13.2-143.52,55.51-138.8,47.58,5.28,0,51.7-13.45,79.19-9.96,20.36-20.48,49.55-25.28,63.33,3.86.84,7.86,1.66,11.95,2.41,6.31-19.37,29.77-84.5,59.62-80.71,35.04,4.44,20.95,30.56-3.88,46.06-18.22,11.4-40.59,27.6-51.22,35.43,9.01,1.47,18.41,2.46,27.94,2.24,24.48-.58,36.42,6.63,41.05,10.51Z"/>
  <path class="cls-15" d="m914.58,806.65s38.16,7.41,41.59,11.6c3.43,4.19,15.15,27.04,15.19,32.37.04,5.33-20,6.61-28.76-4.19-8.76-10.79-18.38-6-28.02-19.57-9.64-13.57,0-20.22,0-20.22Z"/>
</svg>