<?xml version="1.0" encoding="UTF-8"?>
<svg id="Layer_1" data-name="Layer 1" xmlns="http://www.w3.org/2000/svg" viewBox="0 0 2645 1683.05">
  <defs>
    <style>
      .cls-1 {
        fill: #f48c7f;
      }

      .cls-2 {
        fill: #f7a491;
      }

      .cls-3 {
        fill: #fff;
      }

      .cls-4 {
        fill: #13375b;
      }

      .cls-5 {
        fill: #d6eef6;
      }

      .cls-6 {
        fill: #b75742;
      }

      .cls-7 {
        fill: #d66146;
      }

      .cls-8 {
        fill: #6dabdb;
      }

      .cls-9 {
        fill: #fe875e;
      }

      .cls-10 {
        fill: #50bfa5;
      }

      .cls-11 {
        fill: #86b1f2;
      }

      .cls-12 {
        fill: #e0973f;
      }

      .cls-13 {
        fill: #355389;
      }

      .cls-14 {
        fill: #fae0b2;
      }

      .cls-15 {
        fill: #466eb6;
      }

      .cls-16 {
        fill: #f7cc7f;
      }

      .cls-17 {
        fill: #66ccb2;
      }

      .cls-18 {
        fill: #ed9a8c;
      }

      .cls-19 {
        fill: #f0fbff;
        opacity: .8;
      }

      .cls-20 {
        fill: #f47458;
      }

      .cls-21 {
        fill: #f8a492;
      }

      .cls-22 {
        fill: #edb95c;
      }

      .cls-23 {
        fill: #3c8f7c;
      }

      .cls-24 {
        fill: #184655;
      }

      .cls-25 {
        fill: #07345a;
      }
    </style>
  </defs>
  <g>
    <path class="cls-5" d="m2503.9,1670.05c110.01-58.65,147.27-262.16,59.42-511.42-64.91-184.16,72.91-341.41,81.23-557.33,27.54-714.9-1237.09-733.53-2037.85-362.83C-278.25,648.13-23.44,1473.46,300.06,1670.05h2203.84Z"/>
    <path class="cls-19" d="m2298.32,1242.9c4.24,0,8.36.43,12.28,1.23,11.41-19.16,36.17-32.44,64.88-32.44,7.42,0,14.58.89,21.31,2.54,15.46-20.11,43.54-33.55,75.62-33.55,38.17,0,70.68,19.03,83,45.67,7.72-3.38,16.47-5.47,25.79-5.91,5.08,17.67,9.52,35.05,13.33,52.11h-343.63c4.96-16.97,24.3-29.64,47.42-29.64Z"/>
    <path class="cls-19" d="m1115.34,243.05c7.09-24.26,34.73-42.35,67.76-42.35,6.06,0,11.95.61,17.55,1.76,16.3-27.39,51.69-46.36,92.72-46.36,10.61,0,20.84,1.27,30.46,3.62,22.09-28.73,62.22-47.94,108.06-47.94,54.54,0,101,27.19,118.6,65.26,12.46-5.46,26.8-8.58,42.08-8.58,47.81,0,86.56,30.44,86.56,68,0,2.23-.15,4.43-.41,6.6h-563.38Z"/>
    <path class="cls-19" d="m16.4,1059.64c5.76-19.7,28.21-34.4,55.04-34.4,4.93,0,9.7.5,14.26,1.43,13.24-22.24,41.98-37.66,75.31-37.66,8.62,0,16.93,1.03,24.74,2.94,17.94-23.33,50.53-38.94,87.77-38.94,44.3,0,82.03,22.09,96.33,53,10.12-4.43,21.77-6.97,34.18-6.97,38.83,0,70.31,24.73,70.31,55.23,0,1.81-.12,3.59-.33,5.36H16.4Z"/>
    <path class="cls-19" d="m1113.86,1002.69c4.94-18.36,24.19-32.05,47.19-32.05,4.22,0,8.32.46,12.22,1.33,11.35-20.72,36-35.08,64.57-35.08,7.39,0,14.51.96,21.21,2.74,15.38-21.74,43.33-36.28,75.26-36.28,37.99,0,70.34,20.58,82.6,49.38,8.68-4.13,18.67-6.49,29.31-6.49,33.29,0,60.29,23.04,60.29,51.46,0,1.68-.1,3.35-.29,4.99h-392.37Z"/>
    <path class="cls-19" d="m2522.7,400.27c-4.75-16.01-23.24-27.95-45.35-27.95-4.06,0-8,.4-11.75,1.16-10.91-18.07-34.59-30.59-62.05-30.59-7.1,0-13.95.84-20.38,2.39-14.78-18.96-41.64-31.64-72.32-31.64-36.5,0-67.6,17.94-79.38,43.06-8.34-3.6-17.94-5.66-28.16-5.66-32,0-57.94,20.09-57.94,44.87,0,1.47.1,2.92.28,4.35h377.06Z"/>
    <path class="cls-8" d="m2618.28,1657.62l-2547.75,2.27c-6.12,0-11.09,5.19-11.09,11.58h0c0,6.4,4.97,11.58,11.1,11.58l2547.75-2.27c6.12,0,11.09-5.19,11.09-11.58h0c0-6.4-4.97-11.58-11.1-11.58Z"/>
  </g>
  <g>
    <g>
      <g>
        <g>
          <path class="cls-21" d="m1979.79,793.29c-1.3,4.47-2.04,5.96-3.7,8.96-10.65,19.38-35.35,47.03-35.35,47.03l-19.11-43.05s3.12-13.52,8.52-32.84c18.46,4.82,36.03,7.61,49.64,19.9Z"/>
          <path class="cls-4" d="m1870.23,755.95s106.58,45.9,110.03,45.02c2.22-.56,43.72-70.03,44.16-135.35.21-30.17-31.12-66.46-66.08-59.28-17.6,3.61-17.33,8.51-43.36,46.34-26.04,37.84-44.74,103.27-44.74,103.27Z"/>
          <path class="cls-2" d="m1779.25,1578.83s2.53,41.86,2.54,41.94c.93,5.32,4.59,18.45,4.59,23.28,0,18.15-86.18-15.41-66.87-23.45,1.75-.73,10.91-6.23,11.48-12.41.89-9.52,3.13-28.77,3.13-28.77l45.12-.59Z"/>
          <path class="cls-4" d="m1719.73,1620.43s20.23,5.55,30.6,6.94c10.36,1.39,24.03-10.3,31.36-7.14,8.07,3.47,7.75,34.75,7.75,34.75,0,0-108.51,8.9-139.02-.31-12.09-3.65,27.95-21.31,69.31-34.24Z"/>
          <path class="cls-2" d="m1955.55,1578.83s2.53,41.86,2.54,41.94c.93,5.32,4.59,18.45,4.59,23.28,0,18.15-86.18-15.41-66.87-23.45,1.75-.73,13.62-10.34,14.2-16.52.89-9.52.42-24.66.42-24.66l45.12-.59Z"/>
          <path class="cls-4" d="m1896.03,1620.43s20.23,5.55,30.6,6.94c10.36,1.39,24.03-10.3,31.36-7.14,8.07,3.47,8.39,34.75,8.39,34.75,0,0-109,10.38-139.66-.31-11.9-4.15,27.95-21.31,69.31-34.24Z"/>
          <g>
            <path class="cls-2" d="m1929.21,816.49l-75.9-106.33c-.32-.93-1.01-2.83-2.06-5.75-3.82-10.55-11.78-32.51-18.71-54.35l-.08-.23c-2.18-7.63-6.79-20.95-11.26-33.84-4.96-14.32-11.12-32.09-11.33-35.12.19-.52.55-1.45,1.03-2.68,2.78-7.23,6.54-24.43,7.88-31.91.85-4.76,1.69-16.34-3.97-16.34-8.9,0-4.66,11.56-8.76,18.79-1.51-4.83-4.56-14.4-6.17-24.1l-1.49-22.61c-.29-1.7,1.53-14.18-4.72-14.18h-.3c-5.61.42-5.49,13.68-7.82,36.1-.74-2.58-1.48-5.69-2.03-8.55.07-1.53-1.06-8.28-1.9-11.83,1.13-6.25.47-16.1-6.18-15.18-3.34.47-3.06,14.22-3.06,14.22.04,1.89.23,16.43.13,19.3-.69-4.88-3.35-25.69-8.57-25.69-4.33,0-4.68,5.6-4.59,10.03.05,2.62,2.77,25.17,2.92,27.79-2.04-3.42-4.46-23.29-6.48-23.29-8.44,0-5.39,28.25-2.29,35.61.29.75.6,2.23.96,3.94,1.05,5.03,2.82,13.46,7.24,21.02,5.3,9.07,12.61,23.49,13.73,25.7.82,4.5,3.36,20.7,6.55,41.07,1.37,8.72,2.87,18.28,4.43,28.18h.08c.29,2.13,1.87,8.95,7.87,34.51,8.22,34.98,9.07,36.49,9.43,37.14,3.57,6.32,85.41,117.46,88.89,122.18l2.05,2.79,34.47-46.41Z"/>
            <path class="cls-20" d="m1788.03,568.48s6.16-15.76,17.13-15.78c0,0-6.13-2.21-11.38,1.95-5.25,4.16-5.75,13.84-5.75,13.84Z"/>
          </g>
          <g>
            <path class="cls-2" d="m1947.55,538.04l9.77,61.8s-37.23,29.9-58.94,23.59c-18.21-5.29-5.72-29.1-5.72-29.1,0,0,9.7-32.99,6.72-50.28-2.98-17.29,48.16-6.01,48.16-6.01Z"/>
            <path class="cls-9" d="m1940.54,556.73c-9.33,4.41-27.78,10.42-42.14,11.88,1.37-8.65,2.16-17.79.99-24.55-1.37-7.98,8.78-9.87,20.11-9.59,14.83,1.27,28.05,3.59,28.05,3.59l1.88,11.88c-2.82,2.98-5.78,5.34-8.89,6.81Z"/>
            <path class="cls-2" d="m1968.28,454.87c1.49-.36,2.34,70.55-19.21,88.13-21.55,17.59-59.46,20.61-70.76,4.26-12.51-18.09-1.91-93.28,30.28-110.49,32.18-17.2,59.7,18.09,59.7,18.09Z"/>
            <path class="cls-4" d="m1924.75,400.32c22.29,6.41,35.38,20.87,40.09,26.95,10.23,2.07,23.64,8.72,35.23,32.71,14.26,29.5-3.03,59.26-25.87,72.59-22.85,13.33-22.61,30.58-22.61,30.58l-7.15-16.85s1.69-16.64,8.03-26.33c6.34-9.69-8.57-17.82-11.89-26.64-2.56-6.79-.78-21.66-4.74-32.87,0,0-18.84-17.35-33.61-19.13-25.17-3.03-6.09-49.24,22.51-41.01Z"/>
            <path class="cls-2" d="m1947.74,511.57c-3.29,7.97-1.94,15.89,3,17.68,4.95,1.79,11.62-3.22,14.91-11.19,3.29-7.97,1.95-15.89-3-17.68-4.95-1.79-11.62,3.22-14.91,11.19Z"/>
          </g>
          <path class="cls-18" d="m1861.04,818.2l-146.42-23.87s16.66-41.94,22.61-41.94,110.71,45.73,110.71,45.73l8.33,16.73,4.76,3.35Z"/>
          <path class="cls-15" d="m1936.04,918.58s14.61,70.61,8.66,124.15c-5.95,53.54-6.42,243.73-6.42,243.73l22.71,304.31-53.89,1.17s-63.91-304.16-62.71-296.35c1.19,7.81-21.43-214.16-21.43-214.16l76.19-169.54,36.9,6.69Z"/>
          <path class="cls-11" d="m1921.75,915.24s9.52,63.58-2.38,91.46c-11.9,27.89-102.1,301.49-103.29,323.8-1.19,22.31-31.19,268.88-31.19,268.88l-62.67-1.76-13.56-274.14,28.39-344.55,27.56-87.11,157.13,23.42Z"/>
          <path class="cls-2" d="m1957.32,599.84s-15.45,10.14-29.87,8.97c-14.41-1.17-34.79-14.47-34.79-14.47l2.83-9.6s37.29-5.43,38.23-4.84c.94.59,23.6,19.95,23.6,19.95Z"/>
          <path class="cls-18" d="m1792.62,750.32s-55.38,52.26-80.38,43.34c-25-8.92-35.34-39.42,25.65-84.05,54.59-39.94,54.73,40.71,54.73,40.71Z"/>
          <path class="cls-4" d="m1755.09,814.85c8.23-44.76,67.85-184.05,72.62-209.7,2.31-12.48,34.48-12.75,65.11-11.12,32.36,1.72,64.5,5.81,64.5,5.81,0,0,28.65,4.71,41.25,16.51,12.6,11.81,15.95,44.47-2.17,106.47-14.3,48.94-32.03,75.81-40.81,111.46-1.78,11.96-3.3,23.75-5.32,37.54-3.22,53.3.04,123.72.04,123.72,0,0-155.95,32.35-214.28-16.73,0,0,10.62-118.11,19.05-163.97Z"/>
          <path class="cls-4" d="m1715.33,718.61s61.19,50.51,64.76,50.51c2.3,0,87.32-62.54,106.95-113.93,10.85-28.41-11.91-60.19-37.9-60.08-18.02.07-26.03,4.71-61.74,34.83-35.71,30.12-72.07,88.66-72.07,88.66Z"/>
        </g>
        <path class="cls-3" d="m1905.62,526.31l-26.89-1s.24,10.23,12.05,11.02c14.4.96,14.84-10.01,14.84-10.01Z"/>
      </g>
      <g>
        <path class="cls-20" d="m2335.2,390.98c.46-2.01,3.2-2.87,4.81-1.73,2.6,1.82,5.23,3.6,7.86,5.4,5.79,3.97,5.89,4.3,6.6,4.05,1.68-.6,1.12-3.74.81-4.87-.69-2.52-2.03-4.88-2.2-7.52-.33-5.15,3.79-8.64,8.6-6.08,4.4,2.35,8.69,4.97,12.95,7.61-.78-5.55-1.73-11.08-2.43-16.64-.25-1.97,1.56-3.21,3.32-2.32,3.89,1.98,15.43,7.85,19.23,9.79.98.5,5.29,3.38,6.2,2.52.82-.76,0-4.59-.07-5.46-.4-4.81-.48-6.51-1.42-22.19-.11-1.87,2.51-3.27,3.98-2.07,14.48,11.77,15.98,9.95,17.86,13.95.42.9-.22,1.69-1.12,1.77-2.3.21-2.86.1-9.84-4.43-1.8-1.17-3.58-2.38-5.32-3.64,1.51,19.02,2.34,23.77-2.04,26.08-3.04,1.6-3.78.69-25.58-10.47,1.12,5.78,1.89,11.59,2.77,17.42.33,2.22-1.82,3.7-3.78,2.64-15.7-8.5-15.76-9.36-17.35-9.74-.04-.01-.21-1.01-.17.47.07,2.52,3.42,7.35,2.57,12.11-.74,4.19-4.43,8.01-8.96,6.78-2.63-.71-3.51-1.76-12.11-7.31-1.28,4.89-3.13,9.61-5.69,14.41-1.11,2.08-2.11,3.31-4.13,4.53-1.66,1-4.15-.51-3.92-2.47.66-5.57,5.12-7.74,8.56-22.6Z"/>
        <path class="cls-17" d="m2259.66,334.9c5.28-.12,10.26-.61,15.64-1.68,1.01-.2,2.94-.35,3.4-1.49,1.11-2.75-3.78-5.73-7.49-14.93-1.61-3.99-5.29-12.09-.05-14.87,2.69-1.42,6.38-1.44,9.33-1.94,2.24-.38,4.47-.85,6.7-1.27-7.01-14.76-7.76-13.71-6.84-17.49.24-.98,1.55-1.7,2.5-1.3,3.52,1.47,2.55,1.22,11.57,19.73.82,1.69-.03,4.09-2.05,4.43-3.03.51-16.9,2.08-18.57,2.54.14.14.12.91.16,1.07,1.33,6.44,4.6,11.48,8.01,16.94,2.8,4.47,3.96,11.01-1.93,13.57-3.19,1.39-10.13,2.24-15.51,2.66,4.62,8.92,9.31,17.82,13.88,26.76.89,1.75-.02,4.65-2.26,4.88-6.21.64-12.38,1.49-18.56,2.39,2.77,5.24,6.34,10.02,10.58,14.19,3.12,3.07-1.01,8.38-8.36.09-4.26-4.5-7.69-9.67-10.28-15.39-.86-1.89,0-4.49,2.26-4.89,6.08-1.07,12.23-1.86,18.37-2.53-4.49-8.94-8.9-17.94-13.4-26.88-1.1-2.19.55-4.52,2.89-4.58Z"/>
        <path class="cls-25" d="m2107.41,309.86c-1.78.29-3.09-.66-3.67-2.31-2.82-8.08-4.91-16.2-4.86-24.84.03-4.49,6.64-4.1,6.88.25.37,6.81,1.1,13.79,3.04,20.38,4.89-1.06,9.65-2.59,14.21-4.69,1.73-.8,4.36-.02,4.65,2.15.72,5.42,2.85,26.02,2.66,26.23.04-.02.17-.08.53-.08,2.19,0,9.16-2.9,12.48-3.34,3.73-.49,5.89,4.29,6.67,7.28,1.58,6.07-1.69,13.7,1.63,19.29,3.19,5.37,11.03-2.76,18.73.64,5.93,2.62,5.32,9.09,5.05,19.18-.07,2.48-.16,4.89-2.27,6.52-.52.4-1.35.61-1.93.16-3.15-2.44-2.51-6.19-2.5-15.36,0-1.17.35-3.2-.63-4.06-3.28-2.86-10.01,3.43-17,.61-5.44-2.2-7.35-8.25-7.58-13.63-.18-4.22,1.36-9.75-.78-13.68-3.48.87-6.98,1.85-10.49,2.44-3.84.65-6.84-.86-7.79-4.74-1.05-4.29-1.2-8.93-1.7-13.31-.34-2.95-.69-5.9-1-8.85-4.64,1.7-9.4,3-14.32,3.79Z"/>
        <path class="cls-23" d="m2402.42,472.85c18.29,15.89,6.29,27.67-.91,23.43-3.08-1.82-3.99-5.84-1.29-8.4,1.23-1.18,3.77-.19,3.53,1.64-.2,1.52,1.49,1.58,1.86-.06.5-2.21-1.44-4.45-2.68-6.07-2.9-3.77-6.6-8.69-11.9-8.51-7.91.28-14.75,9.58-8.24,20.49,9.38,15.74,36.74,10.19,38.25-8.48.82-10.16-5.08-19.9-14.07-24.49-1.76-.9-.29-3.29,1.38-2.94,12.66,2.73,19.76,17.11,17.71,29.3-2.1,12.51-13.49,20.52-25.77,20.83-12.88.32-25.17-8.65-26.07-22.03-.99-14.67,15.43-25.83,28.21-14.72Z"/>
        <path class="cls-16" d="m2069.85,375.09c2.62,2.66,4.98,8.66,1.23,11.4-1.74,1.27-4.18,1.15-5.29-.95-1.08-2.05-.26-4.28-2.55-5.61-1.96-1.14-4.28.15-5.6,1.73-4.01,4.81-1.12,13.1,2.31,17.43,5.44,6.88,16.5,6.34,20.28-2.75,1.19-2.84,1.03-5.88,1.21-8.89.1-1.67,2.49-2.87,3.63-1.33,4.39,5.94,1.55,14.69-3.3,19.5-5.1,5.04-13.37,6.31-19.91,3.57-7.3-3.05-12.03-10.94-13.24-18.56-2.52-15.83,12.75-24.15,21.24-15.54Z"/>
      </g>
      <path class="cls-2" d="m2241.38,1092.32s3.27-6.45,4.19-8.67c1.07-2.61,3.67-10.67,3.67-10.67,0,0,7.67-28.5,5.45-28.89-2.22-.39-6.36,3.77-7.47,5.37-1.11,1.59-2.57,3.36-3.68,4.95-1.11,1.59-3.26,2.11-5.41.9-2.15-1.21.85-8.5,2.4-10.82,4.85-7.23,21.85-24,23.56-25.85,2.04-2.19,5.93-54.04,8.72-71.69h0c3.68-29.04,5.96-59.07,6.33-62.14l-21.96-123.64,43.62-25.2s26.36,136.9,26.88,143.88c.24,3.33-13.67,69.95-13.7,69.95-8.99,32.38-16.99,60.88-18.37,66.41,0,0,.47,17.6,1.45,28.8.98,11.19-2.75,21.86-2.98,25.04-.03.47-.18,11.47-5.46,23.95-4.55,10.76-5.36-1.56-5.36-1.56,0,0,4.71-21.47,2.89-21.57-1.4-.08-3.25,11.81-8.16,23.76-1.26,3.07-2.52,6.1-3.7,8.88-3.09,7.28-8.62,7.44-6.65-.71.7-2.87,1.97-7.62,3.38-10.87,1.52-3.51,1.74-7.23,2.55-10.38,1.61-6.25,2.86-10.79,2.55-10.72-.39.09-.98-1.38-2.43,1.84-1.74,3.87-3.53,12.92-6.55,18.42-1.71,3.12-4.86,9.84-4.86,9.84,0,0-6.36,10.35-7.06,10.14-3.79-1.14-1.44-9.84,1.46-13.77.5-3.44,4.03-10.43,4.03-10.43,0,0,3.84-15.74,1.54-16.34-1.89-.49-18.62,35.34-22.34,33.94-3.04-1.15,1.49-12.15,1.49-12.15Z"/>
      <path class="cls-20" d="m2253.42,831.67s22.47.15,34.81-2c16.44-2.87,27.49-5.97,27.49-5.97,0,0-3.89-73.07-17.1-119.34-5.46-19.12-12.71-29.15-24.63-33.33-.07-.03-29.02,11.98-35.38,51.92-1.49,9.38,14.81,108.72,14.81,108.72Z"/>
      <path class="cls-2" d="m2193.03,1064.66l-28.7,255.65s14.03,54.06,12.34,69.42c-1.69,15.36-31.2,216.84-31.2,216.84l1.24,11.3.03,33.37h-109.52s23.24-10.38,55.76-30.89c2.41-1.52,7.95-6.35,9.29-15.99,8.68-62.1-8.49-269.24-8.49-269.24l-13.53-269.63,112.77-.83Z"/>
      <path class="cls-2" d="m2281.04,1118.44c6.18,1.56,15.7,221.37,20.83,231.11,32.47,61.76,40.19,249.54,40.19,249.54l9.69,27.33,9.84,32.47s-32.41,8.33-49.42-1.03l1.89-32.32,1.72-29.56-81.93-233.95-44.83-238.63,92.02-4.96Z"/>
      <path class="cls-16" d="m2118.1,692.63c13.21-18,67.74-70.16,73.8-70.05,17.66.31,75.62.33,86.95,6.07l-.55,99.28c-1.85,8.33-41.86,138.14-39.54,166.55l-.28.26c-33.54,32.28-86.43,29.74-117.1-5.61h0s.13-39.38-4.59-75.29c-7.4-56.27-31.53-76.49,1.3-121.21Z"/>
      <path class="cls-20" d="m2070.03,1230.95l-3.9-151.67c-.67-42.86,8.09-85.34,25.66-124.38l29.6-65.78c11.98,3.8,23.26,7.03,35.85,8.44,27.38,3.06,54.3.02,81.53-3.09.08,1.03.21,1.92.38,2.68,4.94,22.34,32.46,72.13,44.05,140.19,13.16,77.26,16.59,184.37,14.95,193.43-76.21,17.78-154.32,18.36-228.12.16Z"/>
      <path class="cls-2" d="m2209.67,566.7s-1.53,36.63,1.77,50.52c3.3,13.89,7.7,14.94-20.64,19.16-11.13,1.66-21.87,4.14-21.87,4.14,0,0,2.91-20.39,3.35-29,.72-14.18-3.28-57.96-3.28-57.96l40.66,13.15Z"/>
      <path class="cls-20" d="m2188.09,584.92c-5.83,3.14-11.28,4.99-16.3,5.76-.96-17.29-2.78-37.14-2.78-37.14l38.79,12.54c-4.5,7.49-10.9,14.08-19.71,18.83Z"/>
      <path class="cls-4" d="m2314.06,1625.4c14.96,6.64,31.06,2.63,37.53.52l2.15,5.77,8.25,27.41s-32.82,8.12-49.83-1.24l1.89-32.46Z"/>
      <path class="cls-4" d="m2147.88,1659.53h-113.85c-4.21-.38-5.24-3.81-3.78-5.92,3.01-4.35,16.29-7.55,31.22-14.48,26.19,2.75,81.14-15.27,85.27-21.32,2.39,12.13,3.48,41.21,1.14,41.73Z"/>
      <path class="cls-4" d="m2194.04,1028.97v47.73c0,24.81-20.78,44.93-46.41,44.93h-47.74v-111.26h74.93c5.13,0,9.78,1.95,13.23,5.12,3.69,3.38,5.99,8.17,5.99,13.48Z"/>
      <path class="cls-4" d="m2193.82,1030.74l-14.18-.29,7.99-373.28c-14.85,2.66-27.3,13.32-31.52,27.74l-98.64,337.08-13.64-3.74,98.64-337.08c6.61-22.59,28.16-38.37,52.41-38.37h7.24l-8.3,387.93Z"/>
      <path class="cls-21" d="m2191.02,727.51l-60.08-10.49-37.28,83.22c-23.67-22.79-109.29-86.02-109.74-86.49l-19,21.56s100.76,130.39,146.68,124.36c39.16-5.14,80.13-132.54,79.41-132.16Z"/>
      <path class="cls-20" d="m2215.96,671.12c8.2,33.64-35.53,108.66-35.53,108.66,0,0-62.3-29.3-73.25-41.92,0,0,42.33-72.79,45.1-77.22,12.56-20.04,29.61-20.06,40.73-18.75,8.93,1.05,22.96,29.23,22.96,29.23Z"/>
      <path class="cls-24" d="m2291.73,789.26c72.24-21.61,52.9-85.07,52.5-82.66.21-1.96,7.02-9.95,10.38-16.78,14.03-28.45-4.48-62.72-25.68-74.58,14.06-36.19.1-70.9-26.37-85.36-13.36-7.3-24.6-17.68-33.63-29.69-20.04-26.65-56.5-53.48-100.32-44.72-43.37,11.06,14.69,36.09,8.94,77.67-2.91,21.08,5.46,18.05,18.52,35-18.81,32.94-7.93,88.23,20.9,113.31-14.13,59.36,1.04,129.88,74.76,107.83Z"/>
      <ellipse class="cls-2" cx="2182.06" cy="531.58" rx="7.65" ry="16.55"/>
      <path class="cls-13" d="m2188.05,1015.49h-.32c-9.85,0-17.83,7.73-17.83,17.26v35.11c0,29.7-24.87,53.77-55.54,53.77h-29.07c-30.67,0-55.54-24.07-55.54-53.77v-34.93c0-12.46,10.43-22.56,23.3-22.56h121.76c5.13,0,9.78,1.95,13.23,5.12Z"/>
      <path class="cls-24" d="m2238.06,499.13c8.54,35.07-37.66,60.54-74.23,61.47-23.77.61-34.7-1.83-38.54-26.79-6.23-40.49,10.51-65.17,33.96-75.39,30.26-13.18,71.77,11.77,78.81,40.71Z"/>
      <path class="cls-2" d="m2184.34,475.54s16.08,5.39,24.65,21.57c8.57,16.18,4.31,67.99-31.35,85.08-35.66,17.09-52.05-21.71-49.46-50.35,2.59-28.63,12.91-66.1,56.17-56.3Z"/>
      <path class="cls-24" d="m2221.66,536.32c5.28-26.78,3.21-47.07-15.88-56.87-19.09-9.8-35.41-19.51-52.49-1.9l-3.86,2.17s32.23,8.88,34.03,25.94c1.8,17.06,18.94,37.34,16.3,45.72-2.64,8.38-5.68,25.09-5.68,25.09l7.06-5.78s15.25-7.59,20.52-34.37Z"/>
      <path class="cls-2" d="m2188.44,526.07c-2.66,7.39-.65,14.82,4.49,16.58,5.15,1.76,11.48-2.8,14.14-10.2,2.66-7.39.65-14.82-4.5-16.58-5.15-1.76-11.48,2.8-14.14,10.2Z"/>
      <path class="cls-2" d="m1965.94,736.67l20.61-18.18c-1.65-2.54-2.63-4.25-2.62-4.75.06-2.23,1.52-23.27.51-30.9-.32-2.44-2.6-9.03-4.73-8.57-2.13.46-3.25,2.05-3.06,3.76.2,1.71.26,3.73.45,5.43.2,1.71-.11,6.88-1.81,7.92-1.7,1.04-13.27-22.32-13.27-22.32,0,0-3-6.86-3.81-9.21-.69-2.01-2.29-8.19-2.29-8.19,0,0-3.43-9.94-6.11-8.92-3.28,1.24,6.57,34.76,5.03,35.54-1.88.95-8.53-11.72-8.53-11.72,0,0-1.74-6.69-3.42-9.26-.37-4.3-3.9-11.43-7.08-9.98-.58.27,1.25,10.84,1.25,10.84,0,0,1.84,6.3,2.53,9.37,1.21,5.4,5.32,12.45,6.43,16.03.92,2.98-.33,2.35-.53,2.64-.16.23-1.98-3.51-4.57-8.59-1.3-2.56-3.34-5.15-4.38-8.36-.97-2.98-2.89-6.87-4.11-9.18-3.45-6.55-7.02-3.21-4.82,3.42.84,2.52,1.78,5.27,2.74,8.04,3.74,10.79,9.45,19.75,8.48,20.51-1.26,1-10.69-15.98-10.69-15.98,0,0-7.73-7.69-4.46,2.1,3.8,11.36,10.13,18.73,10.38,19.06,1.71,2.24,5.47,11.49,12.66,18.33,7.19,6.84,18.61,19.83,19.25,21.13Z"/>
      <path class="cls-3" d="m2167.05,556.32l-26.88,1.06s1.02,10.19,12.86,10.06c14.43-.15,14.02-11.12,14.02-11.12Z"/>
    </g>
    <g>
      <rect class="cls-22" x="213.1" y="1310.98" width="443.79" height="347"/>
      <path class="cls-20" d="m663.02,1296.25H196.58c-8.14,0-14.73,6.6-14.73,14.73h0c0,8.13,6.59,14.73,14.73,14.73h466.44c8.13,0,14.73-6.59,14.73-14.73h0c0-8.13-6.59-14.73-14.73-14.73Z"/>
      <rect class="cls-22" x="1120.87" y="1403.04" width="448" height="254.94"/>
      <path class="cls-20" d="m1581.18,1388.31h-466.44c-8.14,0-14.73,6.59-14.73,14.73h0c0,8.14,6.59,14.73,14.73,14.73h466.44c8.14,0,14.73-6.59,14.73-14.73h0c0-8.13-6.59-14.73-14.73-14.73Z"/>
      <rect class="cls-16" x="656.89" y="1207.6" width="463.99" height="450.38"/>
      <rect class="cls-20" x="874.15" y="1322.95" width="29.46" height="151.9"/>
      <g>
        <rect class="cls-20" x="380.7" y="1398.9" width="29.46" height="151.9"/>
        <rect class="cls-20" x="439.62" y="1398.9" width="29.46" height="151.9"/>
      </g>
      <g>
        <rect class="cls-20" x="1279.22" y="1444.93" width="29.46" height="151.9"/>
        <rect class="cls-20" x="1338.14" y="1444.93" width="29.46" height="151.9"/>
        <rect class="cls-20" x="1397.06" y="1444.93" width="29.46" height="151.9"/>
      </g>
      <path class="cls-20" d="m1122.1,1178.14h-466.44c-8.13,0-14.73,6.59-14.73,14.73h0c0,8.13,6.59,14.73,14.73,14.73h466.44c8.14,0,14.73-6.59,14.73-14.73h0c0-8.13-6.59-14.73-14.73-14.73Z"/>
    </g>
    <g>
      <g>
        <path class="cls-23" d="m926.57,541.75s-48.89-6.49-66.72,2.74c-17.84,9.23-27.6,119.07-27.6,119.07l15.84,4.81s-2.25,76.06,9.85,81.35c12.1,5.28,97.14-11.11,116.53-30.5,19.39-19.39-17.11-181.52-17.11-181.52l-30.78,4.05Z"/>
        <g>
          <path class="cls-2" d="m1023.07,464.18c5.69-12.79,12.86-52.48,15.26-65.97-.56-1.05-3.5-7.27-1.89-18.61,1.14-8.02-3.06-21.94,2-20.48,5.06,1.46,3.83,15.45,7.18,13.38,3.35-2.07,7.6-3.87,13.95-3.18,3.51.38,6.21,4.18,9.69,5.18,3.48,1,6.8,3.65,6.91,6.53.26,6.77-11.89,21.18-12.76,28.44h0c.2,18.66.96,52.5-7.24,72.84-10.03,24.88-34.8,79.9-34.8,79.9l-38.7-13.71s33.64-69.15,40.39-84.31Z"/>
          <path class="cls-1" d="m1049.41,378.37c1.86,1.09,3.34,2.61,4.59,4.31.12.33,4.57,5.54,2.49,13.01-.37-4.75-.8-10.02-7.08-17.32Z"/>
        </g>
        <path class="cls-2" d="m775.27,551.61s1.7-6.28-2.55-16.72c-2.73-6.7-2.37-19.71-6.23-17.31-3.86,2.39.28,14.25-2.96,13.21-3.24-1.05-13.5-25.25-17-23.08-3.5,2.17,7.64,24.38,4.74,23.44-2.9-.94-10.92-22.31-15.87-19.24-4.95,3.06,11.67,24.25,9.01,25.9-2.66,1.64-12.8-11.99-16.79-9.52-3.99,2.47,14.7,17.95,12.99,17.4-1.7-.55-13.82-5.11-14.66-2.69-.95,2.73,24.2,13.74,26.54,19.84,2.33,6.1,40.89,68.64,53.67,70.04,12.78,1.41,74.4-31.28,79.92-43.47,5.53-12.19,1.77-26.15-6.41-28.8-8.18-2.65-65.87,30.14-68.44,29.31-2.57-.83-35.96-38.29-35.96-38.29Z"/>
        <path class="cls-1" d="m764.08,535.17c-1.45,1.59-2.41,3.49-3.1,5.48-.02.35-2.72,6.65,1.5,13.16-1.06-4.64-2.22-9.8,1.6-18.64Z"/>
        <path class="cls-2" d="m826.29,847.42c-6.88-1.33-20.46-11.61-20.46-11.61-13.51,13.94-39.76,55.14-39.76,55.14,0,0,6.47,3.21,11.17.2,4.7-3.01,26.34-16.69,37.63-14.5,2.94.57,35.85,6.7,64.69,9.86,1.99-10.47-10.29-29.05-6.99-39.08-15.54-2.69-44.01.44-46.29,0Z"/>
        <path class="cls-25" d="m818.03,843.87s-23.26,31.81-25.21,37.14c-1.59,4.34-33.45,23.06-35.89,18.13-2.44-4.93,31.55-66.39,37.88-69.37,6.33-2.98,23.22,14.09,23.22,14.09Z"/>
        <path class="cls-2" d="m998.45,925.12c-2.31,6.41-14.73,18.1-14.73,18.1,12.48,14.68,51.23,44.99,51.23,44.99,0,0,4.18-5.79,1.74-10.66-2.45-4.87-14.84-35.19-11.05-45.71.99-2.74,8.22-23.15,15.02-34.68-10.48-3.22-20.77-8.19-30.63-12.6-4.89,14.52-10.82,38.44-11.59,40.57Z"/>
        <path class="cls-7" d="m994.12,706.75s71.72,70.81,79.03,84.48c5.46,10.21-31.2,119.74-31.2,119.74,0,0-27.56-6.94-40.57-19.49,0,0,16.46-73.23,13.05-76.52-3.42-3.3-85.37-50.84-85.37-50.84l10.18-43.4,54.89-13.96Z"/>
        <path class="cls-20" d="m978.3,704.88s-18.73,43.47-18.73,60.42c0,12.98,5.74,117.01-21.68,127.04-15.56,5.69-88.81-2.71-88.81-2.71l6.64-47.1s34.88,5.18,37.94,2.22c3.06-2.95-27.93-81.4-21.47-108.31,6.47-26.91,60.23-43.32,60.23-43.32l45.88,11.75Z"/>
        <path class="cls-16" d="m1001.54,502.9s8.74,2.62,35.66,39.2l-43.21,68.31-26.33-63.48,33.88-44.03Z"/>
        <path class="cls-16" d="m938.55,547.56s23.86-2.7,32.45-5.82c8.6-3.12,64.97,182.93,45.25,187.17-41.18,8.84-148.16,32.41-148.16,32.41,0,0-1.86-10.63,3.9-28.99,9.99-31.8,15.65-104.56,15.65-117.38,0-7.54-39.03,18.59-39.03,18.59l-16.36-59.11s49.83-20.01,67.3-23.61c4.87-1,39.01-3.25,39.01-3.25Z"/>
        <path class="cls-23" d="m1012.86,666.99c-6.27-30.37-59.64-121.49-60.1-122.35l10.95-5.86c1.92,3.58,45.1,80.62,51.73,112.74l-2.59,15.48Z"/>
        <path class="cls-25" d="m994.17,931.96s31.09,28.36,36.71,31.1c4.59,2.23,15.19,35.79,9.36,37.64-5.83,1.85-63.54-39.74-65.91-46.69-2.37-6.94,19.83-22.05,19.83-22.05Z"/>
        <path class="cls-23" d="m871.56,706.9l-5.59-8.9c.47-.3,47.68-30.43,53.01-68.89,5.38-38.85-22.01-79.68-22.29-80.08l8.68-5.92c1.23,1.8,29.95,44.53,24.01,87.44-6,43.33-55.71,75.02-57.83,76.35Z"/>
        <path class="cls-4" d="m939.21,423.16s18.87-6.84,31.07,12.28c12.2,19.12,5.6,17.31,11.54,26.87,5.93,9.56,21.43,7.58,21.43,22.42s-6.92,17.14-6.92,17.14c0,0,6.26,11.54-.66,23.4-6.92,11.87-24.18,22.09-38.63,20.44,0,0-21.7,11.89-43.45,6.28-21.76-5.62-14.18-5.62-23.08-5.62s-32.96-12.2-29.01-30c0,0-14.66-17.42-.44-31.65,14.23-14.23,16.92-28.68,25.16-47.8,8.24-19.12,43.1-18.38,52.99-13.76Z"/>
        <path class="cls-2" d="m951.82,524.94s-.79,26.25,1.67,28.72c2.46,2.47,5.91,6.55,2.28,12.82-3.63,6.26-19.37,2.27-26.7-1.32-7.04-3.44-11.58-9.84-11.58-9.84l3.67-41.58,30.66,11.21Z"/>
        <path class="cls-6" d="m941.36,535.82c-5.05-1.77-13.89-5.19-20.7-16.26l.51-5.82,30.66,11.21s-.19,6.4-.09,13.18c-4.3-.18-7.96-1.46-10.37-2.31Z"/>
        <path class="cls-2" d="m915.76,484.05s-.74-15.43-10.22-12.44c-9.48,3-2.26,26.29,5.6,25.53,7.86-.76,4.62-13.09,4.62-13.09Z"/>
        <path class="cls-2" d="m945.56,433.63s14.83-.33,22.42,11.21c7.58,11.54,15.82,44.5,3.3,67.25-12.53,22.75-28.51,17.14-35.11,14.83-6.59-2.31-19.61-7.42-26.21-28.68-6.59-21.26-1.81-69.06,35.6-64.61Z"/>
      </g>
      <g>
        <path class="cls-12" d="m1076.57,284.71c.18.85.39,1.73.28,2.56-.32,1.16-.59,2.32-.81,3.49.42-.22.84-.44,1.28-.63,4.3-1.93,8.98-2.21,13.18-.79,3.75,1.27,6.63,3.77,8.09,7.03,1.46,3.26,1.42,7.07-.13,10.72-1.73,4.08-5.06,7.39-9.36,9.32-4.29,1.92-8.96,2.21-13.15.8.07.74.14,1.47.21,2.2-1.12,1.39-1.36,3.57-.46,5.59,1.2,2.69,3.98,4.06,6.21,3.06,1.75-.78,2.63-2.8,2.34-4.93,2.35-.24,4.72-.85,7.02-1.88,10.71-4.8,15.78-16.75,11.33-26.68-4.26-9.49-15.68-13.7-26.03-9.86Z"/>
        <path class="cls-12" d="m989.6,323.71c.52.7,1.03,1.44,1.73,1.91,1.08.53,2.12,1.1,3.15,1.72-.44.16-.89.34-1.32.53-4.3,1.93-7.63,5.24-9.36,9.32-1.55,3.65-1.6,7.45-.13,10.72,1.46,3.26,4.34,5.76,8.09,7.03,4.2,1.42,8.88,1.14,13.18-.79,4.29-1.92,7.61-5.22,9.34-9.29.5.54,1,1.08,1.5,1.62,1.78.08,3.58,1.36,4.48,3.38,1.2,2.69.38,5.67-1.85,6.67-1.75.78-3.84.1-5.24-1.53-1.74,1.6-3.77,2.96-6.07,3.99-10.71,4.8-23,.64-27.46-9.29-4.26-9.49.2-20.82,9.95-26Z"/>
        <path class="cls-16" d="m1078.44,281.41l2.23,4.96c10.06,22.44.02,48.79-22.41,58.85-10.4,4.5-17.01,8.74-28.77,8.8-16.92.14-33.46-9.5-41-26.32l-2.23-4.96,92.18-41.33Z"/>
        <path class="cls-14" d="m1029.49,354.02h.04l-4.31-48.74-15.2,6.82,3.46,39.08c5.11,1.92,10.54,2.9,16.02,2.85Z"/>
        <path class="cls-14" d="m1040.27,352.61l-4.78-51.94-7.64,3.42,4.59,49.82c2.85-.2,5.41-.66,7.83-1.31Z"/>
        <path class="cls-14" d="m1011.3,350.29l-2.95-37.45-3.63,1.63,2.67,33.88c1.27.71,2.58,1.36,3.91,1.94Z"/>
        <path class="cls-16" d="m1073.16,280.4l-83.9,37.62c-3.06,1.37-4.79,4.2-4.01,6.42l95.37-42.76c-1.14-2.07-4.4-2.65-7.46-1.28Z"/>
        <polygon class="cls-16" points="1036.69 353.47 1052.36 375.71 1073.12 366.4 1068.07 339.4 1036.69 353.47"/>
        <polygon class="cls-6" points="1068.07 339.4 1069.21 345.49 1040.23 358.49 1036.69 353.47 1068.07 339.4"/>
        <polygon class="cls-16" points="1092.52 393.91 1061.13 407.99 1058.06 394.83 1054.95 381.49 1075.71 372.18 1084.18 383.12 1092.52 393.91"/>
        <polygon class="cls-6" points="1092.52 393.91 1061.13 407.99 1058.06 394.83 1084.18 383.12 1092.52 393.91"/>
        <path class="cls-14" d="m1048.67,370.78h30.73c1.35,0,2.45,1.1,2.45,2.45v1.42c0,1.35-1.1,2.45-2.45,2.45h-30.73c-1.35,0-2.45-1.1-2.45-2.45v-1.42c0-1.35,1.1-2.45,2.45-2.45Z" transform="translate(-59.87 468.04) rotate(-24.15)"/>
        <g>
          <path class="cls-16" d="m1094.09,391.23l-37.07,16.62-2.99-6.66c-.32-.72,0-1.56.72-1.88l34.48-15.46c.72-.32,1.56,0,1.88.72l2.99,6.66Z"/>
          <path class="cls-16" d="m1108.48,390.49l1.09,2.42-61.58,27.61-1.09-2.42c-1.25-2.79-.56-5.82,1.53-6.76l53.98-24.2c2.1-.94,4.82.56,6.07,3.35Z"/>
          <polygon class="cls-14" points="1059.13 406.55 1060.53 414.89 1057.96 416.05 1056.56 407.7 1059.13 406.55"/>
          <polygon class="cls-14" points="1055.45 408.2 1056.85 416.54 1054.28 417.7 1052.88 409.35 1055.45 408.2"/>
          <polygon class="cls-14" points="1062.4 405.08 1063.8 413.43 1061.23 414.58 1059.83 406.23 1062.4 405.08"/>
        </g>
        <g>
          <path class="cls-16" d="m1157.29,437.94l1.09,2.42-103.19,46.26-1.09-2.42c-1.25-2.79.59-6.33,4.1-7.91l90.45-40.55c3.52-1.58,7.38-.59,8.63,2.2Z"/>
          <polygon class="cls-14" points="1076.13 468.25 1076.21 477.19 1071.91 479.12 1071.82 470.19 1076.13 468.25"/>
          <polygon class="cls-14" points="1069.96 471.02 1070.05 479.96 1065.74 481.89 1065.66 472.95 1069.96 471.02"/>
          <polygon class="cls-14" points="1081.61 465.8 1081.7 474.74 1077.38 476.67 1077.3 467.73 1081.61 465.8"/>
        </g>
        <path class="cls-16" d="m1076.6,330.04l.82,1.83c1.42,3.16,0,6.87-3.15,8.29l-41.33,18.53c-3.16,1.42-6.87,0-8.29-3.16l-.82-1.83,52.78-23.67Z"/>
        <polygon class="cls-23" points="1140.7 439.3 1063.05 474.12 1041.47 423.44 1117.13 389.52 1140.7 439.3"/>
        <polygon class="cls-10" points="1122.24 447.58 1081.52 465.84 1059.48 415.37 1099.16 397.58 1122.24 447.58"/>
      </g>
      <path class="cls-2" d="m1081.58,379.76s-2-2.7-5.71-2.89c-10.68-.54-13.05-.85-14.19-2.27-2.14-2.64,12.19-3.86,12.07-4.46-.43-2.07-18.09.98-19.14-2.17-.39-1.19.64-2.22,6.6-3.76,4.71-1.22,10.83-1.29,10.16-2.65-.67-1.35-20.74,3.75-19.61.42,1.13-3.33,14.48-8.47,20.76-6.33,6.29,2.14,12.58,16.51,9.06,24.1Z"/>
    </g>
  </g>
</svg>