<?xml version="1.0" encoding="UTF-8"?>
<svg xmlns="http://www.w3.org/2000/svg" viewBox="0 0 3000 2000">
  <defs>
    <style>
      .cls-1 {
        fill: #733602;
      }

      .cls-2 {
        fill: #94503c;
      }

      .cls-3 {
        fill: #fff;
      }

      .cls-4 {
        fill: #267fbf;
      }

      .cls-5 {
        fill: #4c4c4c;
      }

      .cls-6 {
        fill: #b86953;
      }

      .cls-7 {
        fill: #ef1c25;
      }

      .cls-8 {
        fill: #ffe0e5;
      }

      .cls-9 {
        fill: #e37d42;
      }

      .cls-10 {
        fill: #ff9475;
      }

      .cls-11 {
        opacity: .5;
      }

      .cls-11, .cls-12 {
        mix-blend-mode: soft-light;
      }

      .cls-11, .cls-12, .cls-13 {
        fill: #0d0d0d;
      }

      .cls-14 {
        isolation: isolate;
      }

      .cls-15 {
        fill: #f06546;
      }

      .cls-16 {
        fill: #303030;
      }

      .cls-17 {
        fill: #f58295;
      }

      .cls-18 {
        fill: #f13005;
      }

      .cls-19 {
        fill: #ffe3db;
      }

      .cls-20 {
        fill: #ffacba;
      }

      .cls-21 {
        fill: #f24a30;
      }

      .cls-22 {
        fill: #333;
      }

      .cls-23 {
        fill: #f9b390;
      }

      .cls-24 {
        fill: #e6e6e6;
      }

      .cls-25 {
        fill: #ff9273;
      }

      .cls-12 {
        opacity: .6;
      }

      .cls-26 {
        fill: #de3adc;
      }

      .cls-27 {
        fill: gray;
      }

      .cls-28 {
        fill: #f04896;
      }

      .cls-29 {
        fill: #b8b8b8;
      }

      .cls-30 {
        fill: #522601;
      }

      .cls-31 {
        fill: #f9856b;
      }

      .cls-32 {
        fill: #ffa88f;
      }

      .cls-33 {
        fill: #0e0e0e;
      }

      .cls-34 {
        fill: #ebebeb;
      }

      .cls-35 {
        fill: #2b8dd4;
      }

      .cls-36 {
        fill: #def0fc;
      }

      .cls-37 {
        fill: #cc735a;
      }

      .cls-38 {
        fill: #61331b;
      }

      .cls-39 {
        fill: #e3895d;
      }

      .cls-40 {
        fill: #f14d68;
      }

      .cls-41 {
        fill: #1c5f8f;
      }

      .cls-42 {
        fill: #f66550;
      }

      .cls-43 {
        fill: #99512a;
      }

      .cls-44 {
        fill: #f2f2f2;
      }
    </style>
  </defs>
  <g class="cls-14">
    <g id="BG">
      <rect class="cls-3" width="3000" height="2000"/>
    </g>
    <g id="back">
      <path class="cls-36" d="m514.42,348.96c-164.21,105.46-325.76,282.49-207.35,546.95,81.06,181.03-161.25,413.72,43.94,587.83,151.55,128.59,909.33,34.9,1015.77-182.36,149.6-305.39-105.33-373.79-186.12-713.33-85.93-361.13-498.58-346.77-666.24-239.1Z"/>
      <path class="cls-36" d="m2340.96,1599c165.95-74.41,336.03-210.94,263.58-471.07-49.59-178.07,207.43-307.08,104.81-528.38-134.47-289.97-948.85-337.7-1085.44,22.38-83.07,218.98,246.19,294.72,212.33,623.91-35.39,344.13,335.28,429.13,504.72,353.16Z"/>
    </g>
    <g id="male_couple" data-name="male couple">
      <g>
        <g>
          <g>
            <g>
              <polygon class="cls-32" points="925.74 1597.18 927.31 1655.06 974.93 1655.06 978.23 1597.52 925.74 1597.18"/>
              <polygon class="cls-32" points="1106.38 1595.79 1117.14 1653.68 1169.57 1653.68 1161.9 1596.14 1106.38 1595.79"/>
              <g>
                <g>
                  <polygon class="cls-20" points="897.03 1080.32 925.74 1590.07 981.65 1590.42 1024.19 1080.32 897.03 1080.32"/>
                  <polygon class="cls-20" points="1163.27 1599 1115.28 1082.57 989.53 1082.57 1102.43 1599 1163.27 1599"/>
                </g>
                <path class="cls-17" d="m980.6,1189.45s31.41,6.68,70.84-4.68c-38.11,25.56-70.84,4.68-70.84,4.68Z"/>
                <path class="cls-17" d="m937.47,1167.12c-5.78,18.11-17.71,31.92-33.65,41.85v4.59c32.99-12.67,42.25-42.06,42.25-42.06l-8.6-4.38Z"/>
                <path class="cls-17" d="m1091.41,1156.56l-8.6,4.38s11.91,30.38,44.9,43.05l-1.22-4.97c-15.93-9.92-29.3-24.34-35.08-42.46Z"/>
              </g>
              <g>
                <path class="cls-28" d="m920.84,1623.29c-4.53,10.25-16.09,14.17-39.1,18.11-24.8-1.88-36.49,25.36-24.09,36.75h122.55c1.9-8.32.18-32.32-1.11-44.16-10.69,7.03-21.91,5.72-33.52,1.29,8.55-20.93-22.94-24.36-24.72-11.99Z"/>
                <path class="cls-24" d="m881.74,1641.39s20.77,1.42,22.19,24.54h80.03v13.87h-131.3s-3.14-12.45,1.84-25.96,25.48-12.7,27.25-12.45Z"/>
                <g>
                  <path class="cls-44" d="m929.96,1637.56h0c-.41.89-1.46,1.28-2.35.87l-18.01-8.26c-.89-.41-1.28-1.46-.87-2.35h0c.41-.89,1.46-1.28,2.35-.87l18.01,8.26c.89.41,1.28,1.46.87,2.35Z"/>
                  <path class="cls-44" d="m922.87,1642.35h0c-.41.89-1.46,1.28-2.35.87l-18.01-8.26c-.89-.41-1.28-1.46-.87-2.35h0c.41-.89,1.46-1.28,2.35-.87l18.01,8.26c.89.41,1.28,1.46.87,2.35Z"/>
                  <path class="cls-44" d="m914.32,1645.87h0c-.41.89-1.46,1.28-2.35.87l-18.01-8.26c-.89-.41-1.28-1.46-.87-2.35h0c.41-.89,1.46-1.28,2.35-.87l18.01,8.26c.89.41,1.28,1.46.87,2.35Z"/>
                </g>
              </g>
              <g>
                <path class="cls-28" d="m1195.15,1638.89c-14.14-3.3-20.01-8.74-23.53-16.72-1.79-12.37-38.89-7.08-30.34,13.85-11.61,4.43-17.22,3.88-27.91-3.15-1.29,11.84-3.01,35.84-1.11,44.16,0,0,38.93,0,84.83,0l-1.95-38.14Z"/>
                <path class="cls-24" d="m1184.5,1639.88s-24.62,1.82-26.04,24.94h-49.96v13.87h112.27c7.17-23.19-18.54-45.81-36.27-38.81Z"/>
                <path class="cls-44" d="m1166.06,1640.34h0c.21.95,1.16,1.56,2.11,1.36,5.11-4.04,11.72-5.13,19.36-4.21.95-.21,1.56-1.16,1.36-2.11h0c-.21-.95-1.16-1.56-2.11-1.36-6.96-.45-13.51.59-19.36,4.21-.95.21-1.56,1.16-1.36,2.11Z"/>
                <path class="cls-44" d="m1158.42,1635.74h0c.21.95,1.16,1.56,2.11,1.36,5.11-4.04,11.72-5.13,19.36-4.21.95-.21,1.56-1.16,1.36-2.11h0c-.21-.95-1.16-1.56-2.11-1.36-6.96-.45-13.51.59-19.36,4.21-.95.21-1.56,1.16-1.36,2.11Z"/>
                <path class="cls-44" d="m1151.85,1631.16h0c.21.95,1.16,1.56,2.11,1.36,5.11-4.04,11.72-5.13,19.36-4.21.95-.21,1.56-1.16,1.36-2.11h0c-.21-.95-1.16-1.56-2.11-1.36-6.96-.45-13.51.59-19.36,4.21-.95.21-1.56,1.16-1.36,2.11Z"/>
              </g>
              <path class="cls-8" d="m921.69,1586.97c-.02-.29,64.63,0,64.63,0v13.88l-64.63,1.38v-15.26Z"/>
              <path class="cls-8" d="m1098.16,1594.66c-.02-.29,67.86,0,67.86,0l1.44,14.57-67.86,1.38-1.44-15.95Z"/>
            </g>
            <path class="cls-32" d="m918.31,813.8c-51.67,31.53-150.13,99.8-149.18,95.97s-84.73-87.3-123.65-135.89l-32.6,14.76c27.7,54.28,93.55,158.5,126.02,187.19,39.7,35.08,160.01-54.86,207.89-82.29l-28.48-79.75Z"/>
            <path class="cls-28" d="m911.55,813.12c-33.01,12.75-76.19,40.39-112.96,70.98,3.83,34.42,19.24,61.91,44.51,83.5l91.64-43.22c33.41-24.78,41.72-115.07-23.19-111.26Z"/>
            <path class="cls-3" d="m798.84,883.56s-6.13,25.41,13.99,56.09c20.11,30.68,35.84,36.19,35.84,36.19l7.37-7.5.82-7.29s-21.92-18.59-34.77-42.68c-16.6-31.14-6.45-47.03-6.45-47.03,0,0-9.46-3.85-16.81,12.22Z"/>
            <path class="cls-28" d="m1064.22,816.93c-63.46-26.38-139.62-12.66-162.68,11.73l-5.94,312.68c36.05,19.27,182.75,8.97,232.12-20.06-23.2-124.55-37.33-191.89-63.49-304.35Z"/>
            <rect class="cls-26" x="856" y="954.13" width="86.28" height="2.29" transform="translate(-68.35 1841.26) rotate(-89.22)"/>
            <g>
              <g>
                <path class="cls-32" d="m1035,905.02s97.13,110.55,98.08,115.98c.95,5.43,34.79,146.88,34.79,146.88l30.91-3.16s9.27-133.43-23.12-181.21c-25.52-52.32-80.95-144.23-80.95-144.23-22.86-39.24-99.77,16.52-59.71,65.73Z"/>
                <path class="cls-28" d="m1059.34,814.16s36.51,4.46,101.41,103.98c-57.6,53.31-70.89,55.8-70.89,55.8,0,0-89.13-83.81-77.09-126.76,12.04-42.94,46.57-33.03,46.57-33.03Z"/>
              </g>
              <path class="cls-32" d="m1165.69,1163.55s-25.48,35.6-9.27,44.77c9.07,5.13,6.4-17.65,10.67-13.98s-.07,47.21,25.99,38.33,12.69-54.43,5.17-74.88c-7.52-20.45-35.62-8.29-32.55,5.76Z"/>
              <path class="cls-3" d="m1090.62,978.28s25.38,2.2,53.91-20.86c23.63-19.1,23.35-33.02,23.35-33.02-.98-8.61-7.36-11.51-10.65-12.27,0,0-13.07,22.71-35.38,38.45-28.83,20.35-45.86,12.25-45.86,12.25,0,0-2.24,10.15,14.62,15.44Z"/>
            </g>
            <path class="cls-3" d="m941.98,818.31c-10.11,6.04-21.47,21.11,0,38.19,21.47,17.09,98.86-13.57,92.83-40.7-6.03-27.14-82.71-3.53-92.83,2.51Z"/>
            <g>
              <path class="cls-32" d="m944.89,832.03l-1.1-9.33-3.89-33.43-5.17-44.18,51.91-17.2,32.7,85.02c5.26,33.2-77.24,48.84-74.45,19.12Z"/>
              <path class="cls-11" d="m984.09,764.57s-23.42,45-40.29,58.13l-3.89-33.43,44.18-24.7Z"/>
            </g>
            <g>
              <g>
                <path class="cls-32" d="m900.54,688.42c-15.15,30.69-14.78,77.48,21.08,95.46,35.86,17.97,82.21-5.1,103.17-46.92,20.96-41.82,8.87-90.29-26.99-108.26s-86.24,8.16-97.26,59.73Z"/>
                <path class="cls-1" d="m932.94,724.53c-.08,0-.16-.02-.24-.05-.33-.13-8.11-3.33-8.27-9.61-.13-4.78,5.23-4.97,8.77-5.1,1.09-.04,2.32-.08,2.8-.28l3.83-7.21c.16-.31.55-.42.85-.26.31.16.42.55.26.85l-3.99,7.51-.13.09c-.66.45-1.88.49-3.57.55-4.19.15-7.64.54-7.56,3.81.14,5.45,7.41,8.44,7.48,8.47.32.13.48.5.35.82-.1.25-.34.4-.59.4Z"/>
                <path class="cls-30" d="m926.17,692.06l-1.94-.94c.82-1.69,1.27-3.49,1.23-4.95-.03-1.21-.38-2.07-.96-2.35-1.26-.61-3.91,1.28-5.58,4.71l-1.94-.94c2.2-4.53,5.84-6.99,8.47-5.71,1.35.66,2.12,2.16,2.18,4.23.05,1.82-.46,3.94-1.45,5.95Z"/>
                <path class="cls-30" d="m983.18,712.84l-1.94-.94c.82-1.69,1.27-3.49,1.23-4.95-.03-1.21-.38-2.07-.96-2.35-1.25-.61-3.91,1.28-5.58,4.71l-1.94-.94c2.2-4.53,5.85-6.99,8.47-5.71,1.35.66,2.12,2.16,2.18,4.23.05,1.82-.46,3.94-1.45,5.95Z"/>
                <path class="cls-1" d="m950.59,753.54c-18.17,0-31.68-12.08-31.87-12.25-.26-.23-.27-.63-.04-.89.24-.26.64-.27.89-.04.27.25,27.43,24.49,56.24,3.1.28-.21.68-.15.88.13.21.28.15.68-.13.88-9.07,6.73-17.97,9.07-25.97,9.07Z"/>
              </g>
              <path class="cls-13" d="m902.97,679.31s3.33-31.07,43.39-32.56c-4.45,9.53-16.95,17.09-30.52,24.39,0,0,35.57,5.3,59.37-10.69-2.1,10.71-15.39,20.03-15.39,20.03,0,0,25.97,7.48,39.43-4.58-1.2,22.08,17.04,51.06,9.36,84.67,37.97-29.38,53.91-39.78,58.95-70.41,7.23-43.92-41.02-81.2-82.96-88.24-76.08-15.42-102.76,32.09-81.62,77.4Z"/>
              <path class="cls-32" d="m999.38,721.87c-1.5,7.49,3.36,14.78,10.85,16.28,7.49,1.5,14.78-3.36,16.28-10.85,1.5-7.49-3.36-14.78-10.85-16.28-7.49-1.5-14.78,3.36-16.28,10.85Z"/>
              <path class="cls-10" d="m925.1,707.53c-.65,3.32-6.98,4.88-14.12,3.48s-12.41-5.23-11.76-8.56c.65-3.32,6.98-4.88,14.12-3.48,7.15,1.4,12.41,5.23,11.76,8.56Z"/>
              <path class="cls-10" d="m989.17,727.77c-.65,3.32-7.24,4.83-14.72,3.36-7.48-1.47-13.02-5.35-12.36-8.67.65-3.32,7.24-4.83,14.72-3.36,7.48,1.47,13.02,5.35,12.36,8.67Z"/>
            </g>
          </g>
          <g>
            <path class="cls-38" d="m723.31,438.14s53.12-4.55,74.18,39.51c21.06,44.06,4.17,51.66,27.44,70.49,25.51,20.64,19.24,60.18,10.03,69.02-12.01,11.52-22.04,9.82-22.05,29.28-.01,23.94-35.43,38.85-77.18,37.34-41.74-1.5-113.63-18.23-107.25-41.75,6.38-23.52-6.47-28.9-13.27-40.72-6.8-11.82-4.91-26.77,12.61-41.34,17.52-14.57,22.25-61.14,23.99-66.11,1.74-4.97,19.03-56.99,71.5-55.72Z"/>
            <g>
              <g>
                <path class="cls-40" d="m740.88,604.26c48.26-27.93,111.27-62.94,126.73-62.56l15.67,23.73c-5.83,20.99-71.25,66.66-116.6,106.94-42.53,4.5-49.79-55.9-25.8-68.12Z"/>
                <path class="cls-3" d="m888.21,560.91s-1.4,6.69-5.81,6.91c-10.18-6.7-18.11-25.8-18.11-25.8,0,0,2.28-4.44,8.22-3.64,2.72,5.37,15.69,22.53,15.69,22.53Z"/>
                <path class="cls-23" d="m892.32,560.83s28.69-1.32,24.75-21.94c-3.94-20.62-20.98-27.35-30.67-22.83s-13.64,21.74-13.64,21.74c0,0,8.92,25.07,19.56,23.04Z"/>
                <path class="cls-9" d="m905.66,557.01c-2.43,0-5.08-.74-7.47-2.15-3.14-1.86-8.66-6.58-10.32-17.38-2.54-16.53,3.84-20.66,4.12-20.83.35-.22.81-.11,1.03.25.22.35.11.81-.25,1.03-.05.03-5.79,3.9-3.42,19.33,1.16,7.55,4.57,13.34,9.6,16.32,3.22,1.9,6.91,2.46,9.65,1.46.39-.14.82.06.96.45.14.39-.06.82-.45.96-1.05.39-2.23.57-3.46.57Z"/>
                <path class="cls-23" d="m872.76,537.79s2.21-25.47,11.72-24.26c9.51,1.22,18.94,17.23,14.05,22.68-4.89,5.44-13.35-7.41-13.35-7.41,0,0,5.45,10.66,2.08,19.55-3.38,8.88-14.77-8.11-14.49-10.56Z"/>
                <path class="cls-9" d="m887.25,549.09c-.12,0-.24-.03-.35-.09-.36-.19-.5-.65-.31-1.01,2.87-5.4-2.07-18.8-2.12-18.94l-1.87-5.02,3.17,4.31c1.82,2.48,7.08,8.62,10.4,8.63.15,0,.3-.01.45-.04,1.03-.19,1.8-1.21,2.28-3.01,2.64-9.86-12.56-19.16-12.72-19.25-.35-.21-.47-.67-.25-1.03.21-.35.67-.47,1.03-.25.67.4,16.31,9.98,13.39,20.92-.64,2.41-1.81,3.79-3.45,4.1-3.16.6-7.19-3.15-9.79-6.06,1.33,4.62,2.98,12.26.8,16.35-.13.25-.39.4-.66.4Z"/>
              </g>
              <g>
                <path class="cls-40" d="m683.45,583.81c-24.44-50.11-57.16-114.35-70.19-122.66l-26.25,10.94c-6.88,20.67,21.88,95.09,37,153.83,32.77,27.48,72.51-18.57,59.44-42.1Z"/>
                <path class="cls-3" d="m585.44,465.57s-2.57,6.34.96,8.98c12.19.13,29.43-11.29,29.43-11.29,0,0,.59-4.95-4.79-7.61-5.26,2.94-25.6,9.93-25.6,9.93Z"/>
                <path class="cls-23" d="m582.08,463.2s-23.06-17.12-8.27-32.02c14.78-14.9,32.68-10.97,38.19-1.82,5.52,9.16-.83,25.65-.83,25.65,0,0-21.4,15.81-29.09,8.19Z"/>
                <path class="cls-9" d="m581.5,455c-.35,0-.67-.01-.97-.03-4.17-.25-7.98-2.08-9.94-4.79-.24-.33-.17-.8.17-1.04.33-.24.8-.17,1.04.17,1.71,2.36,5.09,3.96,8.82,4.18,5.84.35,11.9-2.56,17.08-8.17,10.58-11.47,7.98-17.89,7.95-17.95-.16-.38,0-.82.38-.98.38-.17.81,0,.98.37.13.29,3.12,7.28-8.22,19.58-6.79,7.37-13.43,8.68-17.3,8.68Z"/>
                <path class="cls-23" d="m611.17,455.02s12.39-22.37,3.82-26.67c-8.57-4.3-25.33,3.72-24.32,10.97s15.22,1.31,15.22,1.31c0,0-10.48,5.8-12.64,15.06-2.16,9.25,16.78,1.52,17.91-.67Z"/>
                <path class="cls-9" d="m593.25,456.43s-.05,0-.08,0c-.41-.04-.71-.41-.67-.82.48-4.61,6.11-10.03,9.79-13.11-3.78.96-9.22,1.82-11.5-.44-1.19-1.18-1.39-2.97-.58-5.33,3.68-10.71,22.01-9.92,22.79-9.88.41.02.73.37.71.78-.02.41-.37.73-.78.71-.18,0-17.98-.78-21.3,8.87-.61,1.77-.54,3.04.21,3.78,2.37,2.33,10.76.02,13.79-1.07l5.04-1.81-4.35,3.12c-.12.08-11.69,8.45-12.33,14.53-.04.38-.36.67-.74.67Z"/>
              </g>
              <path class="cls-40" d="m645.24,580.8l130.11,39.71c-13.4,52.93-19.57,140.99-42.58,143.3-31.03,3.11-77.24-11.56-138.88-42.39-19.72-27.28,51.19-140.58,51.34-140.63Z"/>
              <path class="cls-23" d="m688.72,586.18l6.75-28.76,46.76,14.27-6.75,28.76c-11.01,1.06-22.87,1.04-46.76-14.27Z"/>
              <path class="cls-3" d="m740.86,592.61s-10.83,6.14-30.3-.04c-19.47-6.18-19.05-13.38-19.05-13.38-4.41-6.22-11.86-.65-12.49,5.25,0,0,4.3,19.4,32.22,26.12,26.32,6.34,41.96-11.84,41.96-11.84,2.43-5.75-9.26-9.85-12.34-6.11Z"/>
              <g>
                <g>
                  <ellipse class="cls-38" cx="732.35" cy="505.71" rx="62.89" ry="66.13" transform="translate(81.33 1112.54) rotate(-77.61)"/>
                  <path class="cls-23" d="m673.45,512.08c-24.54,20.45,2.51,65.36,41.4,73.9,45.01,9.88,80.45-22.83,68.55-49.75,7.5-34.14-11.04-67.23-41.4-73.9-30.36-6.67-61.05,15.61-68.55,49.75Z"/>
                  <circle class="cls-23" cx="783.4" cy="536.23" r="12.93" transform="translate(-165.85 522.58) rotate(-33.57)"/>
                  <circle class="cls-23" cx="672.32" cy="511.83" r="12.93" transform="translate(-170.88 457.09) rotate(-33.57)"/>
                  <path class="cls-31" d="m756.37,546.77c-.61,2.79,2.87,5.92,7.77,7,4.9,1.08,9.38-.31,9.99-3.1.61-2.79-2.87-5.92-7.77-7-4.9-1.08-9.38.31-9.99,3.1Z"/>
                  <path class="cls-31" d="m677.01,529.34c-.61,2.79,2.87,5.92,7.77,7,4.9,1.08,9.38-.31,9.99-3.1s-2.87-5.92-7.77-7-9.38.31-9.99,3.1Z"/>
                  <path class="cls-5" d="m763.54,532.6c-.05,0-.1,0-.16-.02-.39-.09-.64-.48-.56-.87.82-3.73-.46-7.19-2.86-7.72-2.4-.52-5.01,2.08-5.83,5.81-.09.39-.48.64-.87.56-.39-.09-.64-.47-.56-.87.99-4.52,4.39-7.62,7.57-6.92,3.18.7,4.96,4.94,3.97,9.46-.07.34-.38.57-.71.57Z"/>
                  <path class="cls-5" d="m708.47,520.5c-.05,0-.1,0-.16-.02-.39-.09-.64-.48-.56-.87.82-3.73-.46-7.19-2.86-7.72-1.1-.24-2.31.19-3.4,1.22-1.16,1.1-2.02,2.73-2.43,4.59-.09.39-.48.64-.87.56-.39-.09-.64-.47-.56-.87.47-2.14,1.48-4.03,2.85-5.33,1.45-1.37,3.12-1.94,4.72-1.59,3.18.7,4.96,4.94,3.97,9.46-.07.34-.38.57-.71.57Z"/>
                  <path class="cls-31" d="m742.69,534.01s3.34,8.76-4.13,13.77c-2.46,1.65-7.72,1.69-12.26-3.56,3.56,1.94,7.24,2.33,9.95,1.05,6.11-2.9,6.43-11.25,6.43-11.25Z"/>
                  <path class="cls-38" d="m676.11,499.73c18.23-8.57,54.81-3.56,81.98,7.43,3.64-7.45,7.19-18,6.75-26.51,3.32,8.92.63,21.02-1.77,28.64,2.01.91,3.96,1.85,5.82,2.83,1.96-8.21,3.17-21.36.08-30.56,7.24,9.97,6.18,27.8,5.59,33.77,4.12,2.54,7.68,5.23,10.47,8.03l1.15.25s12.39-56.41-44.82-68.97c-53.94-11.85-65.24,45.1-65.24,45.1Z"/>
                </g>
                <path class="cls-7" d="m746.73,560.9s-17.32-3.46-54.52-15.15c0,0-2.67,22.49,22.5,28.83,19.68,4.95,32.02-13.68,32.02-13.68Z"/>
              </g>
            </g>
            <polygon class="cls-23" points="843.15 686.52 824.52 646.27 794.43 655.41 799.56 699.17 843.15 686.52"/>
            <path class="cls-16" d="m580.7,1668.26c30.03-207.76,52.78-415.94,72.04-576.34l-116.29-7.22-19.55,583.56h63.8Z"/>
            <path class="cls-16" d="m726.81,1668.26c15.08-196,37.91-460.48,26.65-624.99l-121.94,3.35,37.15,621.64h58.14Z"/>
            <path class="cls-3" d="m685.12,1209.87c-.12,0-.25,0-.37,0-10.06-.47-18.08-18.63-23.84-53.99-4.22-25.97-5.67-52.15-5.68-52.41-.03-.51.31-.96.8-1.09.49-.13,1,.11,1.22.57.11.22,10.8,22.43,20.16,46.16,12.68,32.16,16.95,51.73,12.68,58.19-1.12,1.69-2.83,2.57-4.98,2.57Zm-27.43-101.05c2.17,31.75,10.21,98.13,27.15,98.92,1.6.07,2.7-.44,3.48-1.61,7.29-11.03-17.77-69.89-30.63-97.31Z"/>
            <path class="cls-3" d="m633.86,1180.32c-.95,0-1.89-.33-2.79-.98-6.03-4.37-3.7-18.66,6.92-42.48,7.76-17.4,17.29-33.83,17.39-33.99.25-.44.79-.63,1.26-.47.48.16.78.64.71,1.15-.02.18-2.37,17.87-6.13,35.95-5.19,24.93-10.29,38.16-15.6,40.45-.58.25-1.17.37-1.75.37Zm20.6-71.5c-3.4,6.15-9.37,17.32-14.54,28.92-9.86,22.12-12.57,36.28-7.61,39.88.84.61,1.62.73,2.46.37,8.46-3.64,16.44-46.97,19.69-69.17Z"/>
            <g>
              <path class="cls-35" d="m708.93,771.1l102.81,15.28c-7.69-34.95-20.76-74.44-13.95-97.2l41.31-11.13c20.65,7.35,60.81,139.27,25.86,161.86-33.2,21.45-180.96,10.63-180.96,10.63-33.46-32.79-5.83-88.95,24.93-79.45Z"/>
              <path class="cls-4" d="m839.1,678.06c1.37-2.19-.37-7.6-2.36-8.66l-41.62,10.88c-1.73,1.81.08,8.91,2.68,8.91l41.31-11.13Z"/>
            </g>
            <g>
              <path class="cls-35" d="m592.59,755.62l-78.37-51.71c34.86-8.13,65.95-16.09,83.55-32.04l-7.76-42.07c-15.53-15.47-137.52,9.76-157.2,46.43-19.37,36.11,110.29,164.44,110.29,164.44,46.71-3.58,79.16-72.54,49.49-85.05Z"/>
              <path class="cls-42" d="m590,629.8c1.39-2.18,7.02-2.95,8.83-1.6l8.12,42.25c-.89,2.35-8.07,3.77-9.19,1.42l-7.76-42.07Z"/>
            </g>
            <rect class="cls-23" x="605.33" y="671.11" width="63.69" height="99.1" transform="translate(1280.11 1436.2) rotate(179.54)"/>
            <g>
              <path class="cls-35" d="m760.53,1075.89c2.41.79,2.58,18.21-.07,21.02,0,0-24.95,14.02-111.41,8.01-86.46-6.02-115.79-11.42-115.79-11.42l-2.95-24.07,230.22,6.46Z"/>
              <path class="cls-35" d="m547.09,817.7c-10.19,71.59-9.02,83.44-25.86,185.08-5.15,32.65,3.14,75.78,10.49,73.03,41.48,12.35,197.15,15.17,223.68,5.12,10.36-22.63,17.06-46.64,14.31-86.41-5.96-86.1-38.97-201.22-53.51-220.09-22.85-19.31-91.13-12.63-135.25-5.7,0,0-24.65-2.15-33.85,48.98Z"/>
              <g>
                <path class="cls-4" d="m575.44,771.83s2.57.91,7.13,2.18c.48.13.97.27,1.49.41,2.11.57,4.58,1.2,7.34,1.85.49.11.99.23,1.5.34,3.09.7,6.53,1.4,10.25,2.06.5.09,1.01.18,1.52.26,2.88.49,5.93.96,9.11,1.36.51.07,1.02.13,1.53.2,2.93.35,5.97.67,9.1.91.46.04.92.07,1.39.1,3.86.28,7.85.46,11.94.52.51,0,1.02.01,1.53.01,3.76.02,7.6-.07,11.5-.3.52-.03,1.03-.06,1.55-.1,3.66-.25,7.36-.61,11.09-1.11.51-.07,1.01-.14,1.52-.21,3.51-.51,7.05-1.15,10.58-1.93.5-.11,1-.22,1.5-.34,2.86-.67,5.72-1.42,8.57-2.29.49-.15.99-.3,1.48-.46,3.07-.97,6.13-2.06,9.16-3.28.48-.19.96-.39,1.44-.59,1.8-.75,3.59-1.56,5.37-2.41l-7.87-14.12c-1.89-3.39-5.78-5.15-9.57-4.34-24.43,5.26-67.44,6.27-92.43.84-3.93-.85-7.95,1.05-9.77,4.64l-7.98,15.77Z"/>
                <path class="cls-41" d="m687.08,755.49c1.03,3,6.32,11.87,9.16,16.53.48-.19.96-.39,1.44-.59-2.77-4.56-8.16-13.56-9.15-16.44-.14-.4-.58-.62-.98-.48-.4.14-.62.58-.48.98Z"/>
                <path class="cls-41" d="m582.57,774.01c.48.13.97.27,1.49.41,1.51-4.81,4.81-15.05,6.2-17.88.19-.38.03-.84-.35-1.03-.38-.19-.84-.03-1.03.35-1.46,2.96-4.79,13.32-6.31,18.15Z"/>
                <path class="cls-41" d="m688.07,778.02s0-.01-.01-.03c0,.02.01.03.01.03Z"/>
                <path class="cls-41" d="m688.03,777.9s0-.02-.01-.02c.02.04.03.07.04.09,0-.02-.01-.04-.02-.06,0,0,0,0,0,0Z"/>
                <path class="cls-41" d="m679.65,756.64c.51,1.59,1,3.19,1.49,4.78,1.12,3.66,2.23,7.33,3.38,10.97.36,1.12.71,2.25,1.09,3.37.49-.15.99-.3,1.48-.46-1.08-3.23-2.06-6.48-3.06-9.74-.97-3.16-1.91-6.33-2.93-9.47-.3-.95-1.75-.41-1.44.54Z"/>
                <path class="cls-41" d="m671.5,759.31c.21,1.84.47,3.67.78,5.5.78,4.59,1.86,9.14,3.25,13.58.5-.11,1-.22,1.5-.34,0-.03-.02-.06-.03-.1-1.91-6.12-3.23-12.42-3.97-18.79-.11-.98-1.65-.84-1.54.15Z"/>
                <path class="cls-41" d="m661.76,760.15c-.05,1.69-.05,3.39,0,5.08.13,5.14.7,10.26,1.68,15.3.51-.07,1.01-.14,1.52-.21-.17-.84-.32-1.68-.46-2.52-.97-5.88-1.37-11.84-1.2-17.8.01-.42-.47-.73-.84-.69-.45.04-.68.43-.7.84Z"/>
                <path class="cls-41" d="m650.48,765.77c-.27,5.33.75,10.66.3,15.98.52-.03,1.03-.06,1.55-.1.08-1.06.1-2.14.09-3.2-.05-5.76-1.17-11.62.28-17.29.1-.41-.24-.83-.63-.89-.43-.08-.79.23-.89.63-.41,1.6-.63,3.23-.71,4.88Z"/>
                <path class="cls-41" d="m637.76,766.38c-.35,5.21.02,10.43,0,15.65.51,0,1.02.01,1.53.01,0-.38,0-.75,0-1.13-.03-6.24-.53-12.54.5-18.72.18-.14.29-.36.27-.65-.02-.22-.04-.44-.06-.66-.08-.88-1.36-.9-1.53-.06-.36,1.83-.58,3.69-.71,5.56Z"/>
                <path class="cls-41" d="m628.37,760.08l-.13-.56c.47.02.95.04,1.42.06-1.24,2.47-1.57,5.33-2.02,8.02-.49,2.89-.9,5.8-1.24,8.71-.19,1.65-.36,3.3-.51,4.95-.04.42-.51.69-.89.63-.44-.08-.66-.48-.63-.89.52-5.86,1.27-11.74,2.44-17.51.32-1.57.73-3.13,1.46-4.57.27-.53,1.26-.62,1.42.06.04.19.09.37.13.56.1.41-.03.84-.45.99-.35.13-.89-.05-.99-.45h0Z"/>
                <path class="cls-41" d="m613.79,780.3c.51.07,1.02.13,1.53.2.08-.41.15-.81.23-1.22,1.26-6.61,2.53-13.23,3.79-19.85.19-.98-1.33-1.24-1.52-.27-.36,1.87-.71,3.74-1.07,5.61-.99,5.18-1.98,10.35-2.96,15.53Z"/>
                <path class="cls-41" d="m603.84,773.92c-.24,1.58-.46,3.16-.68,4.75.5.09,1.01.18,1.52.26,0-.04,0-.07.02-.11.47-3.45.98-6.89,1.61-10.32.49-2.69.91-5.56,2.07-8.07.34.08.76-.07.89-.41.27-.68.12-1.31-.38-1.83-.38-.39-.96-.12-1.2.26-.96,1.57-1.53,3.35-1.95,5.13-.81,3.4-1.36,6.88-1.89,10.34Z"/>
                <path class="cls-41" d="m591.41,776.27c.49.11.99.23,1.5.34,1.53-6.45,3.3-12.84,5.3-19.16.13-.4-.26-.83-.63-.89-.45-.08-.77.23-.89.63-.59,1.85-1.15,3.7-1.69,5.56-1.31,4.48-2.51,8.99-3.59,13.52Z"/>
              </g>
              <path class="cls-41" d="m759.71,1075.56c-17.48,3.66-35.22,6.01-53.02,7.43-17.37,1.39-34.8,1.89-52.21,1.75-16.14-.13-32.27-.82-48.36-1.94-13.76-.96-27.51-2.24-41.22-3.76-10.12-1.12-20.22-2.39-30.33-3.65-.95-.12-1.9-.24-2.86-.35-.98-.12-.97,1.42,0,1.54,9.63,1.19,19.25,2.42,28.89,3.52,13.34,1.52,26.71,2.83,40.1,3.85,15.99,1.21,32.01,2,48.05,2.26,17.39.28,34.8-.06,52.15-1.25,17.69-1.21,35.34-3.3,52.77-6.62,2.16-.41,4.31-.84,6.46-1.29.97-.2.56-1.69-.41-1.49h0Z"/>
            </g>
            <path class="cls-23" d="m774.51,655.63s-42.34-70.73-37.12-74.28c6.21-4.24,22.36,14.17,33.12,28.79,34.69-22.1,47.36,6.61,47.36,6.61,0,0,15.81,27.15.16,40.46-15.65,13.3-38.59,5.79-43.51-1.57Z"/>
            <path class="cls-23" d="m767.22,608.08s-5.69,15.53,22.25,18.04,29.77-13.97,15.12-26.18c-14.65-12.21-34.62,3.89-37.37,8.14Z"/>
            <path class="cls-9" d="m794.88,627.17c-1.73,0-3.56-.09-5.48-.26-11.07-.99-18.34-4.12-21.62-9.29-3.07-4.85-1.38-9.62-1.3-9.82.15-.41.61-.62,1.02-.47.41.15.62.61.47,1.02h0s-1.49,4.27,1.17,8.45c2.96,4.65,10.02,7.6,20.4,8.53,12.53,1.13,18.22-1.66,20.78-4.19,1.86-1.84,2.7-4.13,2.49-6.83-.03-.44.29-.82.73-.86.44-.03.82.29.86.73.24,3.14-.78,5.93-2.96,8.08-3.28,3.24-8.95,4.9-16.56,4.9Z"/>
            <path class="cls-9" d="m781.54,625.68c-.32,0-.63-.2-.75-.52-7.2-19.24-.71-26.55-.44-26.85.3-.32.8-.34,1.13-.04.32.3.34.8.05,1.12-.08.09-6.05,7.03.76,25.21.15.41-.05.87-.47,1.03-.09.03-.19.05-.28.05Z"/>
            <path class="cls-9" d="m796.27,627.17c-.32,0-.63-.2-.75-.52-7.2-19.24-.71-26.55-.44-26.85.3-.32.8-.34,1.13-.04.32.3.34.8.05,1.12-.09.1-6.04,7.04.76,25.21.15.41-.05.87-.47,1.03-.09.03-.19.05-.28.05Z"/>
            <path class="cls-23" d="m783.9,666.14c-12.8-5.83-37.39-32.19-37.39-43.89,0-9.87,13.85-9.04,17.97,2.55,2.46,6.93,12.44,11.45,12.44,11.45,0,0,20.17-5.78,28.28-4.01,32.02,6.99,17.63,47.05-21.3,33.89Z"/>
            <path class="cls-9" d="m776.82,637.11l-.28-.15c-10.73-5.86-12.26-9.03-14.04-12.71-.27-.55-.54-1.12-.85-1.7-1.44-2.71-4.91-5.14-8.07-5.66-1.48-.24-3.61-.18-5.35,1.47-.32.3-.82.29-1.13-.03-.3-.32-.29-.82.03-1.13,1.75-1.66,4.07-2.31,6.7-1.88,3.66.6,7.54,3.32,9.22,6.48.33.61.61,1.19.88,1.75,1.71,3.54,3.07,6.34,13.09,11.85,26.34-7.11,33.5-2.44,33.79-2.23.36.25.45.75.2,1.11-.25.36-.74.45-1.1.21-.11-.07-7.24-4.4-32.78,2.54l-.31.08Z"/>
            <path class="cls-40" d="m742.45,704.55s58.74,39.21,47.74,78.63c-11,39.43-59.38,77.08-73.29,85.77-13.92,8.68-56.54-2.09-52.02-29.36,4.52-27.27,45.3-65.16,45.3-65.16,0,0-51.41-20.99-53.76-41.64-2.34-20.64,25.72-72.5,86.02-28.24Z"/>
            <path class="cls-40" d="m598.96,671.37c-2.18,1.44-58.63,30.33-59.64,75.53-.46,20.66,20.9,83.56,35.05,106.38,6.09,9.83,63.65,13.87,57.15-23.82-6.5-37.69-25.21-60.95-25.21-60.95l36.27-55.26c3.89-21.14-20.87-54.07-43.62-41.87Z"/>
            <g>
              <path class="cls-3" d="m706.25,875.76c1.28-.88,9.51-8.33.25-22.91-9.26-14.57-48.01-17.38-43.15.42,4.86,17.81,30.91,30.74,42.91,22.48Z"/>
              <path class="cls-34" d="m703.58,876.13c1.17-.8,6.4-5.16-2.07-18.48s-42.22-17.62-37.78-1.35c4.44,16.27,28.88,27.38,39.85,19.83Z"/>
              <path class="cls-3" d="m671.48,850.95c7.06-6.09,29.62,4.31,28.28,15.72l-2.16,5.58s17.65,33.56,6.11,44.48c-16.26,15.39-46.49-38.17-48.08-46.95-1.58-8.78,13.58-16.86,15.85-18.82Z"/>
            </g>
            <g>
              <path class="cls-3" d="m583.35,863.93c-1.09-1.11-7.75-9.99,4.11-22.54,11.86-12.55,50.44-7.95,42.29,8.61s-36.19,24.31-46.4,13.93Z"/>
              <path class="cls-34" d="m585.9,864.79c-.99-1.01-5.3-6.28,5.54-17.76,10.84-11.47,44.79-9.28,37.35,5.85s-33.56,21.39-42.89,11.9Z"/>
              <path class="cls-3" d="m622.2,846.17c-5.77-7.32-29.9-1.39-30.75,10.06l1.06,5.89s-20.12,37.33-12.41,44.24c14.62,13.13,50.86-30.38,54.08-38.7,3.22-8.32-10.13-19.14-11.99-21.49Z"/>
            </g>
            <g>
              <path class="cls-38" d="m640.23,581.72s27.2,15.26,36.36,44.76c-44.91,29.88-36.36-44.76-36.36-44.76Z"/>
              <path class="cls-23" d="m545.76,702.01c3.59,6.14,8.08,11.82,13.13,16.99,0,0,.01.01.03.04,12.98,13.29,29.66,23.28,44.48,29.37,24.49,10.07,50.57,10.22,68.98-.55,16.54-9.68,20.04-25.75,22.78-49.73.24-2.13.48-4.32.72-6.58,2.28-21.51-7.39-44.88-19.69-65.88-28.1-48-76.93-71.67-116.15-48.71-39.22,22.96-42.37,77.05-14.27,125.06Z"/>
              <path class="cls-22" d="m593.79,683.19c1.8,3.08,5.2,4.44,7.58,3.05,2.38-1.4,2.86-5.02,1.05-8.1-1.8-3.08-5.2-4.44-7.58-3.05s-2.86,5.02-1.05,8.1Z"/>
              <path class="cls-22" d="m659.75,645.76c1.8,3.08,5.2,4.44,7.58,3.05,2.38-1.4,2.86-5.02,1.05-8.1-1.8-3.08-5.2-4.44-7.58-3.05-2.38,1.4-2.86,5.02-1.05,8.1Z"/>
              <path class="cls-38" d="m644.33,592.6c23.73-21.56,15.27-39.59,5.77-49.37,0,0-13.53-12.24-23.85-17.17,3.98,14.65-21.39,30.53-45.04,34.86-23.15,4.23-71.78,30.01-75.21,63.27-1.26,12.19,34.72,62.57,138.33-31.59Z"/>
              <path class="cls-38" d="m558.29,634.21s11.56,12.67,7.97,54.48c-22.33-16.58-32.32-.02-32.32-.02,0,0-50.94-34.89-21.95-58.89,22.72-19.96,46.29,4.43,46.29,4.43Z"/>
              <path class="cls-38" d="m662.16,618.89s-11.25,2.39-19.77,12.38c-5.7,4.42-9.23-1.97-8.05-4.01,0,0,13.2-15.8,26.45-12.74,2.29,1.89,1.37,4.37,1.37,4.37Z"/>
              <path class="cls-38" d="m575,673.61s7.07-9.07,19.79-12.37c6.47-3.2,2.26-9.16-.08-8.99,0,0-19.98,4.96-23.03,18.22.7,2.89,3.33,3.14,3.33,3.14Z"/>
              <path class="cls-15" d="m676.05,695.46s-17.46,26.45-54.34,25.51c12.4,8.97,28.91,10.12,37.99,5.42,11.01-5.71,14.08-24.15,16.36-30.93Z"/>
              <ellipse class="cls-23" cx="548.29" cy="699.54" rx="19.11" ry="20.33" transform="translate(-278.29 372.82) rotate(-30.34)"/>
              <path class="cls-38" d="m570.05,705.9l2.3-.18c7.99,17.43,22.91,34.46,56.5,38.73,28.6,3.64,60.96-18.44,65.54-46.84.25.15.5.32.75.51-.14,18.98-5.78,45.87-22.33,55.52-22.49,13.12-47.4,9.87-71.89-.2-14.82-6.1-31.98-25.95-31.98-25.95,0,0,3.04-6.78,1.1-21.6Z"/>
              <path class="cls-1" d="m648.38,688.93c-.36,0-.7-.23-.82-.59-.15-.45.09-.94.55-1.09.09-.03,8.83-3.04,9.02-10.44.17-6.28-11.8-12.84-16.91-15.64-1.06-.58-1.83-1.01-2.24-1.28-.39-.27-.5-.81-.23-1.2.27-.39.81-.5,1.2-.23.34.23,1.12.66,2.1,1.2,5.84,3.2,18,9.87,17.81,17.2-.23,8.62-9.79,11.9-10.2,12.03-.09.03-.18.04-.27.04Z"/>
            </g>
            <g>
              <path class="cls-24" d="m489.15,1632.79l17.08-5.22c11.27-22.17,59.34-19.43,52.65,7.56,18.86,2.81,28.78-6.59,28.78-6.59,8.41,16.13,8.96,33.32,5.64,51.04h-101.85l-2.3-46.79Z"/>
              <path class="cls-29" d="m542.94,1679.58c0-.23.02-.46.02-.69,0-25.94-21.03-46.98-46.98-46.98s-46.98,21.03-46.98,46.98c0,.23.01.46.02.69h93.92Z"/>
            </g>
            <g>
              <path class="cls-24" d="m766.32,1633.36l-17.56-5.37c-11.59-22.8-61.02-19.98-54.13,7.77-19.39,2.89-29.6-6.77-29.6-6.77-8.64,16.58-9.21,34.26-5.8,52.48h104.72l2.36-48.11Z"/>
              <path class="cls-29" d="m711.01,1681.47c0-.24-.02-.47-.02-.71,0-26.68,21.63-48.3,48.3-48.3s48.3,21.63,48.3,48.3c0,.24-.01.47-.02.71h-96.57Z"/>
            </g>
          </g>
        </g>
        <path class="cls-7" d="m1015.14,488.2c-3.75,20.08-47.1,12.83-47.1,12.83,0,0-13.41-43.03,6.18-48.42,19.97-5.5,17.83,20.81,17.83,20.81,0,0,26.8-5.14,23.09,14.78Z"/>
      </g>
      <rect class="cls-27" x="244.64" y="1679.97" width="1082.17" height="3"/>
    </g>
    <g id="female_couple" data-name="female couple">
      <g>
        <g>
          <g>
            <path class="cls-43" d="m1830.12,603.94s-16.38-25.31-54.28-17.24c-91.47,19.47-36.87,176.48-125.99,287.74,51.8,81.35,144.67,21.37,144.67,21.37,0,0,50.16-237.14,35.6-291.88Z"/>
            <path class="cls-32" d="m1879.92,811.39l77.84,141.82,104.69,114.19-21.03,17.72s-104.76-70.98-123.88-97.5c-18.83-26.11-101.47-115.9-105.63-155.66-2.84-27.17,42.03-60.41,68.01-20.57Z"/>
            <path class="cls-18" d="m1911.49,873.26c-3.52,23-14.56,54.3-24.39,88.8-2.23,7.88-4.41,16-6.44,24.16,28.7,59.59-154.14,103.73-144.96,23.83,3.29-13.63,4.87-29.86,5.1-47.99.74-44.28-6.17-100.11-14.28-157.61,33.06-70.9,126.61-42.72,150.75-13.66,9.83,11.84,38.35,55.9,34.22,82.48Z"/>
            <path class="cls-13" d="m1880.65,986.22c28.7,59.59-154.14,103.73-144.96,23.83,3.29-13.63,4.87-29.86,5.1-47.99h146.3c-2.23,7.88-4.41,16-6.44,24.16Z"/>
            <path class="cls-13" d="m1921.11,1112.57c13.97-51.88-32.68-118.45-32.68-118.45-36.08-43.33-124.97-34.2-150.57,5.02,0,0-36.23,44.34-38.02,113.42h221.27Z"/>
            <path class="cls-13" d="m1809.43,1093.12l126.84,541.46,45.43-.31-58.19-550.67c-21.47-128.11-138.1-72.9-114.07,9.51Z"/>
            <path class="cls-13" d="m1702.39,1086.37c-15.95,70.82,41.87,547.91,41.87,547.91h47.02l31.06-541.11c3.34-71.7-104.34-109.21-119.95-6.8Z"/>
            <g>
              <path class="cls-13" d="m2013.05,1680.51c-.95-8.01-25.29-16.88-25.29-16.88l-11.38-68.69v-1.85h-44.35l-4.55,27.53,36.46,59.88h49.1Z"/>
              <polygon class="cls-13" points="1933.85 1680.51 1955.33 1617 1927.43 1620.45 1927.48 1680.51 1933.85 1680.51"/>
            </g>
            <g>
              <path class="cls-13" d="m1806.73,1680.51c10.05-7.5-10.37-16.88-10.37-16.88l-5.47-68.69v-1.85h-44.35l-4.55,27.53,23.06,59.88h41.67Z"/>
              <polygon class="cls-13" points="1748.37 1680.51 1769.84 1617 1741.95 1620.45 1741.99 1680.51 1748.37 1680.51"/>
            </g>
            <path class="cls-32" d="m1778.95,785.22c-20.45-27.13-65.41-7.42-154.79,98.95-27.45,31.81-13.5,205.11-13.5,205.11,2.31,11.12,26.66,10.33,27.07-5.91l28.29-166.26s150.86-93.31,112.93-131.9Z"/>
            <path class="cls-32" d="m1636.03,1091.3s7.4,16.02-1.48,39.97c-9.69-1.26-2.78-16.48-7.1-13.94-3.31,1.94-7.74,9.56-16.61,30.56-3.26,1.65-7.27,1.63-12.27-1.16-21.39-11.94-2.4-49.68,7.45-66.37,9.86-16.7,34.94-.86,30.01,10.95Z"/>
            <path class="cls-32" d="m1869.71,711.89l-13.7,51.7-3.87,14.67c-16.1,9.73-64.85,2.31-62.08-16.14l31.23-76.98,29.38,16.24,19.05,10.52Z"/>
            <path class="cls-12" d="m1869.71,711.89l-13.7,51.7c-19.73-16.35-28.82-41.23-30.9-63.1,0,0,12.41-1.98,25.55.88l19.05,10.52Z"/>
            <path class="cls-32" d="m1805.1,777.38s47.12,42.46,56.83,40.36c9.72-2.1-4.07-29.01-9.8-39.5-5.32-9.73-44.55-20.08-47.03-.86Z"/>
            <g>
              <path class="cls-32" d="m1946.47,680.36c-5.42,45.29-40.98,75.7-63.85,73.98-37.25-2.8-75.88-44.75-70.47-90.04,5.42-45.29,39.88-78.41,76.97-73.98,37.09,4.44,62.77,44.75,57.35,90.04Z"/>
              <g>
                <path class="cls-2" d="m1906.84,706.49c-1.46,0-3.52-.53-6.15-2.5-.31-.23-.37-.66-.14-.97.23-.31.66-.37.97-.14,2.29,1.71,4.46,2.47,6.11,2.15.89-.18,1.58-.66,2.05-1.43.68-1.13-.43-2.98-1.84-5.32-1.46-2.44-3.28-5.47-3.89-9.1l-.7-5.74c-.05-.38.22-.72.6-.77.37-.05.72.22.77.6l.7,5.71c.56,3.34,2.31,6.25,3.71,8.59,1.65,2.74,2.94,4.91,1.83,6.75-.67,1.1-1.69,1.82-2.97,2.07-.31.06-.66.1-1.05.1Z"/>
                <path class="cls-13" d="m1887.31,669.41c-.63,2.78-2.87,4.63-5.01,4.15-2.13-.49-3.35-3.13-2.72-5.91s2.87-4.63,5.01-4.15c2.13.49,3.35,3.13,2.72,5.91Z"/>
                <path class="cls-13" d="m1934.17,680.81c-.41,2.73-2.5,4.67-4.66,4.34s-3.58-2.8-3.17-5.52,2.5-4.67,4.66-4.35,3.58,2.8,3.17,5.52Z"/>
                <path class="cls-2" d="m1938.07,672.37c-.33,0-.62-.24-.68-.57-.36-2.07-1.76-3.59-3.84-4.18-2.74-.78-5.95.25-8,2.56-.25.29-.69.31-.98.06-.29-.25-.31-.69-.06-.98,2.42-2.74,6.12-3.91,9.41-2.97,2.62.74,4.38,2.67,4.83,5.28.07.38-.19.73-.56.8-.04,0-.08.01-.12.01Z"/>
                <path class="cls-2" d="m1890.78,661.74c-.33,0-.62-.24-.68-.57-.36-2.07-1.76-3.59-3.84-4.18-2.74-.78-5.96.25-8,2.56-.25.29-.69.31-.98.06-.29-.25-.31-.69-.06-.98,2.42-2.74,6.12-3.91,9.41-2.97,2.62.74,4.38,2.67,4.83,5.28.07.38-.19.73-.56.8-.04,0-.08.01-.12.01Z"/>
              </g>
              <path class="cls-43" d="m1936.85,619.64s-91.23,28.29-127.94,91.91c-26.47-62.9-15.9-106.33,27.45-128.31,38.8-19.67,84.04.65,100.49,36.4Z"/>
              <path class="cls-43" d="m1926.24,623.41s19.56,19.49,20.42,55.08c8.4-34.94-2.03-107.36-80.98-102.88s60.56,47.79,60.56,47.79Z"/>
              <circle class="cls-32" cx="1833.44" cy="675.93" r="15.98" transform="translate(754.36 2305.03) rotate(-76.72)"/>
              <path class="cls-3" d="m1825.09,738.39c-14.95,0-27.11-12.16-27.11-27.11,0-12.81,9.09-23.97,21.62-26.55l.38,1.85c-11.65,2.4-20.1,12.78-20.1,24.7,0,13.9,11.31,25.22,25.22,25.22s25.22-11.31,25.22-25.22c0-10.49-6.61-20-16.44-23.65l.66-1.77c10.57,3.92,17.68,14.14,17.68,25.42,0,14.95-12.16,27.11-27.11,27.11Z"/>
              <path class="cls-2" d="m1894.39,729.72c-16.88,0-20.38-9.55-20.55-10.05-.12-.36.07-.75.43-.88.36-.12.75.07.88.43.07.19,5.2,13.71,32.85,7.4.37-.08.74.15.83.52.08.37-.15.74-.52.83-5.43,1.24-10.03,1.75-13.91,1.75Z"/>
            </g>
          </g>
          <g>
            <path class="cls-13" d="m2512.74,686.27s27.27-19.44,57.6-3.38c30.33,16.06,26.64,50.92,26.64,50.92,0,0,53.14-31.63,89.97,13.72,36.84,45.35-3.5,80.63-3.5,80.63,0,0,41.72,26.19,16.65,82.65-25.07,56.46-101.08,28.93-101.08,28.93,0,0-27.4,36.64-78.85,18.86-51.45-17.77-42.21-73.95-42.21-73.95,0,0-30.96-2.18-49.84-42.77-18.88-40.59,11.03-60.42,11.03-60.42,0,0-28.35-13.43-22.71-39.8,5.64-26.37,39.96-27.81,39.96-27.81,0,0-10.27-33.22,12.36-41.93,22.63-8.7,43.98,14.34,43.98,14.34Z"/>
            <path class="cls-25" d="m2439.48,850.64l-68.86,136.75-116.23,84.08,9.33,20.47s128.42-56.3,148.14-78.24c31.75-35.32,91.15-125.19,93.45-147.27,2.3-22.08-43.16-53-65.83-15.79Z"/>
            <path class="cls-4" d="m2494.38,1040.38c-28.36-68.3-58.94-99.66-63.22-123.68-4.29-24.02,9.37-74.54,19.95-87.92,28.75-36.36,89.36-52.47,127.55-2.85,30.77,39.98,22.24,159.59,22.24,159.59l-106.51,54.86Z"/>
            <g>
              <path class="cls-32" d="m2619.55,1127.93l-99.97,170.34v.05l-10.16,17.17-46.05,78.47-.05.09c1.88,88.02-39.61,171.14-66.47,231.31l-40.88,12.14,42.29-247.58,12.37-72.49,33.73-197.34,59.37,2.68,115.82,5.18Z"/>
              <path class="cls-32" d="m2695.62,1610.96l-33.45,14.4s-114.31-180.78-128.28-231.12c-.19-.61-.33-1.27-.52-1.93-3.9-15.19-8-43.66-11.85-76.77-.66-5.6-1.32-11.38-1.93-17.22v-.05c-7.67-69.76-14.11-152.42-15.85-175.52-.33-4.09-.47-6.3-.47-6.3l139.62,3.62-32.84,198.47-10.58,63.98c.14.14.24.28.38.47,39.52,47.42,73.43,134.49,95.78,227.97Z"/>
              <path class="cls-19" d="m2357.37,1628.15l-11.41,45.7s-17.84,1.68-19.67,10.49h49.17l17.53-44.58v44.58h6.72s17.53-37.92,15.88-54.11c-1.65-16.19-9.49-25.44-9.49-25.44l-48.73,23.36Z"/>
              <path class="cls-19" d="m2662.16,1625.38l17.96,33.11s-8.19,17.85-6.47,27.22c13.52,0,35.1-25.25,35.1-25.25l-9.15-41.49,23,32.98,4.4-3.25s-11.8-44.18-21.71-55.42c-9.87-11.21-17.1-12.07-17.1-12.07l-26.03,44.18Z"/>
              <path class="cls-12" d="m2410.64,1317.42c18.39-.71,56.59-1.88,98.79-1.93l-46.05,78.47c-27.71-.71-50.9-2.63-65.11-4.05l12.37-72.49Z"/>
              <path class="cls-12" d="m2599.47,1382.52c.14.14.24.28.38.47-21.64,4.8-44.31,7.71-66.47,9.31-3.9-15.19-8-43.66-11.85-76.77,30.06.14,61.39.94,88.53,3.01l-10.58,63.98Z"/>
            </g>
            <path class="cls-4" d="m2598.87,984.13c62.87,40.22,67.78,258.79,105.63,346.04-22.38,25.45-257.35,38.1-321.51,8.21,8.7-91.8,69.95-258.54,99.97-366.16l115.91,11.91Z"/>
            <path class="cls-25" d="m2523.99,868.14l56.6,99.15-64.77,127.07,27.91,16.03s93.55-108.69,91.42-138.12c-3.4-46.91-44.2-135.53-61.2-149.81-17-14.28-68.08,6.05-49.97,45.68Z"/>
            <path class="cls-25" d="m2524,1083.25s-18.02-5.6-41.3,8.82c3.39,9.92,15.78,5.73,15.78,5.73,0,0-8.4,10.16-28.58,23.96-1.04,3.77-.17,7.98,3.83,12.65,17.1,19.93,52.71-8.05,68.16-21.95,15.45-13.91-1.1-35.58-17.89-29.2Z"/>
            <path class="cls-3" d="m2464.88,831.05s.53,24.76,19.47,22.07c18.95-2.69,56.6-48.26,47.96-59.76-8.65-11.5-57.06,11.57-67.43,37.69Z"/>
            <path class="cls-3" d="m2465.36,836.25s-15.64,17.31-20.07,3.35c-5.86-18.44,65.83-62.05,86.14-47.17,7.01,5.14-66.07,43.83-66.07,43.83Z"/>
            <path class="cls-32" d="m2499.82,737.72l25.97,54.84c5.02,12.59-58.5,50.19-59.87,28.09l-1.99-16.17-4.07-32.77-2.5-20.12,42.46-13.88Z"/>
            <path class="cls-12" d="m2496.41,759.66c-.18,26.15-25.28,41.11-32.47,44.83l-5.11-41.13c11.22-18.93,37.74-23.19,37.59-3.7Z"/>
            <g>
              <path class="cls-3" d="m2445.51,889.69h-.02c-3.3-.02-5.53-1.17-6.63-3.42-5.52-11.35,23.22-48.73,24.45-50.32.27-.34.73-.46,1.13-.29.4.17.63.6.55,1.02-.92,5.43-9.23,53-19.48,53Zm16.94-49.45c-9.11,12.32-25.69,37.39-21.88,45.2.76,1.57,2.38,2.34,4.94,2.35h.01c6.11,0,13.29-27.71,16.93-47.56Z"/>
              <path class="cls-3" d="m2474.9,891.16c-.91,0-1.79-.22-2.63-.68-10.94-5.91-9.24-52.03-9.16-53.99.02-.43.33-.8.75-.89.42-.09.85.12,1.05.5,2.39,4.82,23.14,47.27,14.79,53.23-1.69,1.21-3.3,1.81-4.8,1.81Zm-10-50.75c-.27,14.98.76,44.35,8.28,48.41,1.54.83,3.31.5,5.43-1.01,4.97-3.55-5.19-29.61-13.7-47.4Z"/>
            </g>
            <g>
              <path class="cls-32" d="m2363.57,733.43c9.85,50.76,53.37,86.65,76.29,82.01,42.19-5.44,65.27-48.82,50.38-100.08-13.91-47.91-38.44-86.15-80.63-80.71-42.19,5.44-60.46,64-46.05,98.78Z"/>
              <g>
                <path class="cls-18" d="m2450.18,767.9s-25.43,15.01-35.43,17.43c12.14,22.69,32.5,9.14,35.48,4.44,6.31-9.97,3.9-15.63-.05-21.87Z"/>
                <path class="cls-33" d="m2408.93,767.99c-.91,0-1.76-.17-2.45-.59-1.19-.73-1.75-2.08-1.68-4v-.16s.09-.13.09-.13c2.89-4.25,3.58-7.98,3.91-11.37.03-.3.3-.51.59-.49.3.03.52.29.49.59-.33,3.5-1.05,7.35-4,11.75-.03,1.44.35,2.38,1.17,2.88,2.24,1.38,7.36-.87,9.15-1.85.26-.15.59-.05.74.21.14.26.05.59-.21.74-.22.12-4.44,2.41-7.8,2.41Z"/>
                <path class="cls-33" d="m2427.38,727.55c1.33,2.58,4.01,3.85,6,2.83,1.98-1.02,2.52-3.94,1.19-6.52-1.33-2.58-4.01-3.85-5.99-2.83-1.98,1.02-2.52,3.94-1.19,6.52Z"/>
                <path class="cls-33" d="m2380.59,750.99c1.09,2.59,3.65,3.98,5.7,3.11,2.05-.87,2.83-3.67,1.74-6.26-1.09-2.59-3.65-3.98-5.7-3.11-2.05.87-2.83,3.67-1.74,6.26Z"/>
              </g>
              <path class="cls-13" d="m2428.1,686c.73-1.67,21.9,35.76,66.88,21.05,19.31-55.23-53.04-131.18-110.8-62.6-26.76,38.98-56.37,25.34-62.78,51.59-8.67,56.7,81.93,46.81,106.7-10.04Z"/>
              <path class="cls-32" d="m2476.78,725.76c4.89,6.64,14.23,8.06,20.88,3.17,6.64-4.89,8.06-14.23,3.17-20.88-4.89-6.64-14.23-8.06-20.88-3.17-6.64,4.89-8.06,14.23-3.17,20.88Z"/>
            </g>
          </g>
          <g>
            <path class="cls-32" d="m2036.83,1095.49c3.39,2.81,9.3,1.27,13.2-3.43,3.9-4.7,4.31-10.8.91-13.61s-9.3-1.27-13.2,3.43-4.31,10.8-.91,13.61Z"/>
            <ellipse class="cls-25" cx="2271.26" cy="1086.44" rx="7.98" ry="11.06" transform="translate(-170.9 1698.69) rotate(-39.64)"/>
            <g>
              <path class="cls-21" d="m2230.69,1430.01s1.94-6.24,8.17-6.69c7.24-1.99,17.53,8.25,14.19,24.22,3.34,10.64,4.64,19.95-2.18,27.16-14.64,7.91-20.49-3.1-24.22-17.63-2.56-9.97-.53-20,4.04-27.05Z"/>
              <path class="cls-39" d="m2127.02,1491.26c16.59-8.56,42.04-39.75,63.42-66.8l-9.12-13.04-71.28,37.07c-13.99,12.92,1.15,47.68,16.99,42.77Z"/>
              <path class="cls-23" d="m2171.71,1492.57c17.89-5.35,42.98-22.69,68.99-45.32,3.89-6.33-3.35-18.92-7.63-17.85l-70.16,17.99c-16.14,10.12-7.68,47.07,8.79,45.17Z"/>
              <path class="cls-23" d="m2096.28,1381.34s-4.53,111.89,23.04,111.89c37.7,0,30.63-111.89,30.63-111.89h-53.67Z"/>
              <path class="cls-23" d="m2151.19,1381.34s-11.73,111.89,15.84,111.89c37.7,0,36.46-111.89,36.46-111.89h-52.31Z"/>
              <path class="cls-43" d="m2161.98,1104s-43.47-3.83-60.7,33.23c-17.23,37.06-3.41,43.45-22.45,59.29-20.88,17.36-15.75,50.62-8.21,58.05,9.83,9.69,18.03,8.26,18.04,24.63,0,20.13,28.99,32.67,63.15,31.41,34.16-1.26,92.99-15.33,87.77-35.12s5.29-24.31,10.86-34.25c5.57-9.94,4.02-22.51-10.32-34.77-14.34-12.26-18.21-51.43-19.63-55.61-1.42-4.18-15.58-47.93-58.51-46.87Z"/>
              <path class="cls-40" d="m2214.52,1296c-1.65-25.44-6.17-52.43-9.07-70.52-17.43-42.52-87.98-36.87-97.23,0-2.87,23.89-7.01,46.47-9.56,70.52h115.85Z"/>
              <path class="cls-23" d="m2173.16,1204.07l-1.94-20.22-32.06-1.28,1.94,20.22c6.5,3.15,13.78,5.79,32.06,1.28Z"/>
              <path class="cls-40" d="m2099.37,1281.88l-35.34,125.25c6.78,22.66,46.61,5.63,49,14.96,4.76,18.55,69.23,4.01,78.51,4.88,43.23,4.03,51.6-11.77,51.6-19.84l-28.49-124.24-115.28-1.01Z"/>
              <g>
                <polygon class="cls-32" points="2059.39 1120.09 2039.59 1066.83 2059.39 1056.23 2085.31 1107.65 2059.39 1120.09"/>
                <path class="cls-40" d="m2069.91,1077.52s65.21,116.66,70.06,129.78c13.9,10.87-4.28,45.63-31.13,37.92-8.78-11.7-61.03-156.94-61.03-156.94l22.09-10.75Z"/>
                <g>
                  <path class="cls-32" d="m2039.59,1066.83s-8.19-10.39,2.45-24.68c-8.51-11.05,24.02-19.05,27.44-3.01,1.06,9.58-2.41,17.65-8.95,21.6-6.54,3.95-15.81,8.21-20.94,6.09Z"/>
                  <path class="cls-37" d="m2039.59,1067.3c-.15,0-.3-.07-.39-.21-8.24-11.89,2.36-25.12,2.47-25.26l.38-.47.37.48s3.51,4.36,15.09,3.36c.26-.02.49.17.52.43s-.17.49-.43.52c-10.05.87-14.26-2.11-15.51-3.29-1.7,2.33-9.11,13.56-2.1,23.68.15.22.1.51-.12.66-.08.06-.18.09-.27.09Z"/>
                  <path class="cls-37" d="m2046.49,1051.74c-.12,0-.24-.04-.33-.13-.19-.18-.2-.48-.01-.67,5.78-6.04,13.03-5.87,15.26-5.65-.35-2.05-1.05-8.17,2.73-9.87,1.16-.52,2.24-.56,3.19-.12,1.77.82,2.43,3.02,2.46,3.11.07.25-.07.52-.32.59-.25.07-.52-.07-.59-.32,0-.02-.57-1.88-1.95-2.51-.69-.32-1.5-.28-2.39.13-3.76,1.69-2.08,9.38-2.06,9.45l.16.71-.71-.14c-.08-.01-8.55-1.53-15.07,5.28-.09.1-.22.15-.34.15Z"/>
                </g>
              </g>
              <g>
                <polygon class="cls-32" points="2257.46 1120.09 2277.26 1066.83 2257.46 1056.23 2231.54 1107.65 2257.46 1120.09"/>
                <path class="cls-40" d="m2246.94,1077.52s-65.21,116.66-70.06,129.78c-13.9,10.87,4.28,45.63,31.13,37.92,8.78-11.7,61.03-156.94,61.03-156.94l-22.09-10.75Z"/>
                <g>
                  <path class="cls-32" d="m2277.26,1066.83s8.19-10.39-2.45-24.68c8.51-11.05-24.02-19.05-27.44-3.01-1.06,9.58,2.41,17.65,8.95,21.6,6.54,3.95,15.81,8.21,20.94,6.09Z"/>
                  <path class="cls-37" d="m2262.74,1046.32c-1.07,0-2.23-.05-3.47-.16-.26-.02-.46-.25-.43-.52.02-.26.27-.45.52-.43,11.57,1,15.05-3.32,15.09-3.36.16-.21.46-.25.67-.09.21.16.25.46.09.66-.13.18-3.06,3.89-12.45,3.89Z"/>
                  <path class="cls-37" d="m2270.35,1051.74c-.12,0-.25-.05-.34-.15-6.52-6.81-14.99-5.3-15.07-5.28l-.71.14.16-.71c.02-.08,1.7-7.77-2.06-9.45-.9-.4-1.71-.45-2.4-.13-1.38.64-1.94,2.49-1.94,2.51-.07.25-.34.4-.59.32-.25-.07-.4-.34-.32-.59.03-.09.68-2.29,2.46-3.11.95-.44,2.03-.4,3.19.12,3.78,1.7,3.08,7.82,2.73,9.87,2.23-.22,9.47-.39,15.26,5.65.18.19.18.49-.01.67-.09.09-.21.13-.33.13Z"/>
                </g>
              </g>
              <g>
                <path class="cls-3" d="m2131.06,1206.05s9.38,8.47,30.54,6.25,22.52-9.61,22.52-9.61c5.99-5.39,12.11,1.8,11.28,7.91,0,0-9.16,18.77-38.96,19.79-28.09.96-39.33-20.7-39.33-20.7-1.02-6.33,11.77-8.06,13.95-3.64Z"/>
                <ellipse class="cls-43" cx="2158.73" cy="1147.63" rx="56.55" ry="57.88" transform="translate(744.21 3141.69) rotate(-82.65)"/>
                <path class="cls-23" d="m2206.82,1167.52c15.81,23.69-17.63,55.96-52.41,53.86-40.25-2.43-62.32-39.4-45.91-59.8,1.79-31.38,25.26-55.5,52.41-53.86,27.15,1.64,47.71,28.41,45.91,59.8Z"/>
                <ellipse class="cls-23" cx="2108.49" cy="1161.58" rx="11.31" ry="11.63"/>
                <ellipse class="cls-23" cx="2207.83" cy="1167.58" rx="11.31" ry="11.63"/>
                <path class="cls-31" d="m2127.13,1164.31c-.15,2.56-3.82,4.43-8.21,4.16-4.39-.26-7.82-2.56-7.68-5.12.15-2.56,3.82-4.43,8.21-4.16,4.39.26,7.82,2.56,7.68,5.12Z"/>
                <path class="cls-31" d="m2198.1,1168.59c-.15,2.56-3.82,4.43-8.21,4.16-4.39-.26-7.82-2.56-7.68-5.12.15-2.56,3.82-4.43,8.21-4.16,4.39.26,7.82,2.56,7.68,5.12Z"/>
                <path class="cls-13" d="m2132.74,1157.81s-.03,0-.04,0c-.4-.02-.71-.37-.69-.77.14-2.49-1.01-4.67-2.51-4.76-.6-.04-1.12.29-1.44.57-.9.8-1.5,2.24-1.59,3.85-.02.4-.36.72-.77.69-.4-.02-.71-.37-.69-.77.11-1.99.89-3.8,2.08-4.86.75-.67,1.62-1,2.5-.94,2.37.14,4.08,2.91,3.88,6.3-.02.39-.34.69-.73.69Z"/>
                <path class="cls-13" d="m2190.69,1157.81s-.03,0-.04,0c-.4-.02-.71-.37-.69-.77.14-2.49-1.01-4.67-2.51-4.76-.61-.04-1.12.29-1.44.57-.9.8-1.5,2.24-1.59,3.85-.02.4-.36.72-.77.69-.4-.02-.71-.37-.69-.77.11-1.99.89-3.8,2.08-4.86.75-.67,1.61-1,2.5-.94,2.37.14,4.08,2.91,3.88,6.3-.02.39-.34.69-.73.69Z"/>
                <path class="cls-31" d="m2157.78,1157.08s-8.13,1.93-8.28,9.93c-.05,2.63,2.44,6.51,8.52,7.22-3.15-1.65-5.21-4.15-5.55-6.78-.77-5.94,5.3-10.36,5.3-10.36Z"/>
                <path class="cls-43" d="m2206.59,1151.54c-12.92-12.86-48.59-21.65-73.24-14.34-2.01-4.22-3.65-9.98-1.83-14.64-4.55,5.05-3.82,11.81-2.84,16.18-1.9.69-3.74,1.44-5.52,2.25-.6-4.76.09-12.33,4.45-17.66-8.38,6.12-9.67,16.77-9.91,20.4-4.03,2.24-7.56,4.71-10.37,7.2-.43.17-.64.26-1.07.44,0,0-4.36-45.61,50.71-45.36,52.02.24,49.61,45.54,49.61,45.54Z"/>
                <path class="cls-15" d="m2123.12,1180.94s20.74,1.65,66.65.26c0,0-4.17,27.08-34.72,26.2-23.89-.69-31.93-26.46-31.93-26.46Z"/>
              </g>
            </g>
            <g>
              <path class="cls-25" d="m2254.4,1058.89c6.88,10.66,17.67,10.97,20.53,17.04,7.14,15.16-7.82,21.69-16.9,23.72-6.95,1.55-18.04-5.68-19.66-15s6.88-25.51,16.04-25.75Z"/>
              <path class="cls-6" d="m2273.83,1091.3c-.11,0-.23-.03-.33-.1-.27-.18-.35-.55-.17-.83,6.14-9.34,1.3-14.73.71-15.33-1.14-.55-12.23-6.03-20.11-15.78-.21-.26-.17-.63.09-.84.26-.2.63-.17.84.09,8.1,10.01,19.66,15.44,19.78,15.5l.15.1c.07.06,6.58,6.2-.46,16.91-.11.17-.3.27-.5.27Z"/>
              <path class="cls-6" d="m2273.97,1085.54c-11.49,0-21.73-11.93-22.18-12.47-.21-.25-.18-.63.07-.84.25-.21.63-.18.84.07.11.13,11.48,13.37,23.1,11.93.32-.04.62.19.66.52.04.33-.19.62-.52.66-.66.08-1.32.12-1.98.12Z"/>
              <path class="cls-6" d="m2270.26,1092.65c-11.58,0-22.68-12.02-23.18-12.56-.22-.24-.2-.62.04-.84.24-.22.62-.21.84.04.12.14,12.46,13.51,24.12,12.07.32-.04.62.19.66.52.04.33-.19.62-.52.66-.66.08-1.32.12-1.97.12Z"/>
              <path class="cls-6" d="m2262.36,1098.96c-11.24,0-19.08-11.44-19.42-11.95-.18-.27-.11-.64.16-.83.28-.18.64-.11.83.16.08.13,8.74,12.74,20.33,11.31.31-.04.62.19.66.52.04.33-.19.62-.52.66-.69.09-1.37.13-2.04.13Z"/>
            </g>
            <g>
              <path class="cls-32" d="m2062.32,1060.19c-7.65,10.66-19.65,10.97-22.83,17.04-7.95,15.16,8.69,21.69,18.8,23.72,7.73,1.55,20.06-5.68,21.87-15s-7.66-25.51-17.84-25.75Z"/>
              <path class="cls-6" d="m2040.71,1092.63c-.19,0-.38-.09-.51-.26-7.87-10.77-.59-16.94-.51-17l.16-.09c.13-.05,13-5.48,22.01-15.5.23-.26.63-.28.89-.05.26.23.28.63.05.89-8.79,9.77-21.16,15.26-22.36,15.78-.7.62-6.05,5.87.79,15.24.21.28.14.67-.14.88-.11.08-.24.12-.37.12Z"/>
              <path class="cls-6" d="m2040.55,1086.87c-.73,0-1.46-.04-2.19-.12-.34-.04-.59-.35-.55-.69.04-.35.35-.6.69-.55,12.98,1.45,25.63-11.81,25.75-11.95.24-.25.63-.26.89-.03.25.24.26.63.03.89-.5.54-11.87,12.45-24.62,12.45Z"/>
              <path class="cls-6" d="m2044.68,1093.98c-.73,0-1.45-.04-2.18-.12-.34-.04-.59-.35-.55-.69.04-.35.36-.6.69-.55,13,1.44,26.75-11.94,26.89-12.08.25-.24.64-.24.89,0,.24.25.24.64,0,.89-.55.54-12.88,12.55-25.72,12.55Z"/>
              <path class="cls-6" d="m2053.46,1100.3c-.74,0-1.49-.04-2.26-.13-.34-.04-.59-.35-.55-.69.04-.34.35-.6.69-.55,12.95,1.45,22.57-11.19,22.67-11.32.21-.28.6-.33.88-.13.28.21.33.6.13.88-.39.51-9.1,11.94-21.56,11.94Z"/>
            </g>
          </g>
        </g>
        <path class="cls-7" d="m2185.62,891.97c9.24,18.22-29.58,38.83-29.58,38.83,0,0-36.82-26-24.55-42.19,12.51-16.51,26.82,5.67,26.82,5.67,0,0,18.15-20.38,27.31-2.31Z"/>
      </g>
      <rect class="cls-27" x="1603.67" y="1679.97" width="1157.25" height="3"/>
    </g>
  </g>
</svg>